<svg xmlns="http://www.w3.org/2000/svg" xmlns:xlink="http://www.w3.org/1999/xlink" xml:space="preserve" width="560" height="560" viewBox="0 0 420 420">
 <defs>
  <radialGradient xlink:href="#a" id="b" cx="169.6" cy="140.4" r="105.6" fx="169.6" fy="140.4" gradientTransform="translate(-32 -32)" gradientUnits="userSpaceOnUse"/>
  <linearGradient id="a">
   <stop offset="0" style="stop-color:#ddd"/>
   <stop offset=".9" style="stop-color:#111"/>
   <stop offset="1" style="stop-color:#000"/>
  </linearGradient>
 </defs>
 <path fill="url(#b)" d="M164 52a104 104 0 1 0 0 209 104 104 0 0 0 0-209z"/>
 <path fill="#fff" d="M208 123c21-3 41 13 43 32 3 29-6 63-32 72-33 11-54-17-53-46 1-26 19-55 42-58z"/>
 <path fill="#000" d="M164 52C106 52 59 99 59 158c-3 4-4 7-3 13-22 12-61 34-49 60 14 31 41 6 102 16 6 4 13 7 21 10-4 10-3 18-1 27l-7 6-8 1c-3 1-6 5-7 8-5 0-8 3-11 6-18-6-42 5-44 20-5 36 25 48 55 40 20-5 47-19 61-34 10-11 4-36-11-40-3-10-2-17 0-29 12 1 25-1 35-3 7 15 11 20 14 32-13 12-19 28-11 39 17 23 58 38 80 38 63-1 41-74-5-61-2-2-4-3-7-3-2-2-4-5-7-6-6-6-1-3-13-5-5-6-2-4-9-7-3-14-6-28-16-38 23-15 40-37 47-64l20-10c14 14 25 8 33-4 21 5 30-5 46-10 17-8 35-9 22-29 11-2 15-3 15-15 15-7 18-20 4-26 0-8-6-16-15-14-5 1-9 5-14 9-6 3-20 9-25 14-28 1-45 6-51 25-17-4-25 6-25 23l-6 2c-2-51-47-97-105-97Zm0 8a97 97 0 1 1-80 152c7 0 10-7 15-11 21-4 32-6 45-25 27 8 37 8 45 1s7-12 0-18c8-10 7-25-6-23 5-13-1-17-13-16-11-17-19-9-34 6-2 2-5 3-8 3-17 2-29 10-41 22-7-1-15-2-20 1 7-67 59-91 97-92zm201 67 6 2-10 2zm-160 13-16 64 7 3 7-27 17 7 3 6-5 21 7 3 6-25-2-7 5-3 4-18-5-13zm5 12 18 6 2 7-2 10-5 2-18-7zM65 205c2 3 5 5 10 7l2 4-25-2z"/>
 <path fill="#fff" d="M382 86c6 0 14 1 13 10 5-2 6-11 2-14-5-4-11 1-15 4zm-22 17c-9 1-18 1-26 3-11 1-23 10-26 20 9 10 13 23 13 37 21 1 43-6 60-17 7-5 5-12-5-13-10 0-20 5-26 9 7-21 26-28 36-38 6-6 5-13-2-13-8 0-19 5-24 12zm43-8c-7 6-6 9-21 18 8 0 17-1 23-6 5-4 5-12-2-12zm-250 21-11 10c8-1 15-3 22-6-2-4-5-7-11-4zm243 1c-10 4-17-4-26 6 6 2 13 3 20 2 6-1 6-4 6-8zm-225 8c-37 13-49 0-78 29 11 12 12 25 9 39 20-1 35-9 38-25 10 4 21 6 32 8 6 0 13-2 15-6 1-2 0-6-3-6l-11-1c-13-1-21-12-35-7-4 2-12 5-13 4-5-5 18-10 22-10 8 0 15 3 22 6 8 4 11 2 16-5 2-3 2-8-1-10-4-3-10 2-15 2-11 2-22-1-33 0l-15 5c-3-4 10-9 15-9h33c12-3 13-16 2-14zm110 19 9-3c5-1-4-4-2-5 16-5 23 32 15 37-3 2 0-9-3-7l-10 4c9 10 21 7 23-7 1-8-1-16-4-23-8-18-27-16-28 4zm14 0-26 11-2 20 34-14c-1-6-3-12-6-17ZM62 167c2-1 8-2 10-4s-4-3 0-4c11 0 14 17 15 25 0 4 0 18-8 17 2-3 4-6 4-9l-15 8c24 21 31-18 24-35-7-15-27-14-30 2zm13 0c-26 15-61 26-63 55-1 34 64 11 86 18-8-6-13-13-19-20l-37-2c6-12 29-26 40-31-1-7-2-14-7-20zm138 83c-5 3-10 5-16 6 6 10 10 22 14 33 3 9 17 10 19 1 0-9-8-38-17-40zm-77 9c-5 12-5 31 6 35 3 1 7-1 10-2-3-18-1-20 1-30-6 0-11-1-17-3zm-21 39c8 5 13 9 16 18l4-2c-3-13-12-16-20-16zm115 18 5 1c3-9 9-11 17-17-9-5-20 7-22 16zm-124-11c11 6 11 4 15 13l4-1c-4-13-12-13-19-12zm135 14 4 1c3-8 8-9 15-13-6-3-16 1-19 12zm-140-9 9 14 6-2c-3-11-8-11-15-12zm-42 20c-2 15 26 18 36 19l13-2c0-44-44-48-49-17zm191-7 7 3 8-14c-8 0-12 4-15 11zm34-10c-23 2-24 18-27 36 17 4 26 0 39-5 20-6 5-32-12-31zm-121 15c-15 7-31 17-45 23-22 8-40 2-59-6 13 19 46 16 57 11 11-6 37-17 47-28zm41 3 5 5c4 4 45 27 63 26 13-1 28-4 35-14-13 4-26 12-40 10s-41-16-63-27z"/>
 <path fill="#0d70ba" d="M237 292c2-2 3 3 1 5-26 26-13 26 17 34l-2 17c-14-9-45-14-52-29-4-9 3-18 8-20 17 5 17 4 28-7zm-108-2c11 12 12 12 27 6 23 27 10 26-43 50l-2-17c35-9 39-12 16-35-2-2 0-5 2-4z"/>
 <path fill="#0004" d="M11 212c2 35 30 18 84 21l9 9c-23 1-62 5-84 0-10-5-16-16-9-30zm141-97c16 4 2 6-1 11 41-4 19 12 4 14l30-1c4 0-1 23-31 12l33 13c2 10-10 8-16 7-10-1-23-8-34-6 0 11-18 23-38 23-8 13-16 7-16-8-15 11-48 18-41 38l25-16c11 13 23 9 30-5 19-1 40-7 44-25 22 12 66 12 46-13 9-13 7-22-6-21 2-7 3-20-10-16-7-10-17-13-19-7zm-17 141 19 4c3 47-11 49-7 7-17-2-22-3-12-11zm-58 54c17-14 37 14 34 39l-7 2c-4-17-8-34-27-41zm199 2c6-2 12-3 18 0 19 7 25 44 1 48 0 0 7-39-19-48zm-62-64c9 10 18 28 19 41l-6 8c0-11-7-36-16-39-24 8-24-13 3-10zM396 79c1 1 3 14-17 11 5 1 11 9 3 12-7 3-35 24-32 40 3-4 10-14 14-16 5-1 11 2 15 6 0 19-44 31-63 24-1 8-8 10-13 3 1-5-2-23-12-16 6 19 10 13-25 27l-2 11 24-10c2 6 9 9 15 8 6 0 13-6 13-11h22c5-1 43-16 50-23 1-3-2-8-3-11l-6-8c3-4 9-6 10-10 4-9 19-16 16-23-3-5-2-12-9-14z"/>
</svg>
