<svg xmlns="http://www.w3.org/2000/svg" width="960" height="240">
  <path fill="#fff" d="M404.983 29c-33.09 0-66 24.29-66 68.67s35.2 68.48 66.76 68.48 62.551-22.19 62.551-69.63v-3.25h-73.06v22.38h46.87c-4.78 17.98-19.51 26.4-34.81 26.4-20.66 0-42.47-15.11-42.47-44.38s18.94-44.76 38.64-44.76c14.73 0 29.84 8.61 37.68 26.4h27.16c-9.57-34.43-36.54-50.31-63.32-50.31m323.381 0v52.14c-7.81-8.37-18.651-12.56-29.691-12.56-21.51 0-43.578 16.18-43.578 49.1 0 26.84 22.068 48.72 48.908 48.72s48.72-21.89 48.72-48.72V29Zm42.61 0v137.39h24.36V29Zm-178.48 39.38c-27.03 0-48.91 21.7-48.91 48.72 0 32.92 22.08 49.1 43.58 49.1 11.99 0 23.789-5.13 31.589-15.03l9.71 12.18c1.33 1.71 3.43 2.85 5.52 2.85 3.99 0 7.231-3.23 7.231-7.23v-41.68c0-27.22-21.69-48.91-48.72-48.91m-100.97.2c-4 0-7.42 3.42-7.42 7.42v90.4h24.36v-52.52c0-15.61 10.46-22.65 27.97-22.65V68.58c-10.84.19-21.5 4.57-29.11 12.94l-10.28-10.66c-1.52-1.52-3.43-2.28-5.52-2.28m368.18.01c-23.6 0-47.951 16.94-47.951 48.72s25.502 49.1 50.432 49.1c18.04 0 35.919-9 43.709-27.84l-22.21-7.26-.011-.01c-4.38 7.94-13.209 12.069-22.059 12.069-11.23 0-22.83-6.658-25.12-20.738h71.55v-2.852c-.95-34.82-24.74-51.19-48.34-51.19ZM592.503 90.47c13.32 0 24.361 11.99 24.361 26.64v.19c-.19 14.65-10.851 26.45-24.361 26.45s-24.549-11.99-24.549-26.64 11.229-26.64 24.549-26.64m267.771 0h.01c8.75 0 17.511 4.76 21.311 14.08h-43.012c4.19-9.32 12.942-14.08 21.692-14.08zm-156.271.57c13.32 0 24.361 11.99 24.361 26.64s-11.041 26.45-24.361 26.45c-13.51 0-24.549-11.61-24.549-26.45s11.229-26.64 24.549-26.64m62.74 90.78c-7.16 0-14.369 4.88-14.369 14.61s7.2 14.57 14.37 14.57 14.37-4.88 14.37-14.57-7.16-14.61-14.37-14.61m68.65 0c-7.16 0-14.369 4.88-14.369 14.61s7.2 14.57 14.37 14.57 14.37-4.88 14.37-14.57-7.16-14.61-14.37-14.61m-493.64.36v28.45h12.781c10.5 0 11.679-12.25 3.219-14.61h-.01c6.39-3.5 4.921-13.8-4.719-13.84zm63.3 0v18.4c0 6.72 5.98 10.22 11.52 10.22s10.99-3.3 10.99-10.18v-18.44h-5.42v18.4c0 3.79-2.849 5.66-5.779 5.66s-5.861-1.92-5.861-5.66v-18.4zm64.53 0v28.45h5.451v-28.45zm47.781 0v28.45h18.72v-4.76h-13.27v-23.69zm58.86 0v28.45h12.33v-.04c14.647-1.3 14.49-28.399-.93-28.41zm117.54 0v4.76h7.61v23.69h5.42v-23.69h7.61v-4.76zm198.13 0v28.45h18.72v-4.76h-13.27v-23.69zm-125.15 4.73c4.43 0 8.87 3.17 8.87 9.52s-4.44 9.52-8.87 9.52c-4.44 0-8.87-3.17-8.87-9.52s4.44-9.52 8.87-9.52m68.65 0c4.43 0 8.87 3.17 8.87 9.52s-4.44 9.52-8.87 9.52c-4.44 0-8.87-3.17-8.87-9.52s4.44-9.52 8.87-9.52m-488.19.03h5.41c2.28 0 3.46 1.63 3.46 3.54 0 2.12-2.731 3.62-5.821 4.27-.77.12-1.34.77-1.34 1.55 0 .85.691 1.59 1.551 1.63 4.48.25 7.33 1.63 7.33 4.44 0 1.95-1.3 3.42-4.11 3.5h-6.48zm234.48 0h5.569c8.75 0 8.671 18.93.201 18.93h-5.77z"/>
  <path fill="#209bc4" d="M283.884 40.51c-14.98-14.98-39.16-15.38-54.64-.92-.74.68-1.17 1.65-1.17 2.66-.02 1.02.37 2 1.09 2.72l4.96 4.95a3.76 3.76 0 0 0 4.9.34c3.88-2.93 8.62-4.5 13.49-4.49 12.45 0 22.54 10.08 22.54 22.51 0 5.96-2.37 11.68-6.59 15.9-31.13 31.26-72.91-56.09-167.44-11.15-6.43 2.98-9.22 10.6-6.23 17.02.15.33.32.65.5.97l16.21 28c3.52 6.06 11.25 8.19 17.38 4.78l.4-.23-.31.23 7.19-4.03c8.02-4.96 15.6-10.6 22.65-16.85a3.91 3.91 0 0 1 5.15-.17 3.686 3.686 0 0 1 .53 5.19c-.16.19-.34.37-.53.53a172 172 0 0 1-23.68 17.85l-.26.14-7.19 4a20 20 0 0 1-9.94 2.6c-7.34.02-14.14-3.87-17.84-10.21l-15.35-26.43c-29.44 20.76-47.31 60.78-37.71 111.4a3.74 3.74 0 0 0 3.69 3.03h17.44a3.73 3.73 0 0 0 3.84-3.26c1.83-14 14.67-23.87 28.7-22.05 11.51 1.5 20.58 10.55 22.08 22.05a3.724 3.724 0 0 0 3.64 3.26h17.01c1.88 0 3.48-1.39 3.72-3.26 1.76-13.99 14.55-23.91 28.57-22.15 11.59 1.46 20.72 10.57 22.18 22.15a3.724 3.724 0 0 0 3.69 3.26h16.81a3.72 3.72 0 0 0 3.72-3.66c.4-23.68 6.79-50.88 25.03-64.49 62.97-47.13 46.39-87.55 31.79-102.19zm-64.34 71.3v-.03l-12.03-6.03c-.02-4.17 3.36-7.56 7.53-7.58a7.55 7.55 0 0 1 7.59 7.52c0 2.42-1.14 4.69-3.09 6.12"/>
</svg>