<svg xmlns="http://www.w3.org/2000/svg" viewBox="0 0 320 48">
  <path fill="#ef8700ff" d="m25.65 2.05-18.9 11.1.2 21.9 19 10.9 18.9-11.1v-1.701h-1.8l-.201-.299-.4.299h-.2v.1l-16.3 9.602-16.4-9.301-.101-18.9 16.2-9.5 16.4 9.3v.1h.199l.5.301.2-.3h1.8v-1.7zm236.3 9.5c-1.1 0-2.1.9-2.1 2.1s.9 2.1 2.1 2.1 2.102-.9 2.102-2.1-1.002-2.1-2.102-2.1m-83 1.1v18.5h3.5v-18.5zm-32.2 1.4v3.699h-2.199v3.102h2.199v7l.1.1c0 2.4 1.3 3.699 3.8 3.699 1.4 0 2.4-.4 2.9-.9l-.8-2.7c-.2.2-.4.4-1.2.4s-1.2-.7-1.2-1.5v-6.1h2.7V17.75h-2.7v-3.7zm120.7 0v3.699h-2.199v3.102h2.199v7l.102.1c0 2.4 1.299 3.699 3.799 3.699 1.4 0 2.4-.4 2.9-.9l-.801-2.7c-.2.2-.4.4-1.2.4s-1.198-.7-1.198-1.5v-6.1h2.699V17.75h-2.7v-3.7zm-224.5 3.199c-2.1 0-4.298.702-5.898 2.102l1.299 2.398c1.1-1.1 2.2-1.6 3.9-1.6s2.9.9 2.9 2.301v1.9c-.9-1-2.101-1.602-4.301-1.602s-4.699 1.301-4.699 4.301 2.899 4.4 4.699 4.4 3.401-.601 4.301-1.701v1.4l.2-.1h3.5V22.35c0-3.9-2.8-5.102-5.9-5.102zm65.6 0c-4.1 0-7.102 2.8-7.102 7s3.002 7.102 7.102 7.102c2.7 0 4.399-1.2 5.299-2.4l-2.299-2.1c-.6.8-.7 1.398-2.801 1.398s-3.6-1.598-3.6-3.898 1.5-3.9 3.6-3.9c1.2 0 2.201.5 2.801 1.4l2.299-2.102c-.9-1.2-2.499-2.398-5.299-2.398zm61.7 0c-2.1 0-4.3.702-5.9 2.102l1.301 2.398c1.1-1.1 2.2-1.6 3.9-1.6s2.898.9 2.898 2.301v1.9c-.9-1-2.099-1.602-4.299-1.602s-4.701 1.301-4.701 4.301 2.901 4.4 4.701 4.4 3.399-.601 4.299-1.701v1.4l.201-.1h3.5V22.35c0-3.9-2.8-5.102-5.9-5.102zm-98.8.102v.1c-4 0-6.898 2.7-6.898 7s3.099 7.1 7.199 7.1c2.1 0 4.1-.701 5.5-1.9l-1.6-2.3c-.9.8-1.3 1.3-3.6 1.3s-3.7-1.4-3.9-3.1h10v-.802c0-4.4-2.701-7.398-6.701-7.398zm50.3 0v.1c-4 0-6.9 2.7-6.9 7s3.101 7.1 7.201 7.1c2.1 0 4.1-.701 5.5-1.9l-1.602-2.3c-.9.8-1.3 1.3-3.6 1.3s-3.7-1.4-3.9-3.1h10v-.802c0-4.4-2.699-7.398-6.699-7.398zm85.8 0v.1c-4 0-6.9 2.7-6.9 7s3.099 7.1 7.199 7.1c2.1 0 4.1-.701 5.5-1.9l-1.6-2.3c-.9.8-1.3 1.3-3.6 1.3s-3.7-1.4-3.9-3.1h10v-.802c0-4.4-2.699-7.398-6.699-7.398zm44.7 0c-3.5 0-5.5.999-5.5 4.199s3.001 3.799 5.301 4.199c1.5.3 2.699.701 2.699 1.602s-.7 1.398-2.301 1.398-3.6-.9-4.6-1.8v-.3l-1.5 2.5c1.4 1.3 2.3 2.1 6 2.1s5.801-.999 5.801-4.3-3.1-4-5.4-4.4c-1.5-.3-2.6-.7-2.6-1.4s.4-1.198 2.1-1.198 3.2.7 4 1.6l1.4-2.4c-1.3-1-1.9-1.8-5.4-1.8zm-163.9.1c-2.2 0-3.799 1.1-4.699 2.1v-1.802h-3.5v13.4h3.5v-9c.6-.8 1.6-1.6 3.1-1.6s2.5.6 2.5 2.5v8.2h3.5v-9.5c0-2.6-2.2-4.3-4.4-4.3zm50.3 0c-2.2 0-3.801 1.1-4.701 2.1v-1.802h-3.5v13.4h3.5v-9c.6-.8 1.602-1.6 3.102-1.6s2.5.6 2.5 2.5v8.2h3.5v-9.5c0-2.6-2.2-4.3-4.4-4.3zm24.1 0c-1.7 0-3.401.899-4.301 2.1v-1.802h-3.5v13.5h3.5v-8.898c.6-.9 2.101-1.5 3.301-1.5h1zm37.1 0c-1.7 0-3.399.899-4.299 2.1v-1.802h-3.5v13.5h3.5v-8.898c.6-.9 2.099-1.5 3.299-1.5h1zm24.1 0c-1.6 0-3.1.7-4.1 2v-1.702h-3.5v18.5h3.5V29.45c1 1.4.7 2.1 4.1 2.1s5.9-2.7 5.9-7.1-2.5-7-5.9-7m14.4 0c-4.4 0-7.1 3.2-7.1 7 0 3.9 2.7 7.1 7.1 7.1s7.1-3.3 7.1-7.1-2.7-7-7.1-7m43.5 0c-4.4 0-7.1 3.2-7.1 7 0 3.9 2.7 7.1 7.1 7.1s7.1-3.3 7.1-7.1-2.7-7-7.1-7m16.9 0c-1.7 0-3.401.899-4.301 2.1v-1.802h-3.5v13.5h3.5v-8.898c.6-.9 2.101-1.5 3.301-1.5h1V18l5.301 13.35-.5 1.1c-.4.8-1 1-1.9 1-.3 0-.8-.101-1.1-.201v-.1l-.5 3.201c.5.2 1.399.2 1.799.2 2.3 0 4.1-.7 5.1-3.2l6.301-15.6h-3.801l-3.5 9.302-3.5-9.301h-3.699zm-277 .099c-2.1 0-3.8 1.3-4.4 2.1v-1.8h-3.5v13.4h3.5v-9c.5-.8 1.401-1.6 2.801-1.6s2 .8 2 2.1v8.5h3.6v-9.1c.5-.8 1.401-1.6 2.801-1.6s2 .8 2 2.1v8.5l-.201.202h3.6v-9.701c0-2.8-1.898-4.1-3.898-4.1s-3.802 1.2-4.602 2.4c-.5-1.5-1.6-2.4-3.7-2.4zm28 .199 5.4 13.4h3.799l5.4-13.4H60.55l-3.5 9.301-3.5-9.301zm210.5 0v13.4h3.5v-13.4zm-188.8 2.4c2.3 0 3.301 1.7 3.301 3h-6.6c.2-1.4.999-3 3.299-3m50.3 0c2.3 0 3.301 1.7 3.301 3h-6.602c.2-1.4 1.001-3 3.301-3m85.8 0c2.3 0 3.299 1.7 3.299 3h-6.6c.2-1.4 1.001-3 3.301-3m15.4.4c2 0 3.4 1.6 3.4 3.9s-1.4 3.9-3.4 3.9c-1.1 0-2.4-.7-3-1.5v-4.8c.6-.8 1.9-1.5 3-1.5zm15.4 0c2.2 0 3.4 1.8 3.4 3.9s-1.2 3.9-3.4 3.9-3.4-1.8-3.4-3.9 1.2-3.9 3.4-3.9m43.5 0c2.2 0 3.4 1.8 3.4 3.9s-1.2 3.9-3.4 3.9-3.4-1.8-3.4-3.9 1.2-3.9 3.4-3.9m-239.5 4.5c1.1 0 2.201.4 2.801 1.2v1.601c-.5.8-1.401 1.2-2.801 1.2s-2.5-.8-2.5-2 1.4-2 2.5-2m127.3 0c1.1 0 2.199.4 2.799 1.2v1.601c-.5.8-1.399 1.2-2.799 1.2s-2.5-.8-2.5-2 1.4-2 2.5-2"/>
</svg>