<svg xmlns="http://www.w3.org/2000/svg" viewBox="0 0 1200 320">
  <path fill="#222" d="M0 0v320h320V0z"/>
  <path fill="#ecd9a6" d="M57.55 172.5v-25q9.479-.417 14.27-4.062t6.667-10.94q1.875-7.292 1.875-24.06 0-17.71 1.667-25.62 1.771-7.917 6.562-12.92 4.792-5.104 12.81-7.5 8.125-2.5 21.88-2.5h5.521v25q-13.96 0-17.6 2.812-3.646 2.812-3.646 12.29 0 29.06-3.542 40.83-3.542 11.67-16.04 19.17 9.583 5.208 14.48 15.62 5 10.31 5 44.48 0 8.125 2.396 10.52t5 3.437q2.708 1.146 13.96 1.146v24.9h-5.521q-21.04 0-28.54-5.208-7.5-5.104-10.94-11.87t-3.438-31.35q0-16.67-1.771-23.85-1.771-7.187-6.667-10.94-4.792-3.854-14.38-4.375zm204.9 0q-9.479.52-14.27 4.167t-6.667 10.94q-1.875 7.292-1.875 24.06 0 24.27-3.542 31.56-3.438 7.292-11.56 12.08-8.021 4.792-27.81 4.792h-5.521v-24.9q13.12 0 17.19-3.021 4.167-2.917 4.167-12.08 0-29.9 3.854-41.56 3.854-11.77 15.62-18.54-12.81-7.604-16.25-19.69-3.333-12.08-3.333-40.31 0-9.792-3.854-12.4-3.854-2.708-17.4-2.708v-25h5.521q18.12 0 27.29 4.687 9.167 4.583 12.4 13.54 3.229 8.854 3.229 30.31 0 16.56 1.771 23.85 1.771 7.187 6.562 11.04 4.896 3.75 14.48 4.167z"/>
  <path fill="#111" d="M475.3 68.83h46.59q2.735 0 3.515.781.879.782.879 4.395 0 4.688-.782 5.958-.683 1.172-3.222 1.952-2.93.88-3.612 2.051-.587 1.173-.587 5.078v107.5c0 14.98-4.037 27.77-12.11 38.38-8.073 10.68-20.54 16.01-37.4 16.01q-4.785 0-5.761-.781-.975-.684-.975-3.125v-3.711q0-2.246.488-2.93.39-.684 2.735-.879c11.07-.977 16.6-9.83 16.6-26.56V93.55q0-7.129-1.368-9.082-1.27-2.052-4.785-3.125c-3.515-1.073-3.515-2.278-3.515-4.688q0-6.055.39-6.934.488-.879 2.93-.879zm108.2 62.99v-18.85q0-7.812-6.348-7.812-8.691 0-8.691 11.82 0 6.64-1.562 9.472-1.465 2.833-6.836 4.882-5.274 1.952-11.33 1.952-12.401.001-12.4-13.28c0-8.333 3.581-15.14 10.74-20.41 7.227-5.273 16.64-7.91 28.22-7.91 7.618 0 14.46 1.042 20.51 3.125 6.12 2.083 11 5.599 14.65 10.55s5.47 10.39 5.469 16.31v89.16q.195.683 2.93 2.93 1.952 1.465 1.952 4.298 0 3.906-1.075 5.566-1.074 1.563-5.272 2.93-4.102 1.368-10.35 1.368-7.618 0-12.7-2.735-5.078-2.832-7.91-10.94c-5.664 5.859-10.26 9.602-13.78 11.23s-7.132 2.441-10.84 2.441q-12.401 0-19.24-9.668c-4.492-6.51-6.739-17.12-6.739-31.84s2.116-24.9 6.348-30.56q6.349-8.592 24.8-15.82 11.716-4.493 19.44-8.202zm0 12.7c-7.357 3.255-11.75 6.933-13.19 11.04-1.432 4.037-2.149 13.18-2.149 27.44 0 10.48.586 17.13 1.758 19.93q1.758 4.101 6.055 4.101 7.52 0 7.52-12.5zm82.12-33.69v94.63q0 3.417 1.952 6.152 2.051 2.637 5.664 2.636 4.883 0 7.52-5.958 2.735-6.056 2.735-15.62l-.097-2.735q0-5.177 1.855-6.153 1.952-.975 6.542-.976 4.003 0 5.469 1.465c1.466 1.465 1.465 3.028 1.465 6.153 0 10.09-2.637 18.88-7.91 26.36q-7.91 11.131-22.46 11.13-17.085 0-28.02-17.19c-10.935-17.19-10.94-27.7-10.94-48.73 0-15.76 1.855-28.85 5.566-39.26q5.564-15.72 13.48-23.34 8.008-7.715 19.92-7.715c9.442 0 16.9 3.158 22.36 9.472q8.3 9.375 8.3 21.78 0 6.444-2.734 10.94-2.734 4.492-8.301 4.492-5.763 0-8.888-4.298-3.026-4.298-3.026-10.74 0-2.735.586-6.348.78-4.2.78-6.64 0-2.538-1.854-4.298-1.856-1.758-4.298-1.758-2.343 0-4.004 2.05-1.66 2.052-1.66 4.494zm78.41 72.75v26.18q0 2.637 2.539 4.101 1.953 1.075 1.952 3.809v5.176q0 3.614-3.711 3.614h-35.35q-3.515 0-3.515-4.395v-4.59q0-1.66 2.832-3.809 2.344-1.855 2.539-2.636.292-.781.292-2.441v-116.9q0-6.25-3.809-8.985-1.27-.976-1.465-1.758-.097-.78-.097-3.809 0-6.348.195-7.324.294-.976 3.028-.976h30.96q2.442 0 3.028.781.588.684.588 3.515v84.66l17.98-41.11q1.756-3.906 1.756-5.275 0-3.222-4.59-5.076-2.05-.781-2.735-1.952-.684-1.173-.684-4.785 0-4.493.88-5.469.878-1.075 3.32-1.075h26.95q2.246.294 2.246 5.176 0 4.395-.88 5.958-.782 1.563-3.612 3.028-4.396 2.15-6.154 5.762l-6.836 14.45 20.8 80.28q.88 3.612 4.1 5.76 2.15 1.368 2.15 4.2v5.175q0 3.614-4.004 3.614h-26.28q-4.98 0-6.445-6.445l-11.13-50zm113.2-88.28 5.371 27.05q.195 1.27.195 2.246 0 2.735-5.274 2.735-3.514 0-5.175-.879-1.563-.879-3.615-4.688-2.343-4.493-7.129-10.64c-4.786-6.147-6.055-6.152-8.594-6.152q-1.465 0-2.636 1.368-1.075 1.368-1.075 3.222c0 3.32 4.754 12.73 14.26 28.22 8.204 13.48 13.77 24.05 16.7 31.74q4.396 11.521 4.396 25.98c0 10.22-2.213 18.2-6.64 23.92q-6.642 8.496-15.62 8.496-5.665 0-11.91-4.1-3.417-2.248-4.59-2.247-1.368 0-1.562 2.246-.391 2.637-1.172 3.32-.78.781-5.078.781-3.32 0-4.298-.976-.975-.977-1.368-3.418l-4.882-27.25q-.292-1.953-.292-2.44 0-2.736 6.542-2.736 3.417 0 4.688.879 1.366.879 3.418 5.078c5.078 10.61 9.895 15.91 14.45 15.91q4.395 0 4.395-5.275 0-4.687-3.32-11.62c-2.148-4.622-6.382-12.21-12.7-22.75-6.643-11.2-11.46-20.58-14.45-28.12-2.93-7.552-4.396-15.14-4.396-22.75 0-10.35 2.213-18.07 6.64-23.15q6.641-7.618 16.11-7.618 4.98 0 11.33 3.418 3.222 1.758 4.395 1.758 1.563 0 1.855-2.051.39-2.15 1.562-2.638c1.172-.488 2.442-.488 4.98-.488q2.442 0 3.125.587.781.487 1.368 3.028zm58.69-3.614q18.36 0 30.66 16.5c8.203 10.93 12.3 27.21 12.3 48.82 0 23.31-4.167 40.95-12.5 52.93-8.333 11.92-18.72 17.88-31.15 17.88-8.592 0-16.05-2.734-22.36-8.202q-9.474-8.201-14.65-21.88c-3.385-9.117-5.078-21.58-5.078-37.4 0-22.59 3.906-39.68 11.72-51.28 7.878-11.59 18.23-17.39 31.05-17.39zm7.031 24.51q0-12.11-7.031-12.11-7.618 0-7.618 14.85v81.15q0 14.75 6.934 14.75 7.715 0 7.715-14.75zm83.01-9.864q11.621-14.65 26.56-14.65 10.252 0 15.62 6.64 5.371 6.543 5.371 16.5v93.55q0 3.125 2.441 4.785 2.247 1.368 2.246 7.031 0 4.492-.781 5.371-.684.879-3.028.879h-27.44q-5.86-4.98-5.86-12.99v-92.88q0-7.617-6.25-7.618-4.101 0-8.886 4.298v91.11q0 3.514 3.418 5.469 2.051 1.172 2.05 4.298v4.98q0 3.32-4.784 3.32h-34.66q-2.539 0-3.222-.684-.684-.78-.684-3.711v-3.612q0-2.834 1.758-4.005 2.344-1.66 3.028-3.125c.684-1.465.684-3.125.684-6.445v-95.51q0-3.417-3.32-4.98-1.855-.88-1.855-3.125v-5.175q0-3.029 2.735-3.029h31.84q2.052 0 2.539.587.487.585.487 2.44z"/>
</svg>