<?xml version="1.0" encoding="UTF-8"?>
<svg version="1.1" viewBox="0 0 360 96" xmlns="http://www.w3.org/2000/svg">
  <path fill="#fff" d="m47.36 6.004c-1.218-0.03072-2.524 0.1716-3.65 0.03906-4.138-0.00147-8.279 0.0032-12.42-0.00195-4.1 0.03579-3.638 5.134-4.424 8.025-4.012 20.37-8.316 40.68-12.18 61.07-0.0758 2.873 3.317 1.944 5.18 2.1 2.651-0.1964 5.409 0.4989 7.945-0.4238 1.9-1.679 1.684-4.545 2.365-6.852 2.329-11.6 4.61-23.22 6.986-34.8 0.1143-2.125 2.504-4.851 2.812-1.193 1.507 6.844 1.88 13.9 3.293 20.77 0.7649 6.491 2.042 12.9 2.818 19.4 0.05818 3.828 4.245 3.273 6.926 3.127 2.42-0.0793 5.623 0.4407 6.773-2.35 3.737-6.442 7.091-13.09 10.79-19.57 4.2-7.458 8.015-15.14 12.41-22.5 2.642-3.834 2.249 2.294 1.465 4.135-2.264 12.94-5.281 25.78-7.564 38.69 0.8022 2.319 3.773 1.37 5.688 1.574 2.565-0.2144 5.337 0.5302 7.713-0.5996 1.802-2.015 1.525-5.029 2.248-7.531 3.95-20.14 8.191-40.22 12.05-60.37 0.8635-3.179-2.959-2.715-4.949-2.699-5.031 0.07882-10.09-0.1606-15.1 0.125-4.143 2.471-4.914 8.096-7.553 11.9-5.908 11.2-11.75 22.44-17.66 33.62-2.837 2.655-2.752-3.084-3.08-4.727-1.126-7.987-2.491-15.95-3.352-23.97-0.8743-5.199-1.471-10.45-2.426-15.63-0.768-1.069-1.896-1.333-3.113-1.363zm290.4 18.24c-0.4769-0.01165-1.043 0.02707-1.439 0.0332-0.494 0.09393-0.498 0.6719-0.5938 1.068l-1.301 6.541c-0.1798 0.8021 1.6 0.7374 1.736 0.3496l0.8926-3.967c0.0392-0.2386 0.1694-0.72 0.4297-0.6699 0.2647 0.05096 0.4462 2.366 0.7441 3.877 0.0751 0.3605 0.0534 0.9193 0.5332 0.9824 0.3744-0.01924 0.8214 0.09425 1.092-0.248l2.59-4.469c0.4263-0.54 0.3421 0.3305 0.2988 0.6445-0.2069 1.196-0.4943 2.375-0.7012 3.57-0.1755 0.7589 1.588 0.6388 1.783 0.209l1.492-7.258c0.1398-0.8087-0.4436-0.6612-2.268-0.627-0.3956 0.05216-0.3654 0.1946-0.9727 1.201l-1.65 2.842c-0.1974 0.2827-0.3828 0.9033-0.8008 0.8086-0.255-0.3707-0.2231-0.894-0.334-1.33l-0.627-3.291c-0.041-0.1931-0.4274-0.2559-0.9043-0.2676zm-9.045 0.01367c-0.8047 0.0077-1.007 1.494-0.459 1.541l1.25-0.0039c0.3372-0.03903 0.6825 0.2315 0.5547 0.5898l-1.109 5.711c-0.0236 0.4607 1.813 0.7644 2.074-0.3574l1.006-5.086c0.0199-0.3463 0.2046-0.7292 0.5644-0.8203l1.34-0.02539c1.006-0.01933 1.201-1.549 0.1191-1.549zm-189.1 0.04492c-12.36-0.3493-26.93 4.985-29.12 15.63 0.311 2.306 3.33 1.472 4.908 1.6 2.515-0.1189 5.106 0.3087 7.551-0.3867 2.156-1.724 2.957-4.996 5.842-6.014 4.784-2.431 14.92-2.079 14 4.611-1.445 11.17-22 3.861-33.33 13.47-5.676 4.873-8.102 14.73-3.969 20.61 5.378 6.745 19.9 5.679 28 0.9883 2.092-2.036 3.37 0.4659 4.303 2.025 1.473 0.9395 10.27 0.5298 11.5 0.1992 3.149-9.941 11.74-42.51 4.432-48.7-3.334-2.541-8.497-3.874-14.12-4.033zm106.6 0.03516c-24.75 0.3909-36.77 30.13-29.57 43.68 5.225 10.79 18.53 10.97 22.37 10.34 10.45-1.712 17.09-4.565 23.2-14.32 2.498-4.297-9.628-2.466-10.1-2.301-5.404 4.465-10.62 7.562-17.96 5.664-6.58-1.284-7.98-13.42-1.938-12.56l26.66 0.05664c2.279 0.0048 5.272 0.09885 6.824-0.9512 3.359-3.745 4.123-30.58-19.49-29.61zm66.29 0.5742c-5.51-0.1707-12.73 0.8699-16.79 4.924-0.6472 0.5753-2.282 1.387-2.6-0.2012-0.1354-0.4061 0.602-2.896-0.8008-3.598-3.181-0.5071-6.487-0.4055-9.699-0.1992-2.293 0.3466-2.619 2.184-3 4.199-2.977 13.8-7.973 39.13-8.898 43.9-0.615 3.171 1.316 3.354 3.799 3.4h5c3.278 0 3.983-0.5287 4.6-1.5 1.524-2.285 3.325-19.34 7.199-31.8 1-2.933 2.735-5.166 5.201-6.699 4.005-2.502 11.25-2.997 13.4 1.299 0.7333 1.467 0.9659 3.267 0.6992 5.4-1.39 10.35-3.791 20.55-5.801 30.8-0.1136 1.022 0.1302 2.094 1.502 2.398l9.102 0.1016c1.552 0 2.873-0.5934 3.297-2.4 4.319-19.79 7.45-37.79 6-43.2-1-2.467-2.731-4.335-5.197-5.602-1.016-0.5864-3.706-1.124-7.012-1.227zm-68.42 9.975c3.765-0.1487 7.222 1.276 8.59 4.381 0.7584 1.983 1.815 5.255-0.6309 6.494l-18.71 0.2441c-3.599-0.4085-1.159-4.532 0.3086-6.053 2.6-3.194 6.672-4.918 10.44-5.066zm-105.7 18.42c3.351 0.01865-0.5469 9.95-3.646 12.93-6.059 5.825-17.15 3.398-16.8-2.502 1.509-9.1 16.15-9.739 20.1-10.4 0.1234-0.02059 0.2396-0.0299 0.3476-0.0293z"/>
  <path fill="#f79a23" d="m166.5 29.32 3.492 1.691c-0.0348-1.343 0.0828-2.521 0.1507-3.754-0.0104 0.9688-7e-3 2.107 0.0823 3.67l5.17-4.883c-5.2-8.764-8.384-4.191-8.895 3.276zm40.64-1.163 1.469 4.133c1.036-1.106 2.064-1.957 3.096-2.895-0.7772 0.7711-1.675 1.687-2.842 3.014l8.041 0.176c1.422-4.238 0.4636-8.916-1.854-8.987-2.318-0.07107-4.718 1.646-7.91 4.559z"/>
  <path fill="#e97826" d="m170.2 30.93c0.2415 4.37 0.8349 8.542 1.713 13.68 5.695 0.1536 6.528-11.57 3.457-18.56zm36.92-2.77c-3.604 3.29-6.947 6.883-10.1 10.6l1.851 5.588c2.989-4.203 6.212-8.269 9.718-12.06zm-40.64 1.163c-0.1873 5.647-0.1363 7.721 0.249 12.91l4.651 2.362c-0.7308-4.501-1.27-9.016-1.408-13.58zm42.37 3.089c-3.899 4.413-7.233 9.005-9.575 12.36 6.851 3.547 14.07-4.005 17.62-12.18z"/>
  <path fill="#cd2335" d="m178.2 37.79c-1.327 2.892-2.528 3.234-6.256 6.808 2.407 12.22 2.831 13.53 5.717 23.78 5.285 0 5.767-11.82 2.925-20.32-0.3772 0.8055-0.98 1.454-1.584 2.09 1.237-1.923 1.382-3.987 1.016-6.131-0.3534 1.088-1.034 1.988-1.764 2.845 1.769-2.95 1.088-6.053-0.0538-9.071zm18.85 0.963c-6.758 9.501-18.25 24.92-12.52 29.02 8.811-16 14.03-22.77 14.37-23.44zm-30.3 3.469c1.104 12.67 3.247 18.96 5.43 23.67l4.684 2.373c-3.907-13.57-5.305-23.19-5.463-23.68zm43.06 2.078c-3.374 1.077-3.275 0.7139-10.52 0.4631-4.1 5.337-14.21 23.39-14.25 23.68 7.353 2.39 14.73-6.688 18.54-13.98-0.9436 0.3461-1.943 0.3945-2.935 0.4239 2.523-0.5653 4.282-2.11 5.689-4.127-1.797 0.8727-3.487 0.8836-3.705 0.8515 5.704-1.465 7.041-6.832 7.188-7.312z"/>
  <path fill="#662e8d" d="m183.4 61.05c-0.092 0.6614-0.2428 1.27-0.4473 1.83l-0.3008-0.7422c-0.7759 2.264-0.5716 2.894-2.227 4.113-0.8322-1.039-1.928-1.912-1.92-1.9 0.407 0.8255 0.7736 1.641 1.078 2.445l-1.932 1.576 0.832 2.805-0.8359-0.3848-0.7785-2.527c-1.558-0.8009-3.12-1.575-4.684-2.367 0.1166 0.4507 1.924 3.684 2.348 4.261-1.295-0.521-3.589-0.2799-3.572-0.2773 2.368 0.8216 4.446 1.829 5.756 3.354-0.5207 0.5734-1.495 1.008-2.721 1.363 1.694 0.1836 2.639-0.1131 2.984-0.2637-0.8854 0.7381-1.38 2.087-1.814 3.539 0.9966-1.629 1.985-2.707 2.947-3.119l0.6895 2.25-6.34 12.99c0.5808-0.07748 0.9687-0.4135 1.229-0.8906l5.441-11.06 3.955 11.72c0.3174-0.4095 0.3535-0.8626 0.2207-1.324l-3.734-11.26c0.4414-0.856 0.9022-1.745 1.383-2.66l1.17 0.4688c0.5524 0.5356 0.9528 1.411 1.312 2.375 0.0953-1.111-0.2033-2.214-0.9492-3.137 4.788 0.9242 8.131-0.0922 9.924-3.045-0.9272 0.8673-1.945 1.152-3.748 0.7793 3.176-0.897 4.805-1.959 6.867-4.849-3.166 2.791-6.813 1.446-10.49 1.335l-3.213 6.206-0.6719-0.5117 3.375-6.365-1.005-3.182c0.3001-2.016-0.1289-3.544-0.1289-3.544zm-5.635 10.15 1.008 0.9102 0.1992 0.6387-0.7051 0.1543zm0.7344 2.477 0.7734 0.02734 0.207 0.666 0.7012-0.01953-0.9316 1.789z"/>
</svg>
