<svg xmlns="http://www.w3.org/2000/svg" viewBox="0 0 640 160">
  <path fill="#fff" d="M139.3 10c-.314 0-.785 0-1.255.156-2.13.501-3.458 2.305-3.586 4.37a5.4 5.4 0 0 0 .138 1.744c.47 2.038 2.508 3.607 4.703 3.607.47 0 .942-.16 1.255-.16a5.1 5.1 0 0 0 2.921-2.216c.256-.416.461-.86.582-1.335q.048-.188.08-.38v-.004a4.8 4.8 0 0 0-.135-2.177q-.022-.094-.049-.186a4 4 0 0 0-.174-.493c-.635-1.584-2.046-2.613-3.69-2.86a5 5 0 0 0-.79-.068zm34.96 0a4.7 4.7 0 0 0-.778.064c-1.876.277-3.46 1.566-3.925 3.543a4.9 4.9 0 0 0-.202 1.436c-.023 2.115 1.433 4.154 3.65 4.676.47.157.785.16 1.255.16 2.195 0 4.233-1.568 4.703-3.763.528-1.688-.01-3.517-1.23-4.725a4.643 4.643 0 0 0-2.22-1.234C175.041 10 174.73 10 174.26 10zm-11.45 13.17c-1.881 0-3.605 1.254-4.075 3.135-.425 1.488.085 3.048 1.142 4.094.49.496 1.114.871 1.837 1.078.314.157.783.16 1.096.16 1.881 0 3.605-1.255 4.075-3.136a3.8 3.8 0 0 0 .025-2.067 4.35 4.35 0 0 0-.741-1.54c-.426-.673-1.067-1.116-1.8-1.402a4 4 0 0 0-.463-.165c-.313-.157-.783-.156-1.096-.156zm-27.12 4.075c-.314 0-.783 0-1.096.156q-.174.05-.34.113a4.4 4.4 0 0 0-.707.353c-1.266.753-2.092 2.094-2.082 3.613q-.006.548.15 1.096c.47 1.88 2.194 3.135 4.075 3.135.47 0 .785 0 1.099-.157.159-.045.31-.104.456-.168 1.323-.539 2.284-1.67 2.572-3.034a3.8 3.8 0 0 0-.049-1.972c-.47-1.88-2.197-3.135-4.079-3.135zm-26.49.312a4.87 4.87 0 0 0-3.782 1.777v.003a4.75 4.75 0 0 0-1.078 3.053q-.001.016-.003.03c0 1.255.471 2.508 1.412 3.449 1.881 1.88 5.017 1.88 6.9 0 1.88-1.881 1.88-5.017 0-6.9a4.86 4.86 0 0 0-3.449-1.411zm95.32 0q-.235.001-.468.025a4.84 4.84 0 0 0-2.98 1.387 4.77 4.77 0 0 0-1.411 3.42v.03c0 1.254.47 2.507 1.412 3.448a4.86 4.86 0 0 0 3.448 1.412c1.254 0 2.51-.47 3.45-1.412 1.882-1.88 1.882-5.017 0-6.899a4.87 4.87 0 0 0-3.45-1.412zm-16.15 5.802c-.58 0-1.16.132-1.693.37a4.5 4.5 0 0 0-1.442.883c-1.568 1.568-1.568 4.234 0 5.959a4 4 0 0 0 1.859 1.047c.412.135.846.208 1.277.208 1.097 0 2.036-.472 2.976-1.255.784-.784 1.255-1.882 1.255-2.98 0-1.096-.471-2.194-1.255-2.978s-1.879-1.252-2.976-1.252zm-31.51 4.075c-1.411 0-2.822 1.097-3.135 2.508-.08.296-.114.597-.107.894-.035 1.455.981 2.778 2.459 3.181.157.157.47.16.784.16 1.568 0 2.822-.943 3.135-2.511a3 3 0 0 0 .107-.643v-.007a3 3 0 0 0 0-.312v-.012c-.069-1.404-1.058-2.72-2.46-3.102-.156-.157-.47-.157-.783-.157zm-19.63 5.175c-.165.018-.46.156-.753.156-1.455.397-2.461 1.797-2.46 3.261 0 .269.033.542.108.815.314 1.568 1.724 2.508 3.135 2.508.314 0 .627 0 .784-.156a4 4 0 0 0 .263-.083h.004l.006-.003c1.33-.483 2.222-1.731 2.19-3.096a3.2 3.2 0 0 0-.111-.894c-.314-1.568-1.725-2.508-3.135-2.508zm39.22.313q-.046.001-.092.006-.189.001-.376.024l-.105.013a3.053 3.053 0 0 0-1.17.42 3.2 3.2 0 0 0-.869.77q-.36.455-.53 1.005a3.2 3.2 0 0 0-.15 1.014v.04q0 1.41.94 2.352.941.94 2.352.94t2.352-.94c1.254-1.411 1.254-3.45 0-4.703q-.94-.94-2.352-.94zm-62.08 1.412c-1.097 0-2.195.468-2.979 1.252q-.147.147-.276.306c-1.303 1.59-1.34 4.036.276 5.652q.147.147.306.275l.004.004c.75.615 1.71.977 2.67.977 1.097 0 2.195-.472 2.98-1.255.783-.784 1.254-1.882 1.254-2.98 0-.96-.364-1.922-.98-2.672a4 4 0 0 0-.584-.585 4.26 4.26 0 0 0-2.67-.974zm41.39 6.899c-1.254 0-2.35.782-2.664 2.036-.314 1.568.469 2.98 2.036 3.45.314.157.47.157.784.157 1.41 0 2.51-.942 2.667-2.04.47-1.567-.472-3.133-1.883-3.447a2.4 2.4 0 0 0-.367-.092c-.191-.066-.338-.064-.573-.064zm13.33 2.976c-.784 0-1.569.313-2.039.784-.47.627-.784 1.255-.784 2.039s.157 1.569.784 2.039c.33.246.659.45 1.01.587a2.74 2.74 0 0 0 3.068-.587 2.74 2.74 0 0 0 .677-2.832c-.13-.491-.368-.938-.677-1.246-.627-.47-1.255-.784-2.039-.784m36.21.471c-.313 0-.783 0-1.096.156-1.856.53-3.153 2.296-3.129 4.155q-.008.576.15 1.176c.627 2.195 2.823 3.606 5.175 2.98 1.864-.666 3.161-2.35 3.126-4.187a3.9 3.9 0 0 0-.15-1.145c-.47-1.88-2.194-3.135-4.075-3.135zm-62.08.312c-.313 0-.47.16-.784.16-1.314.394-2.187 1.447-2.159 2.7-.009.292.027.595.12.904q.125.334.333.63c.318.506.793.88 1.347 1.082.53.22 1.138.298 1.77.171a3 3 0 0 0 1.5-1.09c.586-.661.823-1.56.536-2.517-.313-1.254-1.41-2.039-2.664-2.039zM123 57.032q-1.41-.001-2.352.94-.94.94-.94 2.351.001.046.006.092 0 .192.024.383l.013.095a3.076 3.076 0 0 0 .897 1.782 3.2 3.2 0 0 0 1.298.79c.329.104.672.154 1.014.15h.04c.784 0 1.724-.313 2.352-.94q.94-.94.94-2.352 0-1.41-.94-2.352-.94-.94-2.352-.94zm67.73 0c-.157 0-.47.156-.784.156-.94.313-1.569.783-2.039 1.568a2.95 2.95 0 0 0-.395 1.289 3.05 3.05 0 0 0 .083 1.219c.313 1.568 1.724 2.51 3.135 2.51.313 0 .627-.003.784-.159 1.606-.438 2.666-1.96 2.425-3.56a5 5 0 0 0-.074-.515c-.313-1.568-1.724-2.508-3.135-2.508zm31.2.627c-.47 0-.782 0-1.252.156-2.13.502-3.461 2.305-3.589 4.37a5.4 5.4 0 0 0 .138 1.744c.47 2.038 2.508 3.604 4.703 3.604.47 0 .785-.156 1.255-.156 1.254-.47 2.352-1.254 2.979-2.352s.782-2.509.468-3.763a4 4 0 0 0-.046-.187 4 4 0 0 0-.183-.502c-.637-1.577-2.044-2.6-3.684-2.848a4.7 4.7 0 0 0-.79-.067zm-130.5.013c-2.107.089-3.964 1.426-4.474 3.592q-.06.26-.095.52c-.534 2.411 1.01 4.997 3.546 5.594.47.157.782.156 1.252.156 2.352 0 4.233-1.567 4.703-3.448.075-.3.123-.61.144-.921.38-2.317-1.14-4.63-3.592-5.35a5.5 5.5 0 0 0-1.485-.143zm455.7 4.535c-.94 0-1.724.155-2.508.468s-1.412.785-2.039 1.412a10 10 0 0 0-1.252 2.195q-.471 1.175-.472 2.82 0 1.647.472 2.823c.314.94.625 1.568 1.252 2.195s1.255 1.098 2.039 1.412 1.567.469 2.508.469 1.724-.155 2.508-.469 1.412-.784 2.039-1.412c.47-.627.942-1.412 1.255-2.195q.47-1.177.469-2.823.001-1.645-.469-2.82c-.314-.94-.628-1.568-1.255-2.195s-1.255-1.098-2.039-1.412-1.567-.468-2.508-.468m-367.9 1.252a1 1 0 0 0-.251.036 2.8 2.8 0 0 0-.848.12c-1.411.47-2.35 1.883-1.88 3.45a3 3 0 0 0 1.592 1.759c.373.178.792.278 1.23.278.158 0 .471.001.785-.156 1.568-.47 2.507-1.88 2.036-3.448-.314-1.254-1.41-2.039-2.664-2.039zm367.9.156c.784 0 1.412.158 2.039.471.627.157 1.097.626 1.568 1.096.314.47.783 1.1.94 1.727s.312 1.41.312 2.192c0 .784-.155 1.568-.312 2.195s-.47 1.254-.94 1.724a6 6 0 0 1-.16.153l-2.507-3.445c.47-.156.942-.314 1.255-.627.47-.314.627-.784.627-1.568s-.313-1.41-.783-1.724q-.707-.47-1.883-.469l-2.508.156.004.157h-.004l.052 2.388.104 5.138 1.255-.16-.156-3.135h.784l2.195 3.295h1.562c-.418.386-.851.663-1.405.94-.628.314-1.255.469-2.04.469s-1.408-.155-2.035-.469c-.628-.156-1.097-.629-1.568-1.099-.314-.47-.787-1.097-.943-1.724-.157-.627-.313-1.412-.313-2.195 0-.784 0-1.565.313-2.192.156-.627.472-1.257.943-1.727s.94-.782 1.568-1.096a4.3 4.3 0 0 1 2.036-.471zm-413.3 1.255c-.784 0-1.569.313-2.039.784-.47.627-.784 1.255-.784 2.039s.314 1.566.784 2.036c.33.246.659.45 1.01.588a2.74 2.74 0 0 0 3.068-.588 2.76 2.76 0 0 0 .82-2.036 2.76 2.76 0 0 0-.82-2.04c-.627-.47-1.255-.783-2.039-.783m412.3 1.412h1.096c.47 0 .786.155 1.099.312q.02 0 .043.01c.167.203.257.524.27.854q-.025.64-.47.86a3.1 3.1 0 0 1-1.411.316l-.628.125zm-217.1 1.568c-1.725 0-3.137.313-4.391.94s-2.351 1.41-3.292 2.508c-.784 1.097-1.566 2.352-2.036 3.763a14.8 14.8 0 0 0-.784 4.703c0 1.725.154 3.292.625 4.703.47 1.41 1.099 2.666 2.039 3.763s2.037 1.88 3.292 2.508c1.254.627 2.823.94 4.39.94 1.725 0 3.135-.155 4.389-1.252 1.097-.47 2.039-1.255 2.823-2.195l-2.352-1.883c-.47.627-1.096 1.097-1.88 1.568-.784.47-1.726.627-2.667.627a5.4 5.4 0 0 1-2.82-.783c-.784-.47-1.57-1.096-2.04-1.88-.626-.784-.941-1.726-1.254-2.823a12.2 12.2 0 0 1-.469-3.448c0-1.254.155-2.353.469-3.451s.785-2.036 1.255-2.82c.627-.784 1.255-1.413 2.039-1.883a5.4 5.4 0 0 1 2.82-.784c.94 0 1.724.158 2.508.471.784.314 1.412.785 2.195 1.412l2.352-2.039c-.784-.94-1.881-1.566-3.135-2.036s-2.508-.628-4.075-.628zm65.84.627c-1.568 0-2.977.157-4.232.784-1.254.47-2.352 1.411-3.135 2.352q-1.177 1.645-1.883 3.76c-.47 1.411-.628 2.98-.628 4.703s.158 3.292.628 4.703 1.099 2.666 2.039 3.763c.784.94 1.881 1.724 3.135 2.352 1.254.47 2.664.784 4.232.784s2.978-.313 4.075-.784c1.254-.47 2.195-1.254 3.135-2.352s1.569-2.352 2.039-3.763c.47-1.41.628-2.979.628-4.703s-.158-3.292-.628-4.703c-.47-1.568-1.099-2.819-2.039-3.76-.784-.94-1.881-1.724-3.135-2.352a12 12 0 0 0-4.232-.784zm107.7.157-1.409.156v13.64c0 1.097-.004 2.039-.16 2.979a6.9 6.9 0 0 1-.94 2.508c-.47.627-1.095 1.257-1.88 1.727-.783.47-1.88.624-3.291.624s-2.511-.154-3.295-.624-1.41-.943-1.88-1.727-.783-1.567-.94-2.508-.156-1.88-.156-2.82l-.16-13.8-1.408.156v13.95c0 1.254.155 2.35.312 3.448s.628 2.039 1.255 2.823c.47.784 1.41 1.41 2.352 1.88.94.47 2.192.628 3.76.628 1.41 0 2.668-.157 4.079-.784q1.41-.705 2.352-1.88c.942-1.175.939-1.726 1.252-2.823.157-1.097.315-2.194.315-3.448zm-242.8.156-5.487.156v22.26l3.604-.16-.156-18.34 6.583 18.5 3.45-.159 6.428-18.34v18.5h3.919l-.156-22.42-5.802.157-5.956 17.56h-.156zm40.6 0-3.919.156.16 22.26h3.76zm124.9 0-1.883.156v22.26l1.568-.16v-20.07l11.92 20.22h1.88l-.156-22.42-1.412.157v20.07zm37 0-7.682 22.26H456l2.195-6.112h9.875l2.195 6.27h1.568l-7.523-22.42zm68.51 0-12.85.156v1.099h5.643l.156 21.16h1.412l-.156-21.16h5.959zm-170.3.156-7.682.156.16 22.26 3.76-.156-.157-9.878h3.292l5.02 9.878v-.16h4.074l-5.643-10.35c.627 0 1.097-.154 1.724-.468.47-.313 1.097-.629 1.568-1.099.47-.47.942-1.097 1.255-1.724q.47-.94.469-2.352c0-1.097-.158-2.039-.628-2.823s-.94-1.41-1.724-1.88c-.627-.47-1.567-.94-2.508-1.096-.94-.157-1.882-.315-2.98-.315zm-256.2.784q-.152 0-.303.012c-1.774.08-3.42 1.342-3.93 3.123-.385 1.8.39 3.702 1.976 4.676q.03.018.061.034c.334.197.7.359 1.1.465.313.157.782.156 1.095.156 1.113 0 2.118-.44 2.881-1.188.554-.52.98-1.186 1.197-1.947.627-2.195-.784-4.548-2.979-5.175-.313-.156-.785-.156-1.099-.156zm358.9.471 4.547 13.48-9.094.156zm-68.2.784c.94 0 1.881.314 2.508.628q1.177.704 1.883 1.88c.706 1.176.783 1.726 1.096 2.823.157 1.097.315 2.194.315 3.448 0 1.097-.002 2.35-.315 3.448-.157 1.097-.626 2.039-1.096 2.823s-1.099 1.41-1.883 1.88c-.627.47-1.567.628-2.508.628-1.097 0-1.88-.158-2.664-.628q-1.177-.705-1.883-1.88c-.706-1.175-.94-1.726-1.096-2.823s-.312-2.194-.312-3.448c0-1.097.155-2.35.312-3.448s.626-2.04 1.096-2.823 1.099-1.41 1.883-1.88 1.723-.628 2.664-.628m-38.72.312h3.292c.627 0 1.097 0 1.724.157.627.156 1.097.314 1.568.627.47.314.786.63 1.099 1.1q.47.704.469 1.88c0 1.253-.469 2.195-1.252 2.822q-1.177.94-3.295.94l-3.292.156h-.313zm-204.7.157c-1.724 7.839-3.294 15.84-5.019 23.68q.046 0 .16-.022l-.004.022s.314-.004.784-.16c.332-.094.736-.202 1.164-.312.481-.118.988-.244 1.458-.358.502-.116.96-.213 1.298-.27.627-.156.943-.313.943-.94 0-.156.156-.47.156-.784l.157-.312-.059-.465c.235-.76.371-1.437.503-2.211 1.569-.093 2.764-.932 3.895-1.813l.009-.006q.335-.264.667-.524c.165-.083.288-.207.389-.33l.257-.215c.32 1.359.948 2.123 2.177 2.584.784.157 1.412.312 2.04.312.94 0 1.88-.156 2.663-.784q.188-.154.374-.303a18 18 0 0 0 2.29-1.892c.784-.627 1.569-1.409 2.353-2.192l.943-1.099.156-.156c-.784-.157-1.255 0-2.04.472-.47.47-1.096.782-1.567 1.252s-1.097.785-1.568 1.099c-.627.313-1.097.312-1.724.156a1.3 1.3 0 0 1-.515-.248c-.18-.222-.27-.515-.27-.852v-.624c.628-2.98 2.352-11.13 2.509-12.54h-.037l.037-.16h-5.016c-.157.157-.156.16-.156.316-.941 4.233-1.726 8.309-2.667 12.54 0 .157 0 .469-.157.469-.463.231-.925.636-1.45.894a3.4 3.4 0 0 1-.589.205 1.9 1.9 0 0 1-.854.128q-.357-.086-.713-.444c-.314-.313-.313-.781-.313-1.409 0-.156 2.35-11.29 2.664-12.7h-.156zm31.2 4.862c-1.254 0-2.35.782-2.664 2.036a3.45 3.45 0 0 0 .312 2.195c.47.627.943 1.099 1.727 1.255.314.156.47.156.784.156 1.254 0 2.35-.785 2.664-2.04.47-1.41-.469-2.976-1.88-3.447a2.4 2.4 0 0 0-.37-.092c-.191-.066-.338-.064-.573-.064zm-65.06.156c-1.411 0-2.822 1.097-3.135 2.508q-.119.446-.107.894c-.035 1.455.981 2.778 2.459 3.18.157.158.47.157.784.157 1.41 0 2.822-.94 3.135-2.508a3 3 0 0 0 .107-.643v-.006q.008-.157 0-.313v-.015c-.069-1.404-1.058-2.717-2.46-3.1-.156-.156-.47-.155-.783-.155zm78.23.156c-1.411 0-2.822 1.097-3.135 2.508-.47 1.724.627 3.605 2.352 4.075.157.157.47.159.784.159.797 0 1.514-.244 2.067-.689a3.4 3.4 0 0 0 1.225-1.822c.19-.948-.078-2.009-.701-2.805a3.32 3.32 0 0 0-1.807-1.27c-.157-.158-.47-.157-.784-.157zm-65.22 1.412c-1.254 0-2.35.782-2.664 2.036-.47 1.41.47 2.98 1.88 3.45q.183.06.367.09c.191.065.338.067.573.067 1.254 0 2.353-.942 2.667-2.04.146-.727.054-1.42-.242-2.002a2.44 2.44 0 0 0-1.797-1.445c-.313-.157-.47-.156-.784-.156zm78.7 3.763c-1.881 0-3.605 1.254-4.075 3.135-.627 2.195.785 4.545 2.979 5.172.314.157.783.156 1.096.156 1.881 0 3.608-1.254 4.079-3.135.2-.702.209-1.403.025-2.064a4.35 4.35 0 0 0-.741-1.54c-.424-.669-1.06-1.109-1.788-1.396a4 4 0 0 0-.475-.171c-.314-.157-.786-.157-1.1-.157zm-29.69 7.802q-.377.019-.738.14c-.49.13-.934.371-1.243.68a2.745 2.745 0 0 0 0 3.92c.627.47 1.255.783 2.04.783.566 0 1.05-.165 1.512-.434q.283-.146.524-.35.097-.097.183-.202a2.74 2.74 0 0 0-.183-3.717 2.76 2.76 0 0 0-2.094-.82zm-44.94 1.289c-.194 0-.326.061-.475.107q-.155.015-.309.049c-1.568.47-2.507 1.883-2.036 3.45.314 1.255 1.41 2.037 2.664 2.037.266 0 .531 0 .701-.095q.12-.025.24-.061c1.41-.47 2.352-1.88 1.882-3.448-.313-1.254-1.413-2.04-2.667-2.04zm-43.11 1.568c-.47 0-.782 0-1.252.156-1.254.47-2.352 1.254-2.979 2.352s-.785 2.509-.471 3.763q.022.094.048.187.072.252.175.493c.634 1.584 2.046 2.613 3.69 2.86q.39.066.79.067c.47 0 .942 0 1.255-.156 1.937-.456 3.198-1.992 3.509-3.818a5.4 5.4 0 0 0-.061-2.296c-.47-2.038-2.508-3.607-4.703-3.607zm130.3 0c-2.195 0-4.076 1.412-4.703 3.607a5.4 5.4 0 0 0-.138 1.742c.127 2.065 1.458 3.87 3.59 4.373.47.157.781.156 1.251.156.28 0 .556-.029.827-.074 1.855-.291 3.415-1.574 3.876-3.534q.061-.249.095-.499c.547-2.417-.998-5.017-3.543-5.616-.47-.156-.785-.156-1.255-.156zm-99.11 3.607c-.165.017-.46.156-.753.156-1.364.372-2.335 1.627-2.45 2.988-.033.354-.002.72.098 1.087.313 1.568 1.724 2.508 3.135 2.508.313 0 .627 0 .784-.156q.134-.036.263-.083h.004q.002 0 .006-.004c1.329-.483 2.219-1.73 2.186-3.096a3.2 3.2 0 0 0-.107-.894c-.314-1.568-1.724-2.508-3.135-2.508h-.03zm67.91.312c-.031 0-.06.006-.092.006q-.189.001-.376.025-.055.005-.108.012a3.078 3.078 0 0 0-1.485.637q-.151.12-.29.26a3.2 3.2 0 0 0-.94 2.342 3.22 3.22 0 0 0 .94 2.361q.94.942 2.351.943 1.176-.001 2.352-.943c1.254-1.41 1.254-3.449 0-4.703q-.94-.94-2.352-.94zm-82.47.472c-.313 0-.783-.001-1.096.156q-.174.05-.34.113a4.4 4.4 0 0 0-.707.352c-1.266.754-2.092 2.091-2.082 3.61-.004.364.046.735.15 1.1.47 1.88 2.194 3.134 4.075 3.134q.15 0 .282-.018.403-.03.817-.141.172-.05.337-.11h.004c.15-.056.288-.129.429-.2q.142-.072.278-.155c1.266-.754 2.09-2.091 2.08-3.61a3.8 3.8 0 0 0-.148-1.096c-.47-1.881-2.197-3.135-4.079-3.135zm62.4 2.508a1 1 0 0 0-.306.052q-.24.026-.478.104c-.784.157-1.41.628-1.724 1.255-.47.784-.472 1.412-.315 2.195.313 1.254 1.413 2.036 2.667 2.036.246 0 .395 0 .6-.077q.168-.029.34-.08c1.41-.47 2.35-1.88 1.88-3.447-.314-1.254-1.41-2.04-2.664-2.04zm-26.24.747q-.376.019-.738.14c-.49.13-.934.371-1.243.68-.47.627-.784 1.255-.784 2.04s.314 1.565.784 2.035c.627.47 1.255.784 2.04.784.666 0 1.217-.241 1.753-.695a3 3 0 0 0 .466-.444 2.743 2.743 0 0 0-.184-3.72 2.76 2.76 0 0 0-2.094-.82zm13.07 3.172c-1.254 0-2.35.785-2.664 2.039-.157.784 0 1.565.312 2.192.314.627.94 1.099 1.724 1.255.314.157.47.156.784.156 1.254 0 2.353-.939 2.667-2.036.47-1.411-.472-2.981-1.883-3.451a2.3 2.3 0 0 0-.367-.089c-.191-.066-.338-.067-.573-.067zm41.86 3.919c-.58 0-1.16.131-1.693.37a4.5 4.5 0 0 0-1.442.885c-1.568 1.568-1.568 4.231 0 5.956 1.096 1.096 2.571 1.495 3.904 1.197.826-.126 1.608-.478 2.208-1.197 1.568-1.568 1.568-4.388 0-5.956-.784-.784-1.879-1.255-2.976-1.255zm-62.24 3.292q-1.41 0-2.352.94-.94.94-.94 2.352c0 1.412.313 1.725.94 2.352q.94.942 2.352.943.043-.002.086-.006c.327 0 .653-.047.967-.147a3 3 0 0 0 1.004-.527h.004q.152-.122.291-.263a3.2 3.2 0 0 0 .94-2.34 3.22 3.22 0 0 0-.94-2.363q-.94-.94-2.352-.94zm39.19 0c-.157 0-.47.156-.784.156-.94.313-1.566.784-2.036 1.568a2.95 2.95 0 0 0-.395 1.289c-.054.395-.032.81.08 1.222.313 1.568 1.724 2.508 3.135 2.508.313 0 .627 0 .784-.156a4 4 0 0 0 .272-.09c1.329-.483 2.222-1.731 2.189-3.096a3.2 3.2 0 0 0-.11-.894c-.314-1.568-1.725-2.508-3.135-2.508zm-19.6 5.175c-1.411 0-2.822 1.097-3.135 2.508-.313.784-.155 1.724.315 2.508.219.38.51.72.867.992.361.288.765.495 1.17.575.157.157.47.157.784.157 1.568 0 2.822-.94 3.135-2.508.313-.784.158-1.724-.312-2.508s-1.255-1.411-2.04-1.568c-.156-.157-.47-.156-.783-.156zm-31.35 2.508c-1.097 0-2.195.471-2.979 1.255s-1.252 1.879-1.252 2.976c0 .58.131 1.16.37 1.693a4.5 4.5 0 0 0 .882 1.442c1.568 1.568 4.234 1.568 5.96 0a4.52 4.52 0 0 0 1.175-3.056 4.52 4.52 0 0 0-1.176-3.056c-.783-.784-1.882-1.255-2.979-1.255zm-16.15 4.703c-1.254 0-2.51.47-3.451 1.412-1.881 1.88-1.881 5.017 0 6.899 1.881 1.88 5.017 1.88 6.899 0a4.87 4.87 0 0 0 1.412-3.451v-.03a4.75 4.75 0 0 0-1.081-3.05v-.005a4.863 4.863 0 0 0-3.779-1.776zm95.32 0q-.25 0-.5.024c-.076.008-.152.023-.229.034q-.124.016-.248.04c-.095.019-.19.045-.284.07q-.104.025-.206.055a5 5 0 0 0-.49.18 5 5 0 0 0-.493.249q-.086.049-.171.1-.135.088-.263.185-.089.062-.175.128a5 5 0 0 0-.389.346 4.82 4.82 0 0 0-1.381 2.91q-.03.267-.03.535v.004q0 .252.024.502c.008.075.023.147.034.22q.017.132.043.261.027.13.06.257a4.7 4.7 0 0 0 .347.94q.073.147.156.288c.027.047.05.095.08.14q.094.151.202.295.057.08.12.16.16.2.345.388c1.881 1.881 5.017 1.881 6.9 0a4.87 4.87 0 0 0 1.408-3.451v-.03a4.75 4.75 0 0 0-1.078-3.05v-.004a5 5 0 0 0-.643-.653 4.9 4.9 0 0 0-3.135-1.124zm-26.65 1.412c-.314 0-.783 0-1.096.156q-.239.07-.46.168c-1.452.593-2.48 1.896-2.645 3.442a3.9 3.9 0 0 0 .125 1.565c.47 1.881 2.194 3.135 4.075 3.135.314 0 .63-.004 1.1-.159q.171-.049.336-.11h.004c.147-.055.284-.124.423-.193q.153-.08.3-.171c1.256-.756 2.074-2.088 2.064-3.601a3.8 3.8 0 0 0-.15-1.096c-.47-1.881-2.194-3.135-4.075-3.135zm-27.12 4.075c-1.881 0-3.608 1.254-4.079 3.135-.627 2.195.785 4.548 2.979 5.175.314.157.786.156 1.099.156a3.9 3.9 0 0 0 1.384-.266 4 4 0 0 0 .272-.11c.064-.03.128-.057.19-.09a4.45 4.45 0 0 0 1.35-1.053v-.004a4.2 4.2 0 0 0 .88-1.614c.15-.526.192-1.055.126-1.565a4.14 4.14 0 0 0-1.093-2.385c-.51-.61-1.221-.998-2.012-1.225-.314-.156-.783-.156-1.096-.156zm-11.45 11.76c-2.195 0-4.076 1.412-4.703 3.607a5.4 5.4 0 0 0-.064 2.275c.305 1.836 1.568 3.379 3.512 3.837.47.157.785.159 1.255.159.068 0 .131-.013.199-.016q.158-.007.315-.024c2.105-.193 3.754-1.537 4.19-3.567.43-1.466.151-2.93-.632-4.057-.644-1.083-1.664-1.77-2.817-2.058-.47-.157-.785-.156-1.255-.156zm34.96 0c-.47 0-.785 0-1.255.156-1.254.47-2.352 1.254-2.979 2.352s-.782 2.509-.468 3.763q.02.094.045.187c.05.175.116.344.187.511.639 1.572 2.044 2.595 3.68 2.842q.39.066.79.067c.264 0 .478 0 .698-.055q.277-.037.555-.104c2.269-.534 3.63-2.543 3.598-4.774a5.5 5.5 0 0 0-.147-1.338c-.47-2.038-2.508-3.607-4.703-3.607z"/>
</svg>