<svg xmlns="http://www.w3.org/2000/svg" viewBox="0 0 1200 320">
  <path fill="#222" d="M0 0v320h320V0z"/>
  <path fill="#ecd9a6" d="M83.53 83.53c-.056 2.769-.104 5.532-.062 8.301.07 48.22-.07 96.42.062 144.6 6.463.104 12.92.104 19.38 0 .167-22.23-.07-44.46.104-66.69 13.41-.09 26.83-.09 40.24 0 .16 22.23-.072 44.46.095 66.69 6.692.104 13.39.104 20.08 0 .056-2.769.104-5.537.063-8.299-.07-48.22.062-96.42-.063-144.6-26.62-.083-53.25-.083-79.9 0zm126.6.01c-.104 3.694-.09 7.388-.055 11.08v151c.035 3.694.048 7.388-.056 11.08-9.01.202-18.02-.104-27.03.097a644 644 0 0 0 0 20.08c17.82.084 35.64.084 53.47 0 .153-5.322.007-10.64.049-15.95v-166.3c.034-3.694.048-7.388-.05-11.08a1187 1187 0 0 0-26.33 0zm-107.1 20.16c13.41-.09 26.83-.09 40.24 0 .097 15.5.098 31.01.008 46.51-13.42.09-26.83.083-40.25 0-.09-15.5-.084-31.01 0-46.51z"/>
  <path fill="#111" d="M438.7 82.35c-7.68 0-14.22 1.351-19.63 4.053q-8.105 4.053-8.105 9.812v141.4h33.71v-70.19h20.05v70.19h33.71v-141.4q0-5.76-8.107-9.812-8.108-4.053-19.63-4.053zm112.2 0q-13.652 0-21.33 3.199-7.681 2.986-7.682 9.812v38.83q0 2.56.428 4.693.853 2.133 4.266 5.119l44.37 37.12q2.134 1.708 2.988 2.988.852 1.28.851 3.199v35.2h-19.2v-35.2h-33.71v37.33q.001 6.825 7.682 10.03 7.68 2.986 21.33 2.986h28.59q13.652 0 21.33-2.986 7.68-3.198 7.68-10.03v-36.27q0-2.773-.426-4.693 0-1.92-.853-3.414c-.853-1.494-1.279-1.991-2.133-2.986q-1.28-1.493-3.84-3.412l-41.81-34.99a62 62 0 0 1-2.986-2.773q-.854-1.494-.854-3.414v-35.2h19.2v35.2h33.71v-37.33q0-6.826-7.68-9.812-7.68-3.2-21.33-3.199zm109.2 0q-13.651 0-21.33 3.199-7.681 2.986-7.682 9.812v38.83q0 2.56.428 4.693.853 2.133 4.266 5.119l44.37 37.12q2.134 1.708 2.988 2.988.852 1.28.851 3.199v35.2h-19.2v-35.2h-33.71v37.33q.001 6.825 7.682 10.03 7.68 2.986 21.33 2.986h28.59q13.651 0 21.33-2.986 7.68-3.198 7.68-10.03v-36.27q0-2.773-.426-4.693 0-1.92-.853-3.414a19.3 19.3 0 0 0-2.133-2.986q-1.28-1.493-3.84-3.412l-41.81-34.99a62 62 0 0 1-2.986-2.773q-.854-1.494-.854-3.414v-35.2h19.2v35.2h33.71v-37.33q0-6.826-7.68-9.812-7.68-3.2-21.33-3.199zm81.07 0v155.3H812V222.5h-37.12v-55.04h31.15V152.1h-31.15V97.49H812V82.34zm90.03 0v155.3h33.71v-70.19h20.05v70.19h33.71v-66.13q0-3.414-2.988-6.826c-1.707-2.418-6.967-3.982-15.79-4.693q6.4-.427 10.24-1.707t5.545-2.986q2.133-1.92 2.561-3.84.427-2.133.428-3.84v-51.63q0-5.546-8.107-9.6-8.108-4.053-19.63-4.053zm105.4 0V97.5h24.75v140.2h36.27V97.5h24.75V82.35zm138.7 0v140.2h-19.2v-35.2h-33.71v35.84q.001 6.825 7.682 10.67c7.681 3.845 12.23 3.84 21.33 3.84h28.59q13.651 0 21.33-3.84c7.679-3.84 7.68-6.115 7.68-10.67V82.39zM444.7 97.5h20.05v54.61H444.7zm420.3 0h20.05v54.61H865z"/>
</svg>