<svg xmlns="http://www.w3.org/2000/svg" viewBox="0 0 640 160">
  <path fill="#6db33f" d="M99.57 11.15c-5.2 0-11.7 3.699-14.3 8.299l-30.2 52.3c-2.6 4.5-2.6 12 0 16.5l30.2 52.3c2.6 4.5 9.101 8.299 14.3 8.299h60.4c5.2 0 11.7-3.699 14.3-8.299l18.86-32.67.002-.002v-.004l.002-.002a48 48 0 0 0 4.734-8.195l.006-.013 6.594-11.42c2.7-4.6 2.7-12 0-16.5l-1.31-2.266c-.374-14.39-3.863-31.34-10.49-51.04l-2.5-7.1v-.1l-3.2 6.6c-1.877 3.905-4.431 7.496-7.422 10.74l-5.277-9.14c-2.6-4.5-9.101-8.298-14.3-8.298h-60.4zm311.9 6.639a7.65 7.65 0 0 0-7.682 7.682 7.65 7.65 0 0 0 7.682 7.682 7.65 7.65 0 0 0 7.684-7.682c0-4.404-3.552-7.818-7.684-7.682m-221.8 1.262v.1c4.187 12.51 8.831 28.56 10.1 44.46l-.043-.075c1.231 15.49-.728 30.85-9.395 42.67q-.127.175-.258.348a36 36 0 0 1-4.799 5.242c-1.316 1.18-2.716 2.223-4.162 3.188-.498.332-1.027.614-1.539.922a41 41 0 0 1-2.957 1.646c-.653.323-1.323.617-1.994.908q-1.378.602-2.803 1.12c-.747.269-1.499.532-2.264.769-.569.176-1.153.322-1.73.482-1.84.507-3.762.841-5.678 1.191a84 84 0 0 1-6.359.943c-1.645.173-3.29.342-4.957.442-1.373.082-2.752.11-4.133.15-7.46.215-14.14.08-21.18-.119-1.888-.086-6.489-.185-9.344-.185h-5.7s-4.156.193-8.382.865a51 51 0 0 1 3.381-1.266c17-5.9 25-7.1 35.4-12.4 7.207-3.678 14.4-8.984 20.8-15.36 10.87-10.79 19.48-24.66 22-38.84l-.17.486q.036-.194.07-.387c-3.248 9.484-9.41 18.41-17.03 26.07-9.711 9.742-21.77 17.44-33.18 21.63-14 5.2-39.3 10.2-39.3 10.2l-1-.5c-8.705-4.129-13.2-15.46-11.67-27.28 1.59-11.91 9.289-24.3 24.97-30.32 13.7-5.3 26.9-2.4 41.7-5.9 11.36-2.732 24.01-9.6 33.01-19l-.029-.05c3.532-3.694 6.503-7.776 8.617-12.14zm333.9 24.31c-15.6 0-30.93 12.36-30.93 34.66v.273c0 22.16 15.19 34.65 30.93 34.65 11.06 0 18.03-5.53 22.71-11.64-.717 12.05-8.092 18.3-21 18.3-7.682 0-14.34-1.843-20.45-5.258-.717-.41-1.707-.58-2.697-.58-3.551 0-6.521 2.834-6.521 6.248 0 2.97 1.707 5.121 4.268 6.111 8.092 3.961 16.46 5.975 25.85 5.975 12.05 0 21.44-2.834 27.42-8.945 5.531-5.53 8.502-13.9 8.502-25.13v-46.57c0-4.404-3.416-7.818-7.684-7.818a7.65 7.65 0 0 0-7.682 7.682v4.541c-4.985-6.965-11.92-12.5-22.71-12.5zm-202.2.137c-10.79 0-17.72 5.53-22.71 12.5v-4.541c0-4.268-3.45-7.682-7.684-7.682s-7.512 3.414-7.512 7.682v73.41c0 4.404 3.38 7.684 7.512 7.684a7.653 7.653 0 0 0 7.684-7.684v-23.56c4.678 6.248 11.64 11.78 22.71 11.78 15.74 0 30.93-12.5 30.93-34.65v-.274c0-22.3-15.33-34.66-30.93-34.66zm-69.69.136c-13.18 0-23.7 7.681-23.7 20.31v.274c0 12.77 11.06 16.77 20.86 19.6 7.819 2.39 14.92 4.095 14.92 9.354v.273c0 4.404-3.859 7.238-10.38 7.238-5.941 0-12.77-2.117-19.15-6.385-.854-.444-2.014-.853-3.277-.853-3.551 0-6.248 2.834-6.248 6.248 0 2.424 1.127 4.406 2.834 5.26 7.648 5.258 16.9 7.954 25.61 7.92 13.76 0 24.69-6.931 24.69-21v-.274c0-11.95-10.93-16.49-20.72-19.46-7.819-2.56-15.06-4.54-15.06-9.525v-.273c0-3.687 3.38-6.521 9.355-6.521 4.678 0 10.21 1.707 15.6 4.54.99.445 1.707.718 2.971.718 3.551 0 6.385-2.697 6.385-6.248 0-2.697-1.571-4.678-3.688-5.805-6.521-3.414-13.9-5.395-21-5.395zm114.1.137c-4.234 0-7.512 3.414-7.512 7.682h-.137v53.74c0 4.234 3.38 7.512 7.512 7.512 4.268 0 7.682-3.38 7.682-7.512v-21.99c0-13.18 7.375-22.71 18.3-24.55 3.414-.717 6.111-3.414 6.111-7.375 0-4.404-2.696-7.512-7.51-7.512-6.692 0-16.05 5.701-16.77 11.37v-3.688a7.67 7.67 0 0 0-7.682-7.682zm97.14 0c-10.35 0-16.59 4.678-20.86 10.93v-3.107a7.67 7.67 0 0 0-7.682-7.682c-4.234 0-7.512 3.414-7.512 7.682l-.033 53.78c0 4.234 3.38 7.512 7.512 7.512 4.268 0 7.682-3.244 7.682-7.512v-31.1c0-10.35 6.248-16.59 15.06-16.59 9.219 0 14.34 5.941 14.34 16.32v31.24c0 4.234 3.45 7.512 7.684 7.512s7.512-3.244 7.512-7.512v-35.92c0-15.47-8.64-25.54-23.7-25.54zm-51.55.137c-4.234 0-7.512 3.414-7.512 7.682v53.81c0 4.234 3.38 7.512 7.512 7.512 4.268 0 7.682-3.244 7.682-7.512V51.59a7.67 7.67 0 0 0-7.682-7.682m167.7.136c-4.268 0-7.82 3.414-7.82 7.818 0 4.268 3.552 7.818 7.82 7.818a7.795 7.795 0 0 0 7.818-7.818 7.795 7.795 0 0 0-7.818-7.818m0 1.16c3.687 0 6.656 2.834 6.656 6.658 0 3.687-2.969 6.658-6.656 6.658s-6.658-2.97-6.658-6.658a6.645 6.645 0 0 1 6.658-6.658m-3.006 2.117v8.945h1.264v-3.55h1.57l2.287 3.55h1.674l-2.424-3.55c.444 0 2.287-.718 2.287-2.698 0-1.57-1.4-2.697-2.971-2.697zm1.299 1.127h2.287c.854 0 1.707.582 1.707 1.537 0 .99-.853 1.57-1.57 1.57h-2.424zm-50.26 8.23c10.35 0 19.46 8.671 19.46 21.3v.273c.137 12.8-8.945 21.44-19.46 21.44-10.52 0-19.02-8.228-19.02-21.44v-.274c0-12.91 8.672-21.3 19.02-21.3m-209.1.17c10.35 0 19.02 8.4 19.02 21.31v.273c0 13.18-8.672 21.44-19.02 21.3-10.38 0-19.46-8.535-19.46-21.3v-.274c0-12.63 9.081-21.31 19.46-21.31m-230.2 61.4a6.1 6.1 0 0 1 6.1 6.1 6.1 6.1 0 0 1-6.1 6.1 6.1 6.1 0 0 1-6.1-6.1 6.1 6.1 0 0 1 6.1-6.1"/>
</svg>