<svg xmlns="http://www.w3.org/2000/svg" width="4096" height="2048" viewBox="0 0 3072 1536">
  <path fill="#07c" d="M415.8 216.2v79.57h14.98v-31.99h9.089l17.93 31.99h18.16l-19-32.76a20 20 0 0 0 5.218-2.18q4.922-2.954 7.657-8.314 2.789-5.36 2.789-12.52c0-7.16-.912-8.95-2.735-12.52q-2.734-5.36-7.711-8.313-4.921-2.953-11.54-2.953h-34.83zm250.1.054v64.48q0 7.165 3.773 11.1 3.774 3.938 10.61 3.938h7.657v-14.44h-2.517q-2.187 0-3.39-1.148-1.15-1.148-1.148-3.17v-60.76h-14.99zm33.91 6.234v16.52h-5.852v12.8h5.852v29.2q0 7.274 3.391 11.16 3.39 3.884 10.99 3.883h7.547v-14.44h-3.719q-1.586 0-2.407-1.148-.82-1.15-.82-3.173v-25.48h6.946v-12.8h-6.946v-16.52h-14.98zm-269.1 8.15h18.65q3.555 0 5.632 2.57 2.133 2.57 2.133 6.781-.054 4.21-2.187 6.781-2.078 2.571-5.578 2.571h-18.65v-18.7zm78.09 7.546q-11.924 0-18.48 6.945c-4.339 4.63-6.507 11.17-6.507 19.63v6.398c0 8.094 2.26 14.37 6.781 18.81 4.557 4.411 10.96 6.617 19.2 6.617q5.633 0 11.16-2.187 5.523-2.243 9.954-6.29l-9.79-8.695a18.6 18.6 0 0 1-5.36 3.063 17.9 17.9 0 0 1-5.96 1.04q-5.852 0-9.133-3.172-2.606-2.562-3.107-6.836h34.83v-3.718c0-10.03-2.06-17.79-6.18-23.3q-6.125-8.313-17.39-8.313zm58.41 0c-7.401 0-13.13 1.568-17.17 4.704q-6.07 4.702-6.07 13.29 0 5.415 1.75 8.585 1.75 3.117 4.704 4.704 2.953 1.53 6.507 2.241 3.61.656 7.274 1.148 3.609.493 6.835.82 3.226.275 5.196 1.205 2.023.93 2.023 3.445 0 2.078-2.897 3.28-2.9 1.149-8.149 1.149-4.047 0-8.531-1.422a36 36 0 0 1-8.585-4.047l-9.243 11.54q4.868 3.664 11.76 5.742 6.945 2.023 14.6 2.023 11.594 0 17.94-4.922 6.398-4.92 6.398-13.84 0-5.852-1.969-9.188c-1.969-3.336-3.043-3.884-5.194-4.978q-3.172-1.64-7-2.241a141 141 0 0 0-7.601-1.094q-3.282-.383-6.126-.71-2.844-.384-4.594-1.205-1.75-.82-1.749-2.46 0-1.915 2.515-2.898 2.516-1.039 7.055-1.04 3.718 0 7.765 1.148a36 36 0 0 1 7.767 3.227l8.914-10.88q-4.977-3.5-11.32-5.414a43.7 43.7 0 0 0-12.8-1.915zm36.37.82v35.06c0 7.147 1.658 12.69 4.976 16.62q4.977 5.909 14.11 5.907 5.688 0 9.242-3.391 2.783-2.614 4.266-5.716v8.287h14.93v-56.77h-14.93v34.18q0 4.32-2.297 6.672-2.242 2.296-6.453 2.297-4.211 0-6.562-2.243-2.297-2.297-2.297-6.398v-34.51h-14.98zm-94.77 12.8q4.21 0 6.672 2.736 2.46 2.68 3.062 7.547l.164 1.312h-21.26q.182-5.353 2.941-8.367 3.007-3.227 8.421-3.227m-252.8-123.8a9.1 9.1 0 0 0-3.681.782l-119.1 53.06c-3.15 1.404-5.171 4.467-5.171 7.841v128.7c0 3.287 1.919 6.287 4.947 7.737l119.2 57.04a9.07 9.07 0 0 0 7.808 0l119.2-57.04c3.028-1.45 4.945-4.45 4.945-7.737v-128.7c0-3.374-2.019-6.437-5.169-7.84l-119.1-53.06a9.05 9.05 0 0 0-3.681-.783zm0 18.1 98.68 43.94-39.08 17.4-98.68-43.94zm-58.74 26.16 98.68 43.94-39.94 17.79-98.68-43.94zm-51.56 30.11 102.1 45.48v114l-102.1-48.89.001-110.6zm220.6 0v110.6l-102.1 48.89v-114l102.1-45.48zm-142.3 183.2v686.3c0 52.63 43.37 96 96 96h86.22c1.263 11.38 7.826 20 15.78 20q.44 0 .874-.035v.035h15.13v-104h-15.13v.035q-.435-.035-.874-.035c-7.955 0-14.52 8.62-15.78 20h-86.22c-18.28 0-32-13.72-32-32v-686.3l-28.1 13.45a9.07 9.07 0 0 1-7.809 0l-28.1-13.45zm120.2 30.33q-7.688 0-11.9 3.5-4.22 3.47-4.22 9.813v.032q0 3.969 1.312 6.343 1.345 2.375 3.532 3.656a17.4 17.4 0 0 0 4.781 1.843q2.625.594 5.187 1.031a36 36 0 0 1 4.875 1.125q2.251.656 3.627 2.032c1.375 1.376 1.374 2.239 1.374 3.968v.03q0 3.313-2.72 5.157c-2.719 1.843-4.363 1.844-7.654 1.844q-3.657 0-6.782-1.125a18 18 0 0 1-5.719-3.375l-3.97 4.875a23.4 23.4 0 0 0 4.75 3.126 24 24 0 0 0 5.468 1.875q2.938.623 6.249.624 7.94 0 12.31-3.438 4.372-3.436 4.374-9.718v-.063q0-3.718-1.25-6.03-1.22-2.312-3.281-3.626-2.032-1.344-4.534-2.032a62 62 0 0 0-5-1.217 104 104 0 0 1-5.218-1.188q-2.408-.657-3.908-2.001c-1.5-1.344-1.499-2.198-1.5-3.905v-.031q0-3.406 2.562-5.25 2.597-1.875 7.251-1.875 2.594 0 5.156.936 2.596.938 5.187 2.875l3.625-5.062q-3.313-2.404-6.813-3.561a22.1 22.1 0 0 0-7.156-1.188zm23.32.467v6.375h6.375v-6.375zm86.31 0v37q0 4.095 2.001 6.344c2.001 2.249 3.198 2.249 5.593 2.25h3.75v-6.063h-3q-.937 0-1.468-.656-.5-.655-.5-1.812v-37.06zm297.9 0q-4.155 0-6.126 2.158-1.97 2.155-1.969 6.438v4.406h-3.438v5.438h3.438v27h6.375v-27h6.406v-5.438h-6.406v-4.469q0-1 .438-1.718.437-.75 1.406-.75h4.562v-6.063zm70.84 0q-4.157 0-6.126 2.158-1.97 2.155-1.969 6.438v4.406h-3.438v5.438h3.438v27h6.375v-27h6.406v-5.438h-6.406v-4.469q0-1 .438-1.718.436-.75 1.405-.75h4.563v-6.063zm11.25 0v37q0 4.095 2 6.344c2 2.25 3.198 2.25 5.594 2.25h3.75v-6.063h-3q-.937 0-1.469-.656-.5-.655-.5-1.812v-37.06zm-309.1 3.562v9.438h-3.343v5.751h3.343v18.25q0 4.156 1.781 6.375 1.812 2.219 5.812 2.218h3.687v-6.063h-3.064q-.908 0-1.374-.656c-.467-.656-.467-1.041-.467-1.812v-18.31h4.903v-5.751h-4.903v-9.438l-6.375-.003zm-95.41 8.871-.001.003q-5.187 0-8.061 3.47-2.844 3.438-2.843 9.75v7.156q0 6.28 2.906 9.75 2.938 3.437 8.312 3.438 3.438 0 5.563-1.718 1.69-1.37 2.593-3.013v4.138q0 3.688-2.001 5.687-2 2.031-5.656 2.033-1.907 0-3.656-.937-1.718-.938-2.968-2.657l-4.312 3.905q1.594 2.469 4.47 3.813 2.906 1.375 6.562 1.375 6.656 0 10.28-3.72 3.656-3.686 3.656-10.44v-31.47h-6.375v4.073q-1.316-1.95-3.218-3.135-2.374-1.5-5.25-1.5zm345.5.09-.003.008q-6.502 0-10.09 3.967-3.561 3.97-3.56 11.22v3.655q0 6.97 3.717 10.75c3.717 3.78 5.979 3.78 10.5 3.781q3.031 0 6.032-1.25 3-1.282 5.407-3.596l-4.188-4.187q-1.5 1.406-3.406 2.187c-1.906.781-2.552.781-3.845.781q-3.874-.001-6.029-2.156-2.05-2.08-2.123-5.905h20.43v-2.124q0-8.124-3.375-12.63-3.343-4.5-9.467-4.5zm-289.7.004-.001.004q-6.497 0-10.09 3.968-3.563 3.969-3.561 11.22v3.656q0 6.97 3.718 10.75c3.718 3.78 5.979 3.78 10.5 3.781q3.03 0 6.029-1.25a17.9 17.9 0 0 0 5.408-3.595l-4.188-4.188a11.1 11.1 0 0 1-3.407 2.187c-1.906.781-2.551.782-3.842.782q-3.876 0-6.031-2.156-2.05-2.08-2.124-5.906h20.43v-2.124q0-8.123-3.375-12.63-3.345-4.498-9.466-4.5zm138.1 0 .001.004q-6.5 0-10.09 3.968-3.562 3.969-3.564 11.22v3.656q0 6.97 3.721 10.75c3.721 3.78 5.981 3.78 10.5 3.781q3.03 0 6.03-1.25 3-1.28 5.407-3.595l-4.188-4.188a11.1 11.1 0 0 1-3.407 2.187c-1.906.781-2.55.782-3.842.782q-3.876 0-6.03-2.156-2.052-2.08-2.125-5.906h20.43v-2.124q0-8.123-3.375-12.63-3.345-4.5-9.469-4.5zm241.6.001-.001.003q-6.373 0-9.873 3.655c-3.5 3.655-3.5 5.875-3.501 10.31v5.281q0 6.72 3.5 10.44 3.501 3.687 9.876 3.687 6.374 0 9.876-3.656 3.5-3.687 3.5-10.38v-5.375q0-6.656-3.5-10.31c-3.5-3.654-5.625-3.654-9.876-3.655zm-466.3.003a9.6 9.6 0 0 0-5.376 1.594q-1.91 1.266-3.249 3.378v-4.503h-6.375v32.44h6.375v-20.53q0-3 1.688-4.657 1.72-1.655 4.844-1.655 3.25 0 5 1.875 1.78 1.876 1.781 5.313v19.66h6.375v-19.69q-.001-6.313-2.906-9.75-2.876-3.47-8.156-3.469zm192 0q-2.905 0-5.281 1.563-1.877 1.21-3.188 3.24v-4.333h-6.375v45.63h6.375v-17.33a8.4 8.4 0 0 0 2.875 3.176q2.25 1.437 5.281 1.437 5.344 0 8.279-3.438 2.94-3.436 2.94-9.656v-7.062q-.001-6.313-2.846-9.75-2.842-3.47-8.061-3.469zm96.66 0q-6.248 0-9.404 2.562-3.157 2.565-3.157 7.721 0 2.844.936 4.531.97 1.688 2.565 2.562 1.592.843 3.53 1.188 1.938.313 3.907.469 2.344.156 4.375.406 2.062.22 3.311.97 1.282.75 1.283 2.562 0 2.344-1.907 3.532-1.875 1.155-5.656 1.156-2.531 0-5.125-1-2.562-1-5.218-3l-3.782 4.658a18.9 18.9 0 0 0 6.28 3.813q3.534 1.25 7.847 1.25 6.812 0 10.19-2.594 3.406-2.594 3.406-7.812 0-3.187-1.062-5.032c-1.062-1.845-1.646-2.156-2.812-2.78a11.7 11.7 0 0 0-3.844-1.251 40 40 0 0 0-4.094-.47 137 137 0 0 1-3.967-.342c-1.844-.188-2.222-.396-2.972-.813q-1.125-.656-1.124-2.125 0-2.22 1.623-3.312 1.626-1.125 4.875-1.125 2.251 0 4.595.78 2.375.783 4.812 2.346l3.845-4.655a20.8 20.8 0 0 0-6.158-3.157q-3.28-1.03-7.094-1.031l-.003-.005zm33.08 0q-3.687 0-6.719 1.251-3 1.218-4.843 3.438l4.657 3.188c1-.74 2.12-1.301 3.312-1.657a12.4 12.4 0 0 1 3.779-.593q3.128 0 4.815 1.78 1.717 1.752 1.717 4.939v1.374h-8.937q-5.47 0-8.218 2.407-2.72 2.374-2.72 7.219 0 5.094 2.971 7.563 3 2.47 8.966 2.468 2.033 0 3.627-.438 1.625-.405 2.874-1.251a7.3 7.3 0 0 0 1.437-1.276v2.496h6.063v-20.84q0-5.75-3.343-8.906c-3.343-3.156-5.375-3.157-9.438-3.158zm210.4.156v6.687h6.688v-6.687zm-382.8.31-6.5.002 11.77 31.92-1.55 4.733q-.78 1.75-1.844 2.468-1.03.72-2.811.72h-1.283v6.123h1.283q3.812 0 6-1.31 2.187-1.283 3.343-4.627l13.81-40.03h-6.5l-7.557 23.08-8.162-23.08zm-180.3.002v32.44h6.375v-32.44zm515.7 0 10 32.44h4.812l7.906-22.41 7.907 22.41h4.812l9.999-32.44h-6.656l-5.751 23.16-8.092-23.16h-4.437l-8.096 23.16-5.751-23.16zm-451.8 5.25zq2.031 0 3.438.78a5 5 0 0 1 2.187 2.22q.75 1.469.75 3.531v8.72q0 2.092-.75 3.592c-.75 1.5-1.229 1.771-2.187 2.313q-1.406.78-3.438.781-3.156 0-4.906-1.906-1.717-1.936-1.717-5.47v-7.062q0-3.562 1.718-5.53 1.749-1.97 4.903-1.97zm53.69.029q2.971 0 4.721 2.22 1.78 2.22 2.061 6.156h-14.36q.154-3.825 1.985-6 2-2.375 5.593-2.375zm103.3.001q3.156 0 4.875 1.97 1.75 1.97 1.75 5.53v7.031q0 3.5-1.75 5.438-1.719 1.907-4.875 1.907-2.03 0-3.469-.782a5.23 5.23 0 0 1-2.156-2.25q-.75-1.468-.75-3.562v-8.843q0-2.063.75-3.5a5.1 5.1 0 0 1 2.156-2.187q1.438-.75 3.469-.75zm34.78 0q2.969 0 4.717 2.22 1.78 2.219 2.064 6.156h-14.36q.154-3.825 1.985-6 2-2.375 5.594-2.376m151.6 0q2.969 0 4.718 2.221 1.78 2.22 2.062 6.155h-14.36q.154-3.825 1.985-6 2-2.375 5.594-2.375v-.001zm90.03.315h.003q3.343 0 5.155 2.061 1.844 2.063 1.844 5.843v5.376q0 3.78-1.844 5.874-1.814 2.094-5.158 2.093-3.312 0-5.156-2.093c-1.844-2.093-1.843-3.352-1.843-5.874v-5.376q0-3.78 1.843-5.843 1.845-2.06 5.156-2.06m-220 7.531v6.063h21v-6.063zm73.28 5.25h8.906v6.125q0 1.656-1.812 2.44-1.81.78-5.436.781-3.314 0-4.97-1.188c-1.656-1.188-1.656-2.01-1.657-3.656q0-2.28 1.251-3.375 1.25-1.125 3.718-1.125zm212.6 7.374v17.06l6.687-6.938v-10.12h-6.687zm-501.3 41.25v37q0 4.092 2 6.343 2 2.25 5.594 2.25h3.75v-6.064h-3q-.938 0-1.471-.657-.5-.656-.5-1.812v-37.06zm18.53 0v6.375h6.375v-6.375zm47.94 0v6.375h6.375v-6.375zm16.91 3.56v9.438h-3.344v5.751h3.343v18.25q0 4.156 1.783 6.375 1.812 2.22 5.812 2.22h3.687v-6.065h-3.063q-.908 0-1.374-.657-.47-.656-.47-1.812v-18.31h4.907v-5.751h-4.907v-9.437h-6.374zm107.8 0v9.438h-3.343v5.751h3.343v18.25q0 4.156 1.781 6.375 1.813 2.22 5.812 2.22h3.687v-6.065h-3.063q-.906 0-1.374-.657-.47-.656-.469-1.812v-18.31h4.906v-5.751h-4.906v-9.437h-6.375zm154.3 8.96v.003q-6.5 0-10.1 3.97-3.562 3.967-3.561 11.22v3.655q0 6.97 3.719 10.75 3.717 3.783 10.5 3.781 3.03 0 6.031-1.25 3-1.281 5.407-3.593l-4.188-4.188q-1.5 1.405-3.406 2.187-1.905.78-3.844.782-3.875 0-6.032-2.156-2.05-2.08-2.124-5.908h20.44v-2.124q0-8.124-3.375-12.63-3.344-4.5-9.467-4.5zm-52.53.003q-2.938 0-5.376 1.592-1.911 1.266-3.249 3.38v-4.505h-6.375v32.44h6.375v-20.53q0-3 1.688-4.657 1.717-1.657 4.843-1.657 3.094 0 4.783 1.875 1.688 1.877 1.689 5.313v19.66h6.375v-19.69l-.001-.221h.001q0-3.312 1.625-5.125c1.626-1.813 2.614-1.813 4.592-1.812q3.25 0 5.001 1.875 1.78 1.875 1.781 5.312v19.66h6.375v-19.69q0-6.312-2.906-9.75-2.874-3.467-8.155-3.467-3.032 0-5.531 1.75-2.37 1.657-3.898 4.66a10.9 10.9 0 0 0-1.696-2.943q-2.812-3.467-7.938-3.467l-.001-.003zm85.81 0q-6.25 0-9.407 2.563-3.157 2.561-3.157 7.717 0 2.845.939 4.532.969 1.688 2.562 2.562 1.594.845 3.532 1.188 1.937.313 3.905.469 2.344.156 4.374.407 2.063.218 3.313.967 1.28.75 1.28 2.562 0 2.345-1.906 3.533-1.875 1.155-5.657 1.156-2.53 0-5.124-1-2.562-.999-5.218-3l-3.782 4.657a18.9 18.9 0 0 0 6.281 3.813q3.53 1.25 7.843 1.251 6.812 0 10.19-2.594 3.407-2.596 3.407-7.815 0-3.186-1.062-5.029c-1.062-1.843-1.646-2.158-2.812-2.783a11.7 11.7 0 0 0-3.844-1.25 40 40 0 0 0-4.094-.467 149 149 0 0 1-3.97-.345q-1.843-.187-2.968-.813-1.125-.656-1.125-2.124 0-2.22 1.626-3.315 1.624-1.125 4.875-1.125 2.25 0 4.594.783 2.375.78 4.812 2.344l3.842-4.657q-2.875-2.125-6.155-3.155c-3.28-1.03-4.551-1.031-7.093-1.031zm-467.3.01q-6.5 0-10.09 3.97-3.562 3.967-3.564 11.22v3.655q0 6.97 3.718 10.75 3.72 3.783 10.5 3.782 3.032 0 6.032-1.25a17.9 17.9 0 0 0 5.407-3.594l-4.187-4.188q-1.5 1.405-3.407 2.187t-3.845.783q-3.875-.001-6.029-2.156-2.05-2.08-2.123-5.906h20.43v-2.124q0-8.126-3.375-12.62-3.345-4.5-9.469-4.5l.001-.008zm68.59 0q-2.906 0-5.279 1.563-1.88 1.209-3.189 3.237v-4.333h-6.375v45.63h6.375v-17.33a8.4 8.4 0 0 0 2.874 3.177q2.25 1.437 5.282 1.437 5.343 0 8.279-3.438 2.939-3.436 2.938-9.656v-7.063q0-6.312-2.843-9.75-2.841-3.467-8.061-3.466l-.001-.007zm67.66 0q-6.688 0-10.38 3.655-3.655 3.627-3.655 10.28v5.342q0 6.72 3.655 10.41 3.688 3.687 10.38 3.687 3.78 0 6.842-1.314 3.094-1.343 4.906-3.779l-4.594-4.437a9.4 9.4 0 0 1-3.186 2.562 8.7 8.7 0 0 1-3.876.907q-3.687 0-5.717-2.096-2.03-2.092-2.032-5.937v-5.34q0-3.751 2.032-5.815c2.032-2.064 3.26-2.062 5.717-2.06q2.033 0 3.876.841a9.2 9.2 0 0 1 3.189 2.407l4.591-4.125q-1.812-2.5-4.875-3.844c-3.063-1.344-4.332-1.343-6.873-1.343zm85.34 0q-6.376 0-9.876 3.655c-3.5 3.656-3.5 5.875-3.5 10.31v5.282q0 6.72 3.5 10.44 3.5 3.687 9.876 3.687c6.376 0 7.542-1.22 9.876-3.658q3.5-3.686 3.5-10.37v-5.376q0-6.657-3.5-10.31c-3.5-3.653-5.626-3.655-9.876-3.655v-.004zm91.22 0q-6.688 0-10.38 3.655-3.655 3.627-3.655 10.28v5.342q0 6.72 3.655 10.41 3.688 3.687 10.38 3.687 3.78 0 6.842-1.314 3.094-1.343 4.906-3.779l-4.592-4.437a9.4 9.4 0 0 1-3.188 2.562 8.7 8.7 0 0 1-3.876.907q-3.687 0-5.717-2.096-2.032-2.092-2.032-5.937v-5.34q0-3.751 2.032-5.815c2.032-2.064 3.26-2.062 5.717-2.06q2.033 0 3.876.841a9.2 9.2 0 0 1 3.188 2.407l4.592-4.125q-1.812-2.5-4.875-3.844c-3.063-1.344-4.332-1.343-6.872-1.343zm31.22 0q-6.373 0-9.873 3.655c-3.5 3.655-3.5 5.875-3.501 10.31v5.282q0 6.72 3.501 10.44 3.5 3.687 9.876 3.687 6.373 0 9.873-3.658 3.5-3.686 3.501-10.37v-5.376q0-6.657-3.501-10.31-3.5-3.655-9.875-3.655l-.001-.004zm-94.4.46-6.375.003v19.72q0 6.28 2.908 9.75 2.938 3.438 8.312 3.437 3.531 0 5.72-1.72 1.718-1.37 2.625-3.016v4.267h6.343v-32.44h-6.343v20.47q0 3.03-1.721 4.717-1.685 1.658-4.84 1.658c-3.155 0-3.74-.615-4.907-1.844q-1.72-1.875-1.721-5.28v-19.72zm-231.6.003 10.77 15.96-11.27 16.48h7.062l7.695-11.22 7.368 11.22h7.062l-11.14-16.25 10.64-16.19h-7.091l-6.867 11.13-7.134-11.13zm89.06 0v32.44h6.375v-32.44zm47.94 0v32.44h6.375v-32.44zm-155 5.282zc1.98 0 3.55.74 4.718 2.218q1.78 2.221 2.062 6.158h-14.36q.155-3.825 1.986-6 1.999-2.374 5.591-2.376zm66.5 0h.003q3.156 0 4.875 1.97 1.749 1.968 1.749 5.53v7.033q0 3.5-1.75 5.436-1.718 1.907-4.874 1.907-2.03 0-3.47-.78a5.22 5.22 0 0 1-2.155-2.25q-.75-1.47-.75-3.562v-8.845q0-2.062.75-3.501a5.1 5.1 0 0 1 2.155-2.187q1.438-.75 3.467-.75zm367.5 0zq2.967 0 4.715 2.218 1.78 2.221 2.064 6.158h-14.36q.156-3.825 1.986-6 2-2.374 5.593-2.376zm-212.4.314q3.345 0 5.156 2.06 1.845 2.063 1.844 5.843v5.376q0 3.78-1.844 5.874-1.812 2.096-5.156 2.096-3.312-.001-5.156-2.096-1.845-2.092-1.843-5.874v-5.376q0-3.779 1.843-5.842 1.844-2.062 5.156-2.061m122.4 0q3.343 0 5.155 2.06 1.844 2.063 1.844 5.843v5.376q0 3.78-1.844 5.874-1.812 2.096-5.155 2.096-3.312-.001-5.156-2.096-1.844-2.092-1.844-5.874v-5.376q0-3.779 1.844-5.842c1.844-2.063 2.948-2.062 5.156-2.061m143.7 20.16v6.687h6.687v-6.687zm1118 568.8c-14.87 0-27 12.13-27 27v52.71l-98.44 54.92c-4.506 2.51-2.722 9.37 2.436 9.368h96v53c0 14.87 12.13 27 27 27h970c14.87 0 27-12.13 27-27v-170c0-14.87-12.13-27-27-27h-970zm0 10h970c9.505 0 17 7.494 17 17v170c0 9.505-7.494 17-17 17h-970c-9.505 0-17-7.494-17-17v-58a5 5 0 0 0-5.001-5.002h-81.78l84.22-46.99a5 5 0 0 0 2.565-4.367v-55.65c0-9.504 7.494-17 17-17zm105.3 38c-45.46 0-82.29 36.83-82.29 82.29a81.84 81.84 0 0 0 11.17 41.37c1.6 2.743 4.657 4.34 7.828 4.34h126.6c3.172 0 6.229-1.597 7.828-4.34 7.115-12.14 11.17-26.29 11.17-41.37 0-45.46-36.83-82.29-82.29-82.29zm605.1 8q-5.205 0-7.871 2.793c-2.666 2.793-2.665 4.427-2.666 7.693v16.78q0 4.826 2.615 7.668 2.64 2.82 7.922 2.818 5.23 0 7.872-2.793 2.666-2.793 2.666-7.693v-16.78q-.001-4.927-2.666-7.693-2.64-2.793-7.872-2.792m-299.5.433v36.94h6.955v-14.85h4.22l8.325 14.85h8.43l-8.821-15.21a9.2 9.2 0 0 0 2.423-1.014q2.285-1.37 3.552-3.86 1.296-2.487 1.295-5.812 0-3.327-1.267-5.814-1.27-2.49-3.58-3.86-2.286-1.37-5.36-1.37h-16.17zm-144.9.023v23.56q0 6.55 3.375 10.16 3.403 3.58 9.573 3.58 6.195 0 9.599-3.58 3.402-3.606 3.403-10.16v-23.56h-5.18v23.74q0 4.038-2.058 6.246-2.03 2.21-5.764 2.21-3.706 0-5.736-2.21-2.032-2.208-2.032-6.246v-23.74l-5.18-.001zm60.79 0v5.18h5.18v-5.18zm200.2 0v29.94q0 3.325 1.752 5.155 1.752 1.829 4.925 1.828h3.555v-6.703h-1.168q-1.015 0-1.575-.531-.533-.534-.533-1.472v-28.21h-6.957zm73.45 0v5.18h5.18v-5.18zm57.46 0-5.257 3.504v5.358l5.257-3.226v31.28h5.18v-36.92l-5.18-.001zm14.37 0v19.45h4.721q.94-1.37 2.186-2.133 1.243-.76 2.59-.761 2.487 0 3.834 1.65 1.371 1.65 1.371 4.672v3.097q0 3.021-1.371 4.698-1.346 1.65-3.835 1.65-2.157 0-3.502-1.117-1.347-1.143-1.628-3.173v-.027h-5.18v.027q.688 4.417 3.379 6.854 2.716 2.412 6.93 2.413 4.951 0 7.667-2.946 2.718-2.97 2.719-8.38v-3.096q0-5.384-2.641-8.33-2.641-2.969-7.465-2.968-1.244 0-2.438.432a7.3 7.3 0 0 0-2.159 1.217v-8.303h13.63v-4.926h-18.81zm104.6 0q-3.377 0-4.978 1.753c-1.601 1.753-1.6 2.912-1.6 5.23v3.58h-2.792v4.418h2.792v21.94h5.18v-21.94h5.206v-4.418h-5.206v-3.633q0-.81.356-1.396.356-.609 1.142-.609h3.708v-4.926h-3.809zm-234.2 2.894v7.668h-2.714v5.941h2.714v13.56q0 3.375 1.576 5.18 1.573 1.802 5.104 1.802h3.504v-6.703h-1.727q-.735 0-1.116-.533-.38-.532-.38-1.474v-11.83h3.223v-5.94h-3.226v-7.67zm297.6 0v7.668h-2.716v4.671h2.716v14.83q0 3.375 1.449 5.18 1.472 1.802 4.723 1.802h2.996v-4.926h-2.489q-.735 0-1.116-.533c-.381-.533-.38-.844-.38-1.47v-14.88h3.985v-4.67h-3.986v-7.67h-5.18zm-130.1 1.576q2.846 0 4.09 1.471 1.27 1.473 1.27 4.088v16.78q0 2.59-1.27 4.088-1.245 1.473-4.09 1.474-2.842 0-4.112-1.474-1.245-1.496-1.244-4.088v-16.78q0-2.615 1.244-4.088 1.27-1.47 4.112-1.47m-292.5 2.21h8.66q1.649 0 2.615 1.193.99 1.192.99 3.148-.025 1.955-1.015 3.146-.964 1.194-2.59 1.194h-8.66zm-312.6 3.148c4.2 0 7.6 2.887 8.657 6.773-.315.657-.745 1.198-1 1.913l-2.629 7.913c-1.457 1-3.142 1.717-5.027 1.717-5.052.01-9.149-4.093-9.144-9.145 0-5.057 4.086-9.17 9.144-9.17zm271.7.279q-4.215 0-6.549 2.818-2.31 2.793-2.31 7.922v5.814q0 5.103 2.361 7.922 2.387 2.793 6.753 2.794 2.793 0 4.519-1.396 1.374-1.116 2.108-2.451v3.365q0 2.996-1.626 4.62-1.624 1.65-4.594 1.65a6.2 6.2 0 0 1-2.971-.76q-1.398-.762-2.413-2.159l-3.504 3.173q1.294 2.006 3.63 3.098 2.362 1.116 5.332 1.118 5.41 0 8.354-3.022 2.97-2.995 2.969-8.48v-25.57h-5.18v3.308a8.7 8.7 0 0 0-2.613-2.546q-1.93-1.218-4.266-1.219h-.001zm192.1.074q-5.154 0-7.972 2.184-2.818 2.183-2.818 6.17 0 2.513.812 3.986.813 1.447 2.184 2.184 1.372.71 3.022 1.04 1.681.304 3.376.532 1.676.23 3.174.38 1.498.13 2.41.56.94.432.941 1.6-.001.965-1.346 1.524-1.347.534-3.784.535-1.88 0-3.96-.662a16.8 16.8 0 0 1-3.987-1.88l-4.29 5.359q2.259 1.701 5.458 2.666 3.225.938 6.78.938 5.38.001 8.328-2.284 2.97-2.286 2.971-6.425 0-2.714-.914-4.264-.915-1.55-2.413-2.313a10.6 10.6 0 0 0-3.25-1.04 66 66 0 0 0-3.529-.508q-1.522-.178-2.843-.33-1.32-.176-2.133-.559-.813-.38-.813-1.143 0-.888 1.168-1.345 1.17-.481 3.275-.483 1.728 0 3.606.533c1.878.533 2.454.856 3.605 1.5l4.138-5.054q-2.31-1.624-5.256-2.514a20.3 20.3 0 0 0-5.941-.89zm53.9 0q-5.079 0-7.642 2.082-2.565 2.085-2.565 6.272 0 2.31.762 3.68.786 1.372 2.082 2.082 1.295.687 2.87.967 1.573.255 3.174.38 1.904.128 3.554.33 1.677.18 2.692.789 1.04.609 1.04 2.082 0 1.905-1.548 2.87-1.522.937-4.595.937-2.056 0-4.164-.813-2.082-.812-4.24-2.436l-3.072 3.784a15.4 15.4 0 0 0 5.104 3.098q2.87 1.015 6.374 1.015 5.535 0 8.276-2.108 2.768-2.107 2.768-6.347 0-2.59-.864-4.09-.863-1.497-2.285-2.257a9.5 9.5 0 0 0-3.123-1.017 32 32 0 0 0-3.325-.38 114 114 0 0 1-3.226-.28q-1.5-.15-2.411-.66-.915-.532-.915-1.727 0-1.804 1.32-2.69 1.32-.915 3.961-.915 1.83 0 3.732.633 1.93.636 3.91 1.906l3.123-3.784a16.9 16.9 0 0 0-5-2.564q-2.668-.838-5.765-.838zm171.5 0q-2.997 0-5.46 1.015-2.438.99-3.935 2.793l3.782 2.59a8.7 8.7 0 0 1 2.692-1.346c.993-.318 2.029-.48 3.072-.482q2.54 0 3.91 1.447 1.395 1.422 1.397 4.012v1.116h-7.263q-4.443 0-6.677 1.956-2.21 1.93-2.209 5.864 0 4.141 2.411 6.146 2.437 2.005 7.288 2.005 1.65 0 2.946-.355a7.3 7.3 0 0 0 2.335-1.015 6 6 0 0 0 1.169-1.037v2.027h4.925v-16.94q0-4.673-2.716-7.236c-2.716-2.564-4.366-2.564-7.668-2.565zm27.75 0q-5.078 0-7.642 2.082-2.565 2.085-2.565 6.272 0 2.31.763 3.68.788 1.372 2.083 2.082 1.293.687 2.867.967 1.575.255 3.174.38 1.782.115 3.555.33 1.676.18 2.691.789 1.043.609 1.043 2.082 0 1.905-1.55 2.87-1.524.937-4.595.937-2.056 0-4.166-.813-2.08-.812-4.239-2.436l-3.072 3.784a15.4 15.4 0 0 0 5.102 3.098q2.871 1.015 6.375 1.015 5.535 0 8.278-2.108 2.767-2.107 2.767-6.347 0-2.59-.864-4.09-.863-1.497-2.284-2.257a9.5 9.5 0 0 0-3.123-1.017 32 32 0 0 0-3.328-.38 120 120 0 0 1-3.224-.28q-1.498-.15-2.413-.66-.914-.532-.914-1.727 0-1.804 1.32-2.69 1.32-.915 3.96-.915 1.83 0 3.733.633 1.93.636 3.913 1.906l3.123-3.784a16.9 16.9 0 0 0-5.004-2.564q-2.667-.838-5.764-.838zm44.76 0q-5.281 0-8.2 3.224-2.896 3.225-2.896 9.114v2.972q0 5.663 3.022 8.735c3.022 3.072 4.859 3.072 8.531 3.072q2.463 0 4.9-1.015a14.5 14.5 0 0 0 4.393-2.92l-3.403-3.402a9 9 0 0 1-2.767 1.775 8.2 8.2 0 0 1-3.123.636q-3.148 0-4.9-1.752-1.666-1.69-1.724-4.8h16.6v-1.724q0-6.6-2.742-10.26-2.717-3.656-7.695-3.656zm29.61 0a7.5 7.5 0 0 0-4.292 1.32q-1.524 1.044-2.59 2.722v-3.66h-5.18v26.36h5.18v-16.68q0-2.412 1.348-3.757 1.37-1.37 3.832-1.37 1.373 0 2.414.429 1.041.433 1.727 1.27l3.375-4.57a7.1 7.1 0 0 0-2.565-1.522q-1.447-.534-3.249-.534zm-442.5 0zq-5.535 0-8.58 3.224-3.023 3.225-3.023 9.114v2.972q0 5.637 3.148 8.735 3.174 3.072 8.912 3.072 2.615 0 5.18-1.015a15.4 15.4 0 0 0 4.623-2.92l-4.547-4.038a8.6 8.6 0 0 1-2.487 1.422 8.3 8.3 0 0 1-2.769.482q-2.715 0-4.239-1.472-1.21-1.19-1.443-3.174h16.17v-1.726q0-6.981-2.87-10.82-2.844-3.859-8.076-3.86zm27.12 0q-5.153 0-7.972 2.184-2.819 2.183-2.817 6.17 0 2.513.81 3.986.813 1.447 2.184 2.184 1.372.71 3.022 1.04 1.676.304 3.378.533 1.675.23 3.173.381 1.498.13 2.411.56.94.43.94 1.6 0 .963-1.345 1.523-1.346.534-3.784.533-1.878 0-3.96-.66a16.8 16.8 0 0 1-3.986-1.88l-4.291 5.358q2.258 1.701 5.457 2.666 3.225.94 6.78.94 5.385 0 8.33-2.286 2.97-2.286 2.969-6.423 0-2.716-.915-4.266c-.915-1.55-1.413-1.804-2.41-2.312a10.6 10.6 0 0 0-3.25-1.04 66 66 0 0 0-3.53-.508l-2.844-.33q-1.32-.177-2.133-.56-.81-.38-.813-1.141 0-.888 1.17-1.345 1.166-.483 3.273-.484 1.727 0 3.608.533 1.878.533 3.605 1.5l4.138-5.053q-2.31-1.625-5.257-2.514a20.3 20.3 0 0 0-5.94-.889zm-171.9.001q-5.079 0-7.644 2.082-2.564 2.085-2.564 6.272 0 2.31.763 3.68.786 1.372 2.08 2.082 1.295.687 2.87.967 1.575.255 3.174.38 1.782.115 3.554.33 1.676.18 2.691.789 1.042.609 1.042 2.082 0 1.905-1.548 2.87-1.524.937-4.597.937-2.055 0-4.163-.813-2.08-.812-4.239-2.436l-3.072 3.784a15.4 15.4 0 0 0 5.102 3.098q2.87 1.015 6.372 1.015 5.535 0 8.278-2.108 2.767-2.107 2.767-6.347 0-2.59-.863-4.09-.863-1.497-2.285-2.257a9.5 9.5 0 0 0-3.123-1.017 32 32 0 0 0-3.327-.38 114 114 0 0 1-3.224-.28q-1.498-.15-2.41-.66-.915-.532-.915-1.727 0-1.804 1.32-2.69 1.32-.915 3.961-.915 1.83 0 3.732.633 1.93.637 3.91 1.906l3.123-3.784a16.9 16.9 0 0 0-5-2.563q-2.667-.837-5.765-.838zm42.71 0a7.8 7.8 0 0 0-4.367 1.295q-1.552 1.027-2.64 2.745v-3.66h-5.18v26.36h5.18v-16.68q0-2.437 1.37-3.783 1.397-1.346 3.936-1.345 2.64 0 4.062 1.522 1.448 1.523 1.449 4.317v15.97h5.18v-16q0-5.13-2.363-7.922-2.335-2.818-6.627-2.818zm-25.24.377v26.36h5.18v-26.36zm171.3 0v16.28q0 4.975 2.31 7.72 2.312 2.742 6.552 2.742 2.64 0 4.292-1.575 1.29-1.215 1.979-2.654v3.848h6.933v-26.36h-6.933v15.87q0 2.005-1.065 3.097-1.043 1.066-2.997 1.068-1.956 0-3.047-1.042-1.066-1.066-1.068-2.971v-16.02h-6.957zm102.4 0v26.36h5.18v-26.36zm126.1 0 8.752 12.97-9.157 13.39h5.736l6.25-9.117 5.99 9.117h5.736l-9.053-13.2 8.647-13.16h-5.764l-5.58 9.042-5.793-9.042h-5.766zm-347.9 4.267q1.65 0 2.795.633a4.07 4.07 0 0 1 1.775 1.805q.61 1.193.61 2.87v7.082q0 1.7-.61 2.92a4.33 4.33 0 0 1-1.775 1.88q-1.145.633-2.795.632-2.564 0-3.986-1.547-1.396-1.575-1.396-4.444v-5.738q0-2.895 1.396-4.494 1.42-1.6 3.986-1.6zm488.3.025q2.413 0 3.835 1.802 1.448 1.803 1.674 5.004h-11.67q.125-3.108 1.614-4.875 1.624-1.93 4.544-1.931zm-412.9 1.65q1.955.001 3.098 1.27 1.142 1.245 1.421 3.505l.077.61h-9.872q.085-2.486 1.367-3.885 1.395-1.497 3.908-1.498zm-325.9.163c.696.017 1.387.14 2.046.364a6.864 6.864 0 0 1 4.343 8.686l-17.51 52.57c3.885 3.343 6.428 8.258 6.428 13.83 0 3.343-.97 6.456-2.543 9.142h-31.49c-1.571-2.714-2.543-5.8-2.543-9.142 0-9.686 7.571-17.54 17.11-18.17l17.52-52.57a6.84 6.84 0 0 1 6.639-4.706zm664.5 8.827h7.236v4.976q.001 1.347-1.474 1.98-1.472.635-4.418.636-2.691 0-4.037-.965-1.345-.966-1.345-2.971 0-1.854 1.015-2.742 1.015-.915 3.022-.914zm-728.6 2.622c5.052-.01 9.149 4.092 9.144 9.144.01 5.051-4.092 9.148-9.144 9.142-5.052.01-9.149-4.09-9.142-9.142-.01-5.052 4.09-9.149 9.142-9.144m82.32 0c5.052-.01 9.148 4.092 9.142 9.144.01 5.052-4.09 9.15-9.142 9.142-3.257 0-5.972-1.8-7.601-4.343l4.428-13.31c1-.372 2.03-.628 3.173-.628zm157 36.89v36.92h5.18v-16.76q0-2.412 1.371-3.732 1.395-1.32 3.935-1.32 2.641 0 4.064 1.523 1.447 1.523 1.447 4.317v15.97h5.18v-16q0-5.129-2.361-7.922-2.335-2.82-6.627-2.818a7.8 7.8 0 0 0-4.368 1.295q-1.553 1.01-2.64 2.69v-14.17h-5.18zm116.7 0v36.92h5.18v-16.76q0-2.412 1.37-3.732 1.396-1.32 3.936-1.32 2.641 0 4.064 1.523 1.447 1.523 1.447 4.317v15.97h5.18v-16q0-5.129-2.361-7.922-2.335-2.82-6.627-2.818a7.8 7.8 0 0 0-4.368 1.295q-1.552 1.01-2.64 2.69v-14.17h-5.18zm118.3 0v5.181h5.181v-5.18zm236.4 0v5.181h5.181v-5.18zm97.78 0v27.45h5.18v-27.45zm-585.4 2.895v7.667h-2.717v4.673h2.717v14.83q0 3.377 1.447 5.18 1.473 1.803 4.723 1.803h2.996v-4.926h-2.487q-.735 0-1.118-.533-.38-.532-.38-1.472v-14.88h3.985v-4.673h-3.986v-7.667h-5.18zm116.7 0v7.667h-2.717v4.673h2.717v14.83q0 3.377 1.447 5.18 1.473 1.803 4.723 1.803h2.996v-4.926h-2.487q-.735 0-1.118-.533-.38-.532-.38-1.472v-14.88h3.985v-4.673h-3.986v-7.667h-5.18zm354.6 0v7.667h-2.717v4.673h2.717v14.83q0 3.377 1.447 5.18 1.472 1.803 4.723 1.803h2.996v-4.926h-2.489q-.735 0-1.116-.533-.38-.532-.38-1.472v-14.88h3.985v-4.673h-3.986v-7.667h-5.18zm-708.1 5.934c5.052-.01 9.149 4.09 9.142 9.142.01 5.052-4.09 9.148-9.142 9.144-5.052.01-9.149-4.09-9.144-9.144-.01-5.052 4.092-9.148 9.144-9.142m109.7 0c5.051-.01 9.149 4.091 9.144 9.142.01 5.052-4.092 9.148-9.144 9.144-5.052 0-9.148-4.092-9.142-9.144-.01-5.052 4.09-9.149 9.142-9.142m428.5 1.276q-4.217 0-6.549 2.818-2.312 2.793-2.312 7.922v5.815q0 5.103 2.361 7.922 2.386 2.792 6.754 2.792 2.793 0 4.519-1.396 1.374-1.115 2.108-2.448v3.362q0 2.996-1.626 4.622-1.625 1.65-4.595 1.65a6.2 6.2 0 0 1-2.971-.762q-1.396-.762-2.413-2.158l-3.504 3.174q1.296 2.005 3.631 3.097 2.36 1.118 5.332 1.118 5.408 0 8.354-3.022 2.97-2.996 2.971-8.48v-25.57h-5.18v3.308a8.7 8.7 0 0 0-2.616-2.546q-1.93-1.22-4.266-1.22zm-246.7.077q-2.996 0-5.459 1.017-2.437.99-3.936 2.792l3.784 2.59a8.7 8.7 0 0 1 2.691-1.345c.993-.32 2.03-.482 3.073-.484q2.54 0 3.91 1.447 1.396 1.423 1.396 4.012v1.118h-7.261q-4.443 0-6.678 1.954-2.21 1.929-2.209 5.865 0 4.14 2.413 6.145 2.437 2.005 7.288 2.005 1.65 0 2.944-.354a7.3 7.3 0 0 0 2.336-1.017 6 6 0 0 0 1.168-1.037v2.027h4.926v-16.94q0-4.671-2.717-7.236c-2.717-2.565-4.367-2.565-7.667-2.565zm30.44 0a7.8 7.8 0 0 0-4.367 1.295q-1.553 1.027-2.641 2.745v-3.66h-5.18v26.36h5.18v-16.68q0-2.437 1.371-3.781 1.396-1.347 3.936-1.346 2.64 0 4.062 1.523 1.447 1.523 1.447 4.317v15.97h5.18v-16q0-5.13-2.361-7.922-2.336-2.82-6.627-2.818zm88.89 0a7.5 7.5 0 0 0-4.289 1.32q-1.525 1.043-2.59 2.72v-3.66h-5.181v26.36h5.181v-16.68q.001-2.412 1.346-3.757 1.371-1.371 3.834-1.371 1.37 0 2.411.432c.673.27 1.268.707 1.727 1.269l3.378-4.57a7.1 7.1 0 0 0-2.565-1.524q-1.448-.534-3.25-.534zm19.73 0q-5.18 0-8.023 2.969c-2.843 2.969-2.842 4.774-2.842 8.38v4.292q0 5.459 2.842 8.48 2.844 2.996 8.023 2.996c5.179 0 6.128-.991 8.024-2.971q2.845-2.996 2.845-8.43v-4.367q0-5.41-2.845-8.38-2.843-2.97-8.024-2.97m82.67 0a7.8 7.8 0 0 0-4.368 1.295q-1.553 1.027-2.641 2.745v-3.66h-5.18v26.36h5.18v-16.68q0-2.437 1.371-3.781 1.396-1.347 3.936-1.346 2.64 0 4.062 1.523 1.447 1.523 1.447 4.317v15.97h5.18v-16q0-5.13-2.36-7.922-2.336-2.82-6.627-2.818zm69.19 0q-5.282 0-8.203 3.226-2.895 3.223-2.893 9.114v2.97q0 5.662 3.022 8.736 3.022 3.07 8.53 3.072 2.464 0 4.9-1.015a14.5 14.5 0 0 0 4.395-2.92l-3.404-3.403a9 9 0 0 1-2.767 1.777c-.99.414-2.049.63-3.122.635q-3.15 0-4.901-1.752-1.666-1.69-1.726-4.799h16.6v-1.727q0-6.6-2.742-10.26-2.717-3.656-7.692-3.656zm53.55 0q-5.435 0-8.43 2.969-2.971 2.947-2.971 8.355v4.342q0 5.458 2.969 8.455 2.997 2.996 8.43 2.996 3.073 0 5.561-1.066 2.514-1.092 3.986-3.072l-3.731-3.605a7.7 7.7 0 0 1-2.59 2.082 7.05 7.05 0 0 1-3.148.736q-2.996 0-4.648-1.702-1.65-1.7-1.649-4.824v-4.342q0-3.046 1.649-4.723c1.649-1.677 2.65-1.676 4.648-1.676q1.65 0 3.148.686a7.5 7.5 0 0 1 2.59 1.956l3.731-3.352q-1.473-2.031-3.96-3.123-2.49-1.092-5.585-1.093zm25.59 0q-5.281 0-8.2 3.226-2.896 3.223-2.896 9.114v2.97q0 5.662 3.022 8.736 3.021 3.07 8.531 3.072 2.463 0 4.9-1.015a14.5 14.5 0 0 0 4.393-2.92l-3.401-3.403a9 9 0 0 1-2.767 1.777 8.2 8.2 0 0 1-3.124.635q-3.148 0-4.9-1.752-1.666-1.69-1.726-4.799h16.6v-1.727q0-6.6-2.741-10.26-2.716-3.656-7.695-3.656zm29.61 0q-2.361 0-4.292 1.27-1.524.984-2.59 2.632v-3.522h-5.18v37.07h5.18v-14.08a6.8 6.8 0 0 0 2.336 2.578q1.829 1.168 4.291 1.168 4.342 0 6.73-2.792 2.386-2.794 2.386-7.846v-5.74q0-5.128-2.31-7.921-2.31-2.82-6.549-2.818zm56.34 0q-5.18 0-8.023 2.969c-2.843 2.969-2.843 4.774-2.843 8.38v4.292q0 5.459 2.843 8.48 2.844 2.996 8.023 2.996c5.179 0 6.127-.991 8.024-2.971q2.843-2.995 2.843-8.43v-4.367q0-5.41-2.843-8.38-2.845-2.97-8.024-2.97m30.42 0a7.8 7.8 0 0 0-4.37 1.295q-1.55 1.027-2.638 2.745v-3.66h-5.18v26.36h5.18v-16.68q0-2.437 1.371-3.781 1.396-1.347 3.934-1.346 2.642 0 4.064 1.523 1.447 1.523 1.447 4.317v15.97h5.181v-16q0-5.13-2.363-7.922-2.334-2.82-6.626-2.818zm26.36 0q-5.08 0-7.645 2.083-2.563 2.082-2.562 6.27 0 2.31.76 3.682.788 1.37 2.083 2.083c.9.47 1.868.794 2.87.963q1.574.255 3.171.381a65 65 0 0 1 3.555.331q1.676.18 2.691.787 1.04.61 1.042 2.082 0 1.905-1.547 2.87-1.525.939-4.597.939-2.055 0-4.163-.812-2.084-.81-4.24-2.438l-3.074 3.782a15.4 15.4 0 0 0 5.105 3.098q2.87 1.015 6.372 1.015 5.535 0 8.278-2.106 2.767-2.106 2.767-6.349 0-2.589-.864-4.087c-.864-1.498-1.336-1.752-2.284-2.26a9.5 9.5 0 0 0-3.123-1.015 32 32 0 0 0-3.328-.379 113 113 0 0 1-3.224-.281q-1.498-.155-2.413-.66-.915-.534-.914-1.727 0-1.803 1.323-2.692 1.32-.915 3.96-.914 1.829 0 3.732.636 1.93.635 3.911 1.904l3.123-3.784a16.9 16.9 0 0 0-5.004-2.565q-2.665-.838-5.761-.838zm-358.8.38 8.124 26.36h3.911l6.425-18.2 6.422 18.2h3.911l8.124-26.36h-5.408l-4.67 18.81-6.579-18.81h-3.605l-6.574 18.81-4.674-18.81zm42.5 0v26.36h5.18v-26.36zm109.1 0 8.751 12.97-9.158 13.39h5.739l6.252-9.116 5.985 9.116h5.738l-9.051-13.2 8.646-13.16h-5.764l-5.578 9.045-5.796-9.045h-5.763zm127.3 0v26.36h5.181v-26.36zm-184.5 4.266q1.65 0 2.792.636a4.07 4.07 0 0 1 1.778 1.802q.61 1.194.61 2.87v7.084q0 1.7-.61 2.921-.61 1.216-1.778 1.878-1.143.634-2.792.634-2.565 0-3.986-1.548-1.396-1.573-1.396-4.443v-5.739q0-2.893 1.396-4.494 1.42-1.6 3.986-1.6zm42.53.025q2.412 0 3.832 1.803 1.448 1.802 1.676 5.001h-11.67q.124-3.108 1.611-4.875 1.626-1.929 4.547-1.929zm79.14 0q2.412 0 3.834 1.803 1.448 1.802 1.677 5.001h-11.67q.126-3.108 1.613-4.875 1.624-1.929 4.545-1.929zm27.9 0q2.565 0 3.961 1.601 1.424 1.599 1.424 4.494v5.713q0 2.843-1.424 4.418-1.395 1.548-3.959 1.547-1.65 0-2.82-.632a4.25 4.25 0 0 1-1.752-1.828q-.61-1.194-.61-2.896v-7.186q0-1.676.61-2.843c.387-.76 1-1.38 1.753-1.777q1.168-.61 2.817-.61zm58.04.252q2.717 0 4.19 1.676 1.5 1.676 1.498 4.748v4.368q0 3.072-1.497 4.77-1.475 1.704-4.191 1.705-2.69 0-4.19-1.704-1.496-1.7-1.496-4.771v-4.368q0-3.072 1.497-4.748c1.497-1.676 2.394-1.677 4.189-1.677zm-317 0zq2.717 0 4.191 1.674 1.499 1.676 1.497 4.75v4.366q0 3.073-1.499 4.772-1.472 1.702-4.189 1.704-2.69 0-4.19-1.704-1.497-1.7-1.497-4.772v-4.367q0-3.074 1.497-4.749 1.5-1.676 4.19-1.676zm-140.8 10.38h7.236v4.978q0 1.345-1.472 1.979-1.472.636-4.418.635-2.691 0-4.037-.965-1.346-.966-1.346-2.97 0-1.855 1.017-2.743 1.016-.914 3.02-.914m532.3 5.993v5.433h5.433v-5.433z"/>
  <path fill="#888" d="M1664 608v64h64c18.282 0 32 13.718 32 32v64c0 52.63 43.369 96 96 96h120.575a64 64 0 0 1-.001-64h-120.575c-18.281 0-31.999-13.718-31.999-32v-64c0-52.631-43.37-96-96-96zm495.008 143.982-8.729.098h-.01a16.9 16.9 0 0 0-7.441 2.585 16.9 16.9 0 0 0-5.97 6.575 16.94 16.94 0 0 0-1.857 7.758v11.573a5 5 0 1 0 10 0V768.98a7.01 7.01 0 0 1 3.219-5.893l.01-.01c3.244-1.836 7.227-1.095 10.778-1.095a5 5 0 1 0 0-9.999zm25.993.01a5 5 0 1 0 0 10h30a5 5 0 0 0 0-10zm55.999 0a5 5 0 0 0 0 9.999h30a5 5 0 0 0 0-9.999zm56 0a5 5 0 0 0 0 9.999h30a5 5 0 1 0 0-9.999zM2048 768c-35.347 0-64 28.654-64 64s28.653 64.001 64 64.001 64-28.654 64-64S2083.347 768 2048 768m292 2.13a5 5 0 0 0-5 5v30a5 5 0 1 0 10 0v-30a5 5 0 0 0-5-5m-284.843 23.8c2.99-.105 5.232 2.368 7.284 4.244 1.911 1.403 2.84 3.724 4.67 5.255 2.119 1.81 3.138 4.506 4.704 6.756.43 2.49.208 5.057 0 7.56-.283 2.563-1.787 4.805-2.052 7.343-1.385 1.292-1.215 3.546-2.869 4.712-1.549 1.593-3.956 2.267-6.095 2.848-2.596.281-5.559 1.927-4.88 4.975-.816 2.441.614 6.823-3.192 6.905-2.474 1.4-5.323 1.532-8.073 1.006-1.738.146-3.443-.657-3.101-2.657-.449-2.958.637-5.959-.356-8.852.42-2.644.447-2.913 3.543-6.419 2.864-.956 5.047-3.305 7.959-4.137 2.425-2.056 4.508-4.832 3.268-8.323-.28-4.33-4.576-5.33-8.02-5.313-2.925-.086-5.237 2.71-7.452 4.456-.814 2.486-1.32 5.313-3.267 7.154-2.29 1.524-4.954-.394-7.316.837-1.417.501-3.296.614-4.645 0-.395-2.184-1.82-4.667-.917-6.851.564-2.244 1.995-4.07 2.267-6.406 1.454-2.59 3.09-5.083 5.508-6.857.911-2.691 4.22-3.165 6.271-4.786 2.502-1.465 5.047-2.413 7.93-2.53 2.96-1.274 5.764-.396 8.83-.92m84.843 7.644a5 5 0 0 0-5 5v30a5 5 0 0 0 10 0v-30a5 5 0 0 0-5-5m200 24.557a5 5 0 0 0-5 5v30a5 5 0 1 0 10 0v-30a5 5 0 0 0-5-5m-291.271 23.407c2.176.056 4.379 1.022 5.668 2.797 1.644 1.892 3.422 4.048 3.054 6.739v2.95c-.436 3.186-2.644 5.69-5.435 7.056-2.362-.02-4.5 1.304-6.877.91-3.072-.158-4.382-3.553-6.264-5.482-1.68-.991-1.438-2.877-1.398-4.588.483-2.062.145-4.6 1.666-6.21 1.51-2.664 4.75-3.105 7.455-3.923a7.4 7.4 0 0 1 2.131-.25m91.272 8.036a5 5 0 0 0-5.002 5v30a5 5 0 1 0 10 0v-30a5 5 0 0 0-4.999-5M2340 882.13a5 5 0 0 0-5 5V895a7.1 7.1 0 0 1-.758 3.184s-.01.008-.01.011v.001a7.1 7.1 0 0 1-2.45 2.699l-.01.009a7 7 0 0 1-3.04 1.056h-.032c-.69.073-2.15-.116-4.352.047a5.001 5.001 0 0 0 .737 9.974c.788-.058 2.362.164 4.654-.076a16.9 16.9 0 0 0 7.431-2.587 16.9 16.9 0 0 0 5.965-6.578 16.94 16.94 0 0 0 1.857-7.743v-7.863a5 5 0 0 0-4.999-5zm-183.28 19.862a5 5 0 0 0 0 9.999h30a5 5 0 1 0 0-9.999zm56.001 0a5 5 0 1 0 0 10h30a5 5 0 0 0 0-10zm56 0a5 5 0 0 0 0 9.999h30a5 5 0 0 0 0-9.999z"/>
  <path fill="#753" d="M1213 215.4c-5.833 0-10.94 1.222-15.31 3.665-4.34 2.406-7.71 5.815-10.12 10.23q-3.61 6.563-3.61 15.42v22.53q0 8.805 3.61 15.42 3.608 6.618 10.12 10.28 6.564 3.609 15.31 3.609 8.75 0 15.26-3.609 6.563-3.665 10.17-10.28 3.609-6.617 3.609-15.42v-22.53c0-5.906-1.203-11.05-3.61-15.42q-3.608-6.617-10.17-10.23-6.506-3.665-15.26-3.665m140.4.82v14.99h14.98v-14.99zm212.1 0v64.48q0 7.165 3.773 11.1c3.773 3.935 6.05 3.938 10.61 3.938h7.657v-14.44h-2.515q-2.188 0-3.391-1.148-1.148-1.148-1.148-3.17v-60.76h-14.98zm-246.4 6.234v16.52h-5.852v12.8h5.852v29.2q0 7.274 3.39 11.16c3.39 3.886 5.925 3.883 10.99 3.883h7.548v-14.44h-3.72q-1.585 0-2.406-1.148-.82-1.15-.82-3.173v-25.48h6.945v-12.8h-6.946v-16.52h-14.98zm-106.2 7.931q6.124 0 9.788 3.828 3.719 3.773 3.719 10.12v23.3q0 6.288-3.72 10.12-3.663 3.829-9.787 3.83t-9.844-3.83q-3.665-3.827-3.665-10.12v-23.3q0-6.343 3.665-10.12 3.718-3.828 9.844-3.828m71.97 7.765q-4.54 0-8.312 2.735-2.852 2.055-4.868 5.46v-7.375h-14.98v79.84h14.98v-30.23q1.7 3.4 4.594 5.461 3.61 2.515 8.585 2.515 9.131 0 14.11-6.398c3.318-4.302 4.978-10.35 4.978-18.16v-9.078c0-7.875-1.66-13.96-4.978-18.27q-4.977-6.508-14.11-6.508zm120.3 0c-7.802 0-13.84 2.133-18.1 6.398q-6.4 6.396-6.398 18.05v9.242q0 11.76 6.398 18.27 6.4 6.453 18.1 6.453c7.802 0 13.84-2.133 18.1-6.398 4.266-4.302 6.398-10.35 6.398-18.16v-9.406q0-11.646-6.398-18.05-6.4-6.4-18.1-6.398zm67.16 0q-5.633 0-9.188 2.79-2.72 2.168-4.814 5.754v-7.724h-14.98v56.77h14.98v-34.29q0-4.211 2.243-6.508 2.296-2.351 6.453-2.35 4.375 0 6.727 2.296 2.406 2.243 2.407 6.453v34.4h14.98v-34.45q0-11.046-4.922-17.06-4.92-6.07-13.89-6.07zm54.96 0q-6.782 0-12.36 2.187-5.578 2.133-8.968 6.016l9.296 9.133q2.407-1.915 5.524-2.899a19.8 19.8 0 0 1 6.289-1.039q4.813 0 7.438 2.133c2.625 2.133 2.625 3.445 2.625 6.07v2.405h-13.73q-10.115 0-15.2 4.211-5.03 4.156-5.03 12.63c0 5.943 1.512 10.35 4.538 13.23s7.565 4.32 13.62 4.32q3.991 0 7.71-.984 3.775-1.04 6.345-3.117a8.4 8.4 0 0 0 1.75-1.963v5.244h13.62v-36.48c0-6.708-2.043-11.9-6.126-15.59q-6.123-5.523-17.34-5.524zm-173.9.82v56.77h14.98v-56.77zm-73.23 13.07q4.211 0 6.508 2.898 2.351 2.844 2.35 8.039V272q0 5.087-2.35 7.875-2.297 2.789-6.508 2.789-2.68 0-4.594-1.04-1.86-1.038-2.843-3.006-.985-1.968-.985-4.758v-12.74q0-2.898.985-4.922c.985-2.024 1.604-2.37 2.843-3.063q1.914-1.095 4.594-1.093zm125 .547q4.54 0 7.055 2.625c2.515 2.625 2.515 4.211 2.515 7.383v9.406q0 4.812-2.515 7.493-2.516 2.625-7.055 2.625-4.485 0-7-2.625-2.461-2.68-2.461-7.493v-9.406q0-4.758 2.46-7.383 2.517-2.625 7-2.625m118.3 21h13.67v5.25q0 2.898-2.953 4.266-2.955 1.368-8.915 1.367-4.264 0-6.453-1.312-2.133-1.365-2.133-4.156 0-2.734 1.695-4.047 1.696-1.367 5.086-1.367zm-499.3-145.6a9 9 0 0 0-3.681.781l-119.2 53.06c-3.15 1.404-5.17 4.467-5.17 7.841v128.7c0 3.287 1.918 6.287 4.947 7.737l119.1 57.04a9.07 9.07 0 0 0 7.809 0l119.1-57.04c3.028-1.45 4.947-4.45 4.946-7.737v-128.7c0-3.375-2.02-6.438-5.17-7.842l-119.1-53.06a9.05 9.05 0 0 0-3.681-.78m0 18.1 98.68 43.94-39.08 17.4-98.68-43.94zm-58.74 26.16 98.68 43.94-39.94 17.79-98.68-43.94zm-51.56 30.11 102.1 45.48v114l-102.1-48.89zm220.6 0v110.6l-102.1 48.89v-114zm1018 165.6c-9.331 0-17 7.668-17 17v126c0 9.331 7.669 17 17 17h176c9.331 0 17-7.669 17-17v-126c0-9.332-7.669-17-17-17zm11.47 12.03c5.522 0 9.999 4.477 10 9.999s-4.477 10-10 10-9.999-4.478-9.999-10 4.476-9.999 9.999-10m27.75 0c5.522 0 9.999 4.477 10 9.999s-4.477 10-10 10-9.999-4.478-9.999-10 4.476-9.999 9.999-10m27.75 0c5.522 0 9.999 4.477 10 9.999s-4.477 10-10 10-9.999-4.478-9.999-10 4.476-9.999 9.999-10m-171 3.97c-35.35 0-64 28.65-64 64s28.65 64 64 64 64-28.65 64-64-28.65-64-64-64m-1056 1.668v190.3c0 52.63 43.37 96 96 96h470.2c1.262 11.38 7.825 20 15.78 20q.44 0 .875-.033v.033h15.13v-104h-15.13v.036q-.435-.035-.875-.035c-7.955 0-14.52 8.62-15.78 20h-470.2c-18.28 0-32-13.72-32-32v-190.3l-28.1 13.45a9.07 9.07 0 0 1-7.81 0zm1153 23.33h190v102c0 3.964-3.036 7-7 7h-176c-3.964 0-7-3.036-7-7zm-1021 7q-7.687 0-11.91 3.5-4.22 3.469-4.219 9.812v.032q0 3.969 1.313 6.343 1.342 2.375 3.531 3.656a17.4 17.4 0 0 0 4.782 1.844q2.58.585 5.187 1.032 2.655.436 4.875 1.125 2.25.655 3.625 2.031c1.375 1.376 1.375 2.24 1.375 3.969v.03q0 3.314-2.718 5.157-2.72 1.844-7.657 1.844-3.655 0-6.78-1.125a18 18 0 0 1-5.72-3.375l-3.97 4.875a23.4 23.4 0 0 0 4.751 3.124 24 24 0 0 0 5.469 1.875q2.938.626 6.25.626 7.937 0 12.31-3.438 4.376-3.437 4.376-9.718v-.063q0-3.72-1.25-6.03-1.218-2.313-3.281-3.626-2.032-1.345-4.532-2.032a62 62 0 0 0-5-1.219q-2.781-.562-5.22-1.186-2.405-.657-3.905-2.001c-1.5-1.344-1.5-2.198-1.5-3.906v-.032q0-3.405 2.563-5.25 2.593-1.875 7.25-1.875 2.593 0 5.155.938 2.595.938 5.189 2.875l3.624-5.062q-3.312-2.406-6.812-3.563a22.1 22.1 0 0 0-7.157-1.188m731.7 0v.125c-52.59 0-95.92 43.3-95.99 95.87h-.01v64.13c-.064 18.22-13.76 31.87-32 31.87h-86.22c-1.262-11.38-7.826-20-15.78-20q-.441 0-.875.036v-.035h-15.13v104h15.13v-.034q.434.035.874.033c7.955 0 14.52-8.62 15.78-20h86.22c52.59 0 95.92-43.3 96-95.87h.01v-64.13c.063-18.22 13.76-31.87 32-31.87h64v-.126h56.58a64.01 64.01 0 0 1 0-64zm-708.4.468v6.375h6.375v-6.375zm120.4 0v37q0 4.095 2 6.345c2 2.25 3.198 2.25 5.594 2.25h3.75v-6.063h-3q-.937 0-1.47-.656-.5-.657-.499-1.812v-37.06zm102.7 0v45.44h6.375v-4.144a8.4 8.4 0 0 0 2.876 3.176q2.25 1.437 5.28 1.437 5.344 0 8.281-3.438 2.939-3.437 2.939-9.656v-7.062q0-6.314-2.845-9.75-2.844-3.47-8.062-3.47-2.907 0-5.281 1.564-1.877 1.21-3.188 3.239v-17.33zm702.7 6.634c5.785-.097 8.804 6.844 4.789 11.01l-35.53 36.8a6.5 6.5 0 0 1-9.42-.07l-15.28-16.31a6.5 6.5 0 0 1 9.487-8.889l10.61 11.32 30.78-31.88a6.5 6.5 0 0 1 4.563-1.985m99.79 4.244a5 5 0 0 0 0 9.999h26a5 5 0 0 0 0-9.999zm54 0a5 5 0 0 0 0 9.999h82a5 5 0 0 0 0-9.999zm-1053 1.56q-5.187 0-8.063 3.469-2.843 3.437-2.844 9.75v7.156q0 6.28 2.906 9.75 2.939 3.436 8.313 3.438 3.436 0 5.562-1.719 1.69-1.372 2.594-3.013v4.138q0 3.687-2 5.687-2 2.032-5.657 2.032-1.906 0-3.656-.938-1.718-.937-2.968-2.656l-4.312 3.906q1.592 2.467 4.468 3.813 2.906 1.374 6.562 1.375 6.657 0 10.28-3.72 3.656-3.685 3.656-10.44v-31.47h-6.375v4.071q-1.317-1.947-3.218-3.133-2.375-1.5-5.25-1.5m39.53.094a9.6 9.6 0 0 0-5.374 1.594q-1.91 1.265-3.25 3.378v-4.503h-6.376v32.44h6.375v-20.53q0-3 1.688-4.657 1.718-1.656 4.844-1.655 3.25 0 5 1.875 1.78 1.875 1.78 5.311v19.66h6.376v-19.69q0-6.313-2.907-9.75-2.874-3.47-8.156-3.47m32.34 0q-3.687 0-6.718 1.25-3 1.218-4.844 3.437l4.657 3.188a10.7 10.7 0 0 1 3.312-1.657q1.875-.594 3.78-.593 3.126 0 4.814 1.781 1.718 1.75 1.718 4.938v1.374h-8.937q-5.469 0-8.22 2.407-2.718 2.375-2.718 7.219 0 5.092 2.97 7.563 3 2.468 8.967 2.468 2.031 0 3.626-.438 1.625-.405 2.875-1.25a7.3 7.3 0 0 0 1.437-1.276v2.495h6.063v-20.84q0-5.75-3.344-8.907-3.345-3.156-9.438-3.156m52.38 0q-6.249 0-9.406 2.562-3.156 2.563-3.156 7.72 0 2.842.937 4.53.969 1.688 2.562 2.562 1.594.845 3.532 1.188 1.938.313 3.907.47a78 78 0 0 1 4.374.405q2.063.22 3.313.97 1.281.75 1.28 2.562 0 2.344-1.905 3.531-1.875 1.155-5.656 1.156-2.531 0-5.125-1-2.564-1-5.22-3l-3.78 4.656a18.9 18.9 0 0 0 6.28 3.813q3.533 1.25 7.845 1.25 6.812 0 10.19-2.594 3.406-2.593 3.407-7.812 0-3.188-1.064-5.032-1.063-1.844-2.812-2.78a11.7 11.7 0 0 0-3.844-1.251 40 40 0 0 0-4.093-.47 142 142 0 0 1-3.97-.342q-1.843-.188-2.967-.813-1.125-.656-1.125-2.125 0-2.22 1.624-3.312 1.626-1.125 4.875-1.125 2.25 0 4.594.78 2.375.78 4.812 2.344l3.844-4.655q-2.875-2.126-6.156-3.157-3.28-1.03-7.094-1.031m50.28 0q-3.687 0-6.718 1.25-3 1.218-4.844 3.437l4.657 3.188a10.7 10.7 0 0 1 3.312-1.657q1.875-.594 3.78-.593 3.126 0 4.814 1.781 1.72 1.75 1.718 4.938v1.374h-8.937q-5.468 0-8.219 2.407-2.718 2.375-2.719 7.219 0 5.092 2.97 7.563 3 2.468 8.967 2.468 2.031 0 3.626-.438 1.625-.405 2.875-1.25a7.3 7.3 0 0 0 1.437-1.276v2.495h6.063v-20.84q0-5.75-3.344-8.907c-3.344-3.157-5.375-3.157-9.438-3.156m68.97 0q-6.25 0-9.407 2.562-3.156 2.563-3.156 7.72 0 2.842.937 4.53.969 1.688 2.562 2.562 1.594.845 3.532 1.188 1.938.313 3.907.47a78 78 0 0 1 4.374.405q2.063.22 3.313.97 1.281.75 1.28 2.562 0 2.344-1.905 3.531-1.875 1.155-5.656 1.156-2.531 0-5.125-1-2.564-1-5.22-3l-3.78 4.656a18.9 18.9 0 0 0 6.28 3.813q3.533 1.25 7.845 1.25 6.812 0 10.19-2.594 3.406-2.593 3.407-7.812 0-3.188-1.064-5.032-1.063-1.844-2.812-2.78a11.7 11.7 0 0 0-3.844-1.251 40 40 0 0 0-4.093-.47 142 142 0 0 1-3.97-.342q-1.843-.188-2.967-.813-1.125-.656-1.125-2.125 0-2.22 1.624-3.312 1.626-1.125 4.875-1.125 2.25 0 4.594.78 2.375.78 4.812 2.344l3.844-4.655q-2.875-2.126-6.156-3.157-3.28-1.03-7.094-1.031m34.22 0q-6.5 0-10.09 3.968-3.563 3.969-3.563 11.22v3.656q0 6.969 3.72 10.75 3.718 3.78 10.5 3.78 3.03 0 6.03-1.249a17.9 17.9 0 0 0 5.407-3.594l-4.188-4.187q-1.5 1.406-3.406 2.187c-1.906.781-2.552.78-3.843.78q-3.876 0-6.031-2.155-2.05-2.08-2.123-5.907h20.44v-2.124q0-8.125-3.375-12.62-3.345-4.5-9.469-4.5m36.59 0a9.6 9.6 0 0 0-5.374 1.594q-1.912 1.265-3.25 3.378v-4.503h-6.376v32.44h6.375v-20.53q0-3 1.688-4.657 1.72-1.656 4.844-1.655 3.25 0 5 1.875 1.78 1.875 1.78 5.311v19.66h6.376v-19.69q0-6.313-2.906-9.75-2.876-3.47-8.157-3.47m33.84 0q-6.687 0-10.37 3.656-3.656 3.625-3.656 10.28v5.343q0 6.72 3.656 10.41 3.687 3.687 10.37 3.687 3.78 0 6.844-1.313 3.094-1.344 4.907-3.78l-4.594-4.439a9.4 9.4 0 0 1-3.187 2.563 8.7 8.7 0 0 1-3.876.906q-3.688 0-5.719-2.093-2.03-2.094-2.03-5.937v-5.344q0-3.75 2.03-5.813c2.03-2.063 3.26-2.063 5.719-2.062a9.2 9.2 0 0 1 3.876.843 9.2 9.2 0 0 1 3.187 2.406l4.594-4.125q-1.812-2.5-4.875-3.844c-3.063-1.344-4.334-1.344-6.876-1.343m31.5 0q-6.5 0-10.09 3.968-3.562 3.969-3.562 11.22v3.656q0 6.969 3.718 10.75c3.718 3.781 5.979 3.781 10.5 3.78q3.031 0 6.032-1.249a17.9 17.9 0 0 0 5.405-3.594l-4.187-4.187a11.1 11.1 0 0 1-3.407 2.187q-1.906.78-3.843.78-3.876 0-6.031-2.155-2.05-2.08-2.123-5.907h20.44v-2.124q0-8.125-3.375-12.62-3.345-4.5-9.469-4.5m19.25.156v6.688h6.687v-6.687zm-424.9.313v32.44h6.375v-32.44zm28.12 5.25q2.031 0 3.438.78 1.437.75 2.187 2.22.75 1.468.75 3.531v8.719q0 2.094-.75 3.593c-.75 1.499-1.229 1.77-2.187 2.313q-1.405.78-3.438.781-3.156 0-4.906-1.906-1.719-1.937-1.72-5.47v-7.061q0-3.562 1.72-5.532 1.75-1.968 4.906-1.968m207.7.03q3.158 0 4.875 1.97 1.75 1.968 1.75 5.53v7.032q0 3.5-1.75 5.437-1.717 1.906-4.875 1.907-2.031 0-3.468-.782a5.23 5.23 0 0 1-2.157-2.25q-.75-1.47-.75-3.562v-8.844q0-2.061.75-3.5a5.1 5.1 0 0 1 2.157-2.188q1.437-.75 3.468-.75m67.97 0q2.967 0 4.717 2.22 1.78 2.218 2.063 6.156h-14.36q.154-3.825 1.985-6 2-2.375 5.594-2.376m101.9 0q2.97 0 4.72 2.22 1.781 2.218 2.062 6.156h-14.36q.155-3.825 1.986-6 2-2.375 5.593-2.376m-310 13.1h8.906v6.124q0 1.656-1.812 2.438-1.812.78-5.437.782-3.313 0-4.97-1.188-1.655-1.187-1.656-3.656 0-2.281 1.25-3.375 1.25-1.125 3.719-1.125m102.7 0h8.906v6.124q0 1.656-1.812 2.438-1.812.78-5.437.782-3.312 0-4.969-1.188-1.656-1.187-1.657-3.656 0-2.281 1.25-3.375 1.25-1.125 3.72-1.125m827.1 1.907a5 5 0 0 0 0 10h64a5 5 0 0 0 0-10zm91.5 0a5 5 0 0 0 0 10h44.5a5 5 0 0 0 0-10zm-692.1 5.468v17.06l6.687-6.938v-10.12zm600.6 14.97a5 5 0 0 0 0 10h26a5 5 0 0 0 0-10zm54 0c-6.667 0-6.667 10 0 10h82a5 5 0 0 0 0-10zm-54 22.12a5 5 0 0 0 0 10.001h88a5 5 0 0 0 0-10zm-952.8 4.156q-4.157 0-6.127 2.156-1.968 2.157-1.968 6.437v4.406h-3.437v5.438h3.437v27h6.375v-27h6.407v-5.438h-6.407v-4.468q0-1 .438-1.72.437-.75 1.406-.75h4.563v-6.061zm45.59 0v37q0 4.093 2 6.343c2 2.25 3.198 2.25 5.593 2.25h3.75v-6.063h-3q-.938 0-1.469-.656-.5-.656-.5-1.812v-37.06zm44.75 0q-4.157 0-6.125 2.156-1.97 2.157-1.97 6.437v4.406h-3.437v5.438h3.438v27h6.375v-27h6.406v-5.438h-6.406v-4.468q0-1 .438-1.72.438-.75 1.406-.75h4.562v-6.061zm161 0v37q0 4.093 2 6.343c2 2.25 3.198 2.25 5.595 2.25h3.75v-6.063h-3q-.937 0-1.47-.656-.5-.656-.5-1.812v-37.06zm18.53 0v37q0 4.093 2 6.343c2 2.25 3.198 2.25 5.594 2.25h3.75v-6.063h-3q-.938 0-1.469-.656-.5-.656-.5-1.812v-37.06zm125.5 0q-4.156 0-6.125 2.156-1.968 2.157-1.969 6.437v4.406h-3.438v5.438h3.438v27h6.375v-27h6.406v-5.438h-6.406v-4.468q0-1 .438-1.72.437-.75 1.407-.75h4.561v-6.061zm45.47 3.563v9.436h-3.343v5.751h3.343v18.25q0 4.155 1.782 6.374 1.812 2.22 5.812 2.22h3.688v-6.064h-3.062q-.907 0-1.376-.656-.468-.655-.469-1.812v-18.31h4.907v-5.75h-4.907v-9.437zm-505.7 8.967q-6.25 0-9.406 2.564-3.156 2.56-3.156 7.718 0 2.844.937 4.53.969 1.69 2.562 2.564 1.594.844 3.532 1.187 1.944.313 3.907.469 2.343.156 4.374.407 2.063.218 3.313.968 1.28.75 1.28 2.562 0 2.344-1.905 3.532-1.875 1.155-5.656 1.156-2.532 0-5.126-1-2.562-.999-5.219-3l-3.78 4.656a18.9 18.9 0 0 0 6.28 3.813q3.533 1.25 7.845 1.25 6.812 0 10.19-2.594 3.407-2.594 3.407-7.813 0-3.187-1.063-5.03-1.063-1.845-2.812-2.782a11.7 11.7 0 0 0-3.844-1.25 40 40 0 0 0-4.093-.468 147 147 0 0 1-3.97-.344q-1.843-.187-2.968-.813-1.125-.656-1.125-2.125 0-2.219 1.625-3.313 1.625-1.125 4.875-1.125 2.25 0 4.594.782 2.374.78 4.812 2.344l3.844-4.657q-2.876-2.125-6.156-3.156c-3.28-1.031-4.552-1.031-7.094-1.032m34.22 0q-6.5 0-10.09 3.97-3.563 3.969-3.563 11.22v3.656q0 6.97 3.72 10.75 3.719 3.781 10.5 3.781 3.03 0 6.03-1.25 3-1.279 5.407-3.593l-4.188-4.187q-1.5 1.406-3.406 2.187c-1.906.781-2.552.782-3.844.782q-3.875 0-6.03-2.157-2.05-2.08-2.123-5.906h20.44v-2.125q0-8.125-3.375-12.63-3.344-4.5-9.47-4.5m143.7 0q-6.375 0-9.875 3.657c-3.5 3.657-3.5 5.875-3.5 10.31v5.282q0 6.72 3.5 10.44 3.5 3.688 9.875 3.687 6.374 0 9.874-3.656 3.5-3.687 3.501-10.37v-5.376q0-6.656-3.5-10.31-3.5-3.657-9.875-3.657m37.28 0q-2.875 0-5.282 1.626-1.877 1.284-3.187 3.349v-4.506h-6.375v32.44h6.375v-20.53q0-2.968 1.656-4.624 1.688-1.688 4.719-1.688 1.688 0 2.969.532a5.34 5.34 0 0 1 2.125 1.562l4.156-5.625a8.8 8.8 0 0 0-3.157-1.875q-1.78-.657-3.999-.657m44.66 0q-2.937 0-5.375 1.594-1.91 1.265-3.25 3.38v-4.505h-6.375v32.44h6.375v-20.53q0-2.999 1.688-4.655 1.718-1.656 4.844-1.657 3.25 0 5 1.875 1.78 1.876 1.78 5.313v19.66h6.376V522.2q0-6.312-2.907-9.75-2.874-3.468-8.156-3.469m135.8 0q-6.248 0-9.405 2.564-3.157 2.56-3.157 7.718 0 2.844.938 4.53.969 1.69 2.563 2.564 1.594.844 3.53 1.187 1.938.312 3.907.469 2.345.156 4.376.407 2.063.218 3.312.968 1.282.75 1.282 2.562 0 2.344-1.908 3.532-1.875 1.155-5.655 1.156-2.532 0-5.126-1-2.562-.999-5.218-3l-3.782 4.656a18.9 18.9 0 0 0 6.281 3.813q3.533 1.25 7.845 1.25 6.812 0 10.19-2.594 3.405-2.594 3.405-7.813 0-3.187-1.062-5.03-1.062-1.845-2.812-2.782a11.7 11.7 0 0 0-3.844-1.25 40 40 0 0 0-4.094-.468q-1.986-.144-3.968-.344-1.845-.187-2.97-.813-1.125-.656-1.125-2.125 0-2.219 1.625-3.313 1.625-1.125 4.875-1.125 2.25 0 4.594.782 2.375.78 4.813 2.344l3.844-4.657q-2.876-2.125-6.157-3.156c-3.281-1.031-4.552-1.031-7.094-1.032m33.1 0q-3.687 0-6.718 1.251-3 1.219-4.844 3.437l4.656 3.187c1-.74 2.12-1.3 3.312-1.655q1.875-.594 3.781-.595 3.125 0 4.813 1.782 1.719 1.75 1.719 4.938v1.375h-8.937q-5.469 0-8.22 2.405-2.718 2.375-2.718 7.22 0 5.093 2.969 7.562 3 2.47 8.968 2.468 2.03 0 3.625-.436 1.626-.407 2.876-1.251a7.3 7.3 0 0 0 1.437-1.276v2.495h6.063v-20.84q0-5.75-3.344-8.906-3.345-3.156-9.438-3.157m54.53 0q-6.5 0-10.09 3.97-3.562 3.969-3.562 11.22v3.656q0 6.97 3.719 10.75c3.719 3.78 5.979 3.78 10.5 3.781q3.03 0 6.03-1.25 3-1.279 5.407-3.593l-4.188-4.187q-1.5 1.406-3.405 2.187-1.906.78-3.844.782-3.874 0-6.031-2.157-2.05-2.08-2.122-5.906h20.43v-2.125q0-8.125-3.375-12.63-3.344-4.5-9.469-4.5m-530.6.47v19.72q0 6.28 2.907 9.75 2.937 3.437 8.311 3.436 3.53 0 5.719-1.718 1.717-1.373 2.625-3.016v4.266h6.344v-32.44h-6.344v20.47q0 3.03-1.718 4.718-1.687 1.656-4.845 1.657-3.156 0-4.905-1.844-1.719-1.875-1.719-5.281v-19.72zm122.1 0v19.72q0 6.28 2.907 9.75 2.938 3.437 8.313 3.436 3.531 0 5.718-1.718 1.717-1.373 2.625-3.016v4.266h6.344v-32.44h-6.344v20.47q0 3.03-1.718 4.718-1.688 1.656-4.844 1.657-3.156 0-4.906-1.844-1.72-1.875-1.72-5.281v-19.72zm205.8 0v19.72q0 6.28 2.906 9.75 2.938 3.437 8.313 3.436 3.53 0 5.719-1.718 1.716-1.373 2.625-3.016v4.266h6.344v-32.44h-6.344v20.47q0 3.03-1.719 4.718-1.688 1.656-4.844 1.657-3.156 0-4.906-1.844-1.719-1.875-1.72-5.281v-19.72zm241.7 0 11.77 31.92-1.55 4.733q-.78 1.75-1.843 2.47-1.03.72-2.813.718h-1.281v6.126h1.282q3.812 0 6-1.313 2.187-1.283 3.342-4.626l13.81-40.03h-6.501l-7.556 23.08-8.162-23.08zm-488.1 5.281q2.968 0 4.718 2.218 1.782 2.22 2.063 6.157h-14.36q.154-3.825 1.985-6 2-2.376 5.594-2.375m449.1 0q2.97 0 4.719 2.218 1.781 2.22 2.062 6.157h-14.36q.154-3.825 1.985-6 2-2.376 5.594-2.375m-305.3.312q3.344 0 5.156 2.063 1.844 2.062 1.844 5.843v5.376q0 3.78-1.844 5.874-1.812 2.094-5.156 2.095-3.313 0-5.157-2.095-1.844-2.092-1.844-5.874v-5.376q0-3.78 1.844-5.843c1.844-2.063 2.948-2.063 5.157-2.063m175.3 7.531v6.063h21v-6.063zm73.28 5.25h8.906v6.126q0 1.656-1.812 2.438-1.812.78-5.438.78-3.312 0-4.968-1.188c-1.656-1.188-1.656-2.011-1.657-3.656q0-2.28 1.25-3.375 1.25-1.125 3.719-1.125m125.2 7.376v6.687h6.687v-6.687z"/>
  <path fill="#eee" d="M2521.781 320q-8 0-12.375 3.656-4.375 3.625-4.375 10.281v.031q0 4.126 1.375 6.595 1.406 2.469 3.687 3.812a18.1 18.1 0 0 0 5.001 1.938q2.719.594 5.375 1 2.219.344 4.094.844 1.904.5 3.062 1.561 1.156 1.032 1.157 3v.032q0 2.594-2.313 4.032-2.312 1.406-6.5 1.406-3.625 0-7.063-1.157-3.437-1.188-6.062-3.343l-3.97 7.062a23.8 23.8 0 0 0 4.908 3.063 27.6 27.6 0 0 0 5.812 1.906q3.126.656 6.375.656 8.25 0 12.781-3.593 4.53-3.625 4.53-10.188v-.063q.001-3.844-1.28-6.25t-3.437-3.781a17.4 17.4 0 0 0-4.751-2.094q-2.594-.75-5.218-1.25a80 80 0 0 1-4.438-1q-2.062-.562-3.343-1.687t-1.282-3.312v-.032q0-2.344 2.157-3.624 2.155-1.313 6.093-1.313 2.625 0 5.469.999 2.874.969 5.5 2.813l3.626-7.25a26.5 26.5 0 0 0-7.095-3.5q-3.812-1.25-7.5-1.25m-96.063.437v45.47h8.564v-18.282h5.194l10.242 18.281h10.376l-10.858-18.722a11.4 11.4 0 0 0 2.981-1.247q2.813-1.687 4.376-4.75 1.593-3.063 1.594-7.156 0-4.093-1.563-7.156t-4.407-4.75q-2.812-1.687-6.593-1.687h-11.344zm-39.218.031v45.438h8.562v-17.625h9.656q4.281 0 7.5-1.718 3.22-1.719 5.001-4.844t1.781-7.313q0-4.218-1.78-7.343-1.782-3.125-5.002-4.844-3.188-1.75-7.5-1.75h-9.656zm80.937 0v45.438h30.438v-8.25h-21.874v-10.188h18.436v-8.25h-18.436v-10.5h21.874v-8.25h-21.874zm77.032 0v45.438h30.438v-8.25h-21.876v-10.188h18.438v-8.25h-18.438v-10.5h21.876v-8.25h-21.876zm38.25 0v45.408h8.187V333.12L2607 365.875h10.53v-45.407h-8.186v33.27l-16.156-33.27zm41.062 0v8.25h12.375v37.188h8.562v-37.188h12.375v-8.25zm-189.5 8.22h10.656q2.032 0 3.22 1.469 1.218 1.468 1.218 3.874-.031 2.406-1.25 3.875-1.188 1.469-3.188 1.469h-10.655zm-39.219.03h9.876q2.345 0 3.75 1.563 1.437 1.532 1.437 4.125 0 2.532-1.437 4.095-1.437 1.53-3.75 1.53h-9.876zm6.938 71.283q-4.75 0-8.312 2.124-3.563 2.093-5.531 5.906-1.97 3.813-1.969 8.938v12.47q0 5.093 1.969 8.905 1.968 3.812 5.531 5.937 3.562 2.094 8.312 2.094 3.936 0 7.187-1.688 3.25-1.687 5.469-4.718 2.218-3.032 3-7.094h-6.53q-.907 3.531-3.532 5.406t-5.594 1.875q-4.188 0-6.75-2.937-2.532-2.938-2.532-7.78v-12.47q0-4.844 2.532-7.78 2.562-2.97 6.75-2.97a8.8 8.8 0 0 1 3.875.907 9.6 9.6 0 0 1 3.25 2.562q1.407 1.625 2 3.813h6.53q-.78-4.064-3-7.095a15.3 15.3 0 0 0-5.468-4.718q-3.25-1.687-7.187-1.687m77.406.468v17.07q-1.316-1.948-3.218-3.133-2.374-1.5-5.25-1.5-5.187 0-8.062 3.469-2.845 3.436-2.845 9.75v7.157q0 6.28 2.906 9.75 2.938 3.436 8.313 3.436 3.437 0 5.562-1.718 1.69-1.372 2.594-3.013v4.169h6.375v-45.437zm76.594 0q-4.155 0-6.124 2.157-1.97 2.155-1.97 6.436v4.406h-3.437v5.438h3.438v27h6.375v-27h6.405v-5.438h-6.405v-4.467q0-1.001.436-1.72.437-.75 1.407-.75h4.562v-6.062zm11.25 0v37q0 4.094 2 6.344t5.594 2.25h3.75V440h-3q-.938 0-1.47-.657-.5-.655-.499-1.812V400.47zm152.032 0v6.375h6.375v-6.375zm52.655 3.563v9.436h-3.343v5.751h3.343v18.25q0 4.155 1.781 6.374 1.813 2.22 5.813 2.22h3.688V440h-3.063q-.907 0-1.375-.657-.47-.655-.469-1.812V419.22h4.907v-5.75h-4.907v-9.437zM2438.531 413q-6.374 0-9.874 3.656t-3.501 10.312v5.283q0 6.718 3.5 10.437 3.5 3.687 9.875 3.687 6.374 0 9.875-3.657 3.5-3.686 3.5-10.374v-5.376q0-6.656-3.5-10.312T2438.53 413m69.656 0q-6.5 0-10.094 3.97-3.562 3.967-3.562 11.217v3.656q0 6.97 3.719 10.75 3.72 3.783 10.5 3.782 3.03 0 6.03-1.25 3-1.281 5.407-3.593l-4.188-4.188q-1.5 1.405-3.405 2.187-1.906.781-3.844.782-3.874 0-6.03-2.156-2.051-2.08-2.123-5.906h20.434v-2.126q0-8.125-3.375-12.625-3.343-4.5-9.469-4.5m90.031 0q-6.374 0-9.874 3.656t-3.5 10.312v5.283q0 6.718 3.5 10.437 3.5 3.687 9.874 3.687 6.376 0 9.876-3.657 3.5-3.686 3.5-10.374v-5.376q0-6.656-3.5-10.312t-9.876-3.656m82.376 0q-6.25 0-9.406 2.563-3.156 2.562-3.157 7.718 0 2.844.938 4.531.969 1.688 2.562 2.564 1.594.843 3.531 1.186 1.938.313 3.907.469 2.344.156 4.374.407 2.063.219 3.314.968 1.28.75 1.28 2.562 0 2.344-1.906 3.532-1.875 1.156-5.656 1.156-2.531 0-5.125-1-2.562-.999-5.22-3l-3.78 4.656a18.9 18.9 0 0 0 6.281 3.813q3.532 1.25 7.844 1.25 6.812 0 10.187-2.593 3.406-2.595 3.407-7.814 0-3.186-1.063-5.03t-2.813-2.782a11.7 11.7 0 0 0-3.844-1.25 40 40 0 0 0-4.092-.468q-2.125-.157-3.97-.344-1.844-.187-2.968-.813-1.125-.656-1.125-2.124 0-2.22 1.625-3.314 1.625-1.125 4.875-1.125 2.25 0 4.593.783 2.375.78 4.812 2.343l3.844-4.656q-2.874-2.126-6.155-3.157t-7.094-1.031m69.75 0q-2.938 0-5.375 1.593-1.91 1.266-3.25 3.38v-4.505h-6.375v32.438h6.375v-20.531q0-3 1.687-4.656 1.72-1.656 4.844-1.656 3.25 0 5 1.875 1.78 1.874 1.781 5.313v19.655h6.375v-19.688q0-6.312-2.906-9.75-2.875-3.468-8.156-3.468m54.063 0q-6.376 0-9.876 3.656t-3.5 10.312v5.283q0 6.718 3.5 10.437 3.5 3.687 9.876 3.687 6.374 0 9.874-3.657 3.5-3.686 3.5-10.374v-5.376q0-6.656-3.5-10.312t-9.874-3.656m-187.814.468 10 32.438h4.813l7.907-22.406 7.906 22.406h4.812l10-32.438h-6.656l-5.75 23.157-8.094-23.157h-4.437L2629 436.625l-5.75-23.157zm102.689 0v32.438h6.375v-32.438zm-246.25 5.25q2.03 0 3.437.783a5 5 0 0 1 2.187 2.217q.75 1.47.75 3.532v8.719q0 2.094-.75 3.593t-2.187 2.313q-1.406.78-3.438.78-3.156 0-4.906-1.905-1.719-1.937-1.72-5.468v-7.064q.001-3.562 1.72-5.53 1.75-1.97 4.906-1.97m35.155.033q2.97 0 4.719 2.217 1.781 2.22 2.062 6.157h-14.36q.154-3.825 1.985-6 2.001-2.374 5.594-2.374m-69.656.312q3.345 0 5.156 2.062 1.845 2.062 1.845 5.843v5.376q0 3.78-1.845 5.874-1.812 2.095-5.156 2.095-3.312 0-5.156-2.095-1.844-2.093-1.844-5.874v-5.376q0-3.78 1.844-5.843 1.844-2.062 5.156-2.062m159.687 0q3.345 0 5.156 2.062 1.845 2.062 1.845 5.843v5.376q0 3.78-1.845 5.874-1.812 2.095-5.156 2.095-3.312 0-5.156-2.095-1.844-2.093-1.843-5.874v-5.376q0-3.78 1.843-5.843 1.844-2.062 5.156-2.062m206.189 0q3.344 0 5.156 2.062 1.844 2.062 1.843 5.843v5.376q0 3.78-1.843 5.874-1.812 2.095-5.156 2.095-3.313 0-5.157-2.095-1.844-2.093-1.844-5.874v-5.376q0-3.78 1.844-5.843 1.844-2.062 5.157-2.062m-397.032 61.406v45.438h6.375v-20.625q0-2.969 1.688-4.594 1.719-1.625 4.843-1.626 3.25 0 5 1.875 1.782 1.875 1.782 5.313v19.657h6.375v-19.688q0-6.312-2.906-9.75-2.876-3.468-8.157-3.468a9.6 9.6 0 0 0-5.376 1.593q-1.91 1.24-3.249 3.31v-17.435zm87.25 0v45.438h6.374v-20.625q0-2.969 1.688-4.594 1.719-1.625 4.844-1.626 3.25 0 5 1.875 1.78 1.875 1.781 5.313v19.657h6.375v-19.688q0-6.312-2.906-9.75-2.876-3.468-8.157-3.468-2.937 0-5.374 1.593-1.912 1.24-3.25 3.31v-17.435zm276.032 0v45.438h6.375v-20.625q0-2.969 1.687-4.594 1.719-1.625 4.843-1.626 3.25 0 5.001 1.875 1.78 1.875 1.781 5.313v19.657h6.375v-19.688q0-6.312-2.906-9.75-2.875-3.468-8.156-3.468-2.939 0-5.376 1.593-1.91 1.24-3.25 3.31v-17.435zm-383.313 3.562v9.438h-3.345v5.75h3.345v18.25q0 4.156 1.781 6.375 1.813 2.219 5.812 2.218h3.687v-6.061h-3.061q-.906 0-1.376-.657-.468-.656-.468-1.813v-18.312h4.905v-5.75h-4.905v-9.438zm363.281 0v9.438h-3.344v5.75h3.344v18.25q0 4.156 1.781 6.375 1.813 2.219 5.813 2.218h3.687v-6.061h-3.062q-.907 0-1.375-.657-.47-.656-.469-1.813v-18.312h4.906v-5.75H2757v-9.438zm-294.78 8.97q-6.502 0-10.095 3.968-3.563 3.97-3.563 11.219v3.656q0 6.968 3.72 10.75 3.718 3.781 10.5 3.782 3.03 0 6.03-1.251 3-1.282 5.407-3.594l-4.188-4.188q-1.5 1.407-3.406 2.189-1.906.78-3.843.78-3.876 0-6.033-2.156-2.05-2.08-2.122-5.906h20.436v-2.125q0-8.125-3.375-12.624-3.344-4.5-9.469-4.5m86.123 0q-3.687 0-6.718 1.25-3 1.218-4.844 3.437l4.657 3.188q1.47-1.095 3.312-1.657 1.875-.594 3.78-.593 3.127 0 4.814 1.78 1.718 1.75 1.718 4.937v1.376h-8.937q-5.468 0-8.219 2.407-2.718 2.375-2.719 7.218 0 5.093 2.97 7.562 3 2.47 8.967 2.47 2.032 0 3.626-.438 1.625-.406 2.875-1.25a7.3 7.3 0 0 0 1.437-1.277v2.496h6.063v-20.845q0-5.75-3.344-8.906-3.343-3.155-9.438-3.155m37.313 0q-2.907 0-5.281 1.561-1.877 1.21-3.188 3.24v-4.333h-6.375v45.624h6.375v-17.332a8.4 8.4 0 0 0 2.876 3.176q2.25 1.438 5.28 1.439 5.344 0 8.281-3.438 2.939-3.437 2.939-9.657v-7.062q0-6.312-2.845-9.75-2.844-3.468-8.062-3.468m34.813 0q-2.907 0-5.282 1.561-1.877 1.21-3.188 3.24v-4.333h-6.375v45.624h6.375v-17.332a8.4 8.4 0 0 0 2.876 3.176q2.25 1.438 5.28 1.439 5.345 0 8.283-3.438 2.94-3.438 2.94-9.658v-7.062q0-6.312-2.843-9.75-2.844-3.468-8.063-3.468m81.656 0q-2.906 0-5.282 1.561-1.876 1.21-3.187 3.24v-4.333h-6.375v45.624h6.375V521.76a8.4 8.4 0 0 0 2.875 3.176q2.25 1.438 5.281 1.439 5.344 0 8.282-3.438 2.938-3.437 2.937-9.657v-7.062q0-6.312-2.843-9.75-2.844-3.468-8.063-3.468m31.562 0q-3.687 0-6.718 1.25-3 1.218-4.844 3.437l4.657 3.188q1.468-1.095 3.312-1.657 1.875-.594 3.78-.593 3.126 0 4.814 1.78 1.719 1.75 1.718 4.937v1.376h-8.937q-5.47 0-8.219 2.407-2.72 2.375-2.719 7.218 0 5.093 2.97 7.562 3 2.47 8.967 2.47 2.031 0 3.626-.438 1.625-.406 2.875-1.25a7.3 7.3 0 0 0 1.437-1.277v2.496h6.063v-20.845q0-5.75-3.344-8.906-3.345-3.155-9.438-3.155m-97.937.468 11.769 31.922-1.55 4.735q-.781 1.75-1.844 2.468-1.031.719-2.812.719h-1.282v6.125h1.282q3.812 0 6-1.313 2.187-1.28 3.344-4.624l13.812-40.032h-6.5l-7.555 23.082-8.164-23.082zm-173.53 5.281q2.966 0 4.718 2.22 1.78 2.217 2.062 6.155h-14.361q.155-3.825 1.986-6 2-2.376 5.594-2.375m121.343 0q3.156 0 4.874 1.969 1.75 1.968 1.751 5.531v7.031q0 3.5-1.75 5.438-1.719 1.905-4.876 1.906-2.031 0-3.468-.781a5.23 5.23 0 0 1-2.156-2.25q-.75-1.47-.75-3.563v-8.843q0-2.063.75-3.501a5.1 5.1 0 0 1 2.156-2.187q1.437-.75 3.469-.75m34.811 0q3.157 0 4.876 1.969 1.75 1.968 1.75 5.531v7.031q0 3.5-1.75 5.438-1.719 1.905-4.876 1.906-2.031 0-3.468-.781a5.23 5.23 0 0 1-2.156-2.25q-.75-1.47-.75-3.563v-8.843q0-2.063.75-3.501a5.1 5.1 0 0 1 2.156-2.187q1.437-.75 3.469-.75m81.657 0q3.156 0 4.875 1.969 1.75 1.968 1.75 5.531v7.031q0 3.5-1.75 5.438-1.719 1.905-4.875 1.906-2.03 0-3.469-.781a5.23 5.23 0 0 1-2.156-2.25q-.75-1.47-.75-3.563v-8.843q0-2.063.75-3.501a5.1 5.1 0 0 1 2.156-2.187q1.438-.75 3.469-.75m-153.875 13.094h8.907v6.125q0 1.656-1.813 2.437t-5.437.781q-3.312 0-4.969-1.187t-1.657-3.656q0-2.28 1.25-3.375 1.25-1.125 3.72-1.125m185.344 0h8.906v6.125q0 1.656-1.812 2.437t-5.437.781q-3.313 0-4.969-1.187t-1.657-3.656q0-2.28 1.25-3.375 1.25-1.125 3.719-1.125m80.187 7.374v6.689h6.689v-6.689zM2386.5 704v45.437h30.438v-8.25h-21.876V731h18.438v-8.25h-18.438v-10.5h21.876V704h-21.876zm38.25 0v45.437h7.781v-31.664l8.375 26.602h7.563l8.374-27.2v32.263h7.782V704h-11.281l-8.656 30.625-8.657-30.625zm49.875 0v45.437h8.562v-17.625h9.656q4.281 0 7.5-1.718t5.001-4.844q1.782-3.124 1.781-7.312 0-4.219-1.78-7.344-1.782-3.125-5.002-4.844-3.188-1.75-7.5-1.75h-9.656zm37.343 0v8.25h12.375v37.187h8.564V712.25h12.375V704zm34.251 0 13.374 27.906v17.532h8.564v-17.532L2581.53 704h-8.968l-8.688 19.562-8.688-19.562zm-63.032 8.25h9.876q2.345 0 3.75 1.562 1.437 1.532 1.437 4.125 0 2.532-1.437 4.095-1.437 1.53-3.75 1.53h-9.876zM2387.126 784v45.437h6.374v-19.125h18.781v-6.062h-18.78v-14.188h22.218V784H2393.5zm69.218 0v6.375h6.375V784zm16.062 0v37q0 4.094 2 6.344t5.594 2.25h3.75v-6.063h-3q-.938 0-1.468-.656-.501-.657-.501-1.813V784zm242.812 0v37q0 4.094 2.001 6.344t5.593 2.25h3.75v-6.063h-3q-.937 0-1.468-.656-.5-.657-.5-1.813V784zm52.282 0v6.375h6.375V784zm118.5 0v45.437h6.375v-20.625q0-2.969 1.688-4.594 1.718-1.624 4.844-1.624 3.25 0 5 1.875 1.78 1.875 1.78 5.313v19.655h6.376V809.75q0-6.313-2.907-9.75-2.874-3.47-8.156-3.47-2.937 0-5.374 1.595-1.911 1.24-3.251 3.309V784zm-344.156 3.563V797h-3.344v5.75h3.344V821q0 4.155 1.781 6.375 1.812 2.219 5.813 2.219h3.686v-6.063h-3.061q-.907 0-1.375-.656-.47-.657-.47-1.813V802.75h4.907V797h-4.906v-9.437zm-107.97 8.968q-3.686 0-6.717 1.25-3 1.219-4.845 3.437l4.657 3.188q1.47-1.094 3.312-1.656 1.875-.593 3.781-.594 3.125 0 4.814 1.781 1.718 1.75 1.718 4.938v1.375h-8.937q-5.469 0-8.22 2.406-2.718 2.375-2.718 7.219 0 5.093 2.969 7.562 3 2.469 8.968 2.469 2.031 0 3.625-.437 1.625-.406 2.876-1.25a7.3 7.3 0 0 0 1.437-1.277v2.495h6.063v-20.843q0-5.75-3.345-8.907-3.344-3.156-9.437-3.156m68.438 0q-6.25 0-9.406 2.563t-3.156 7.718q0 2.844.937 4.531.97 1.688 2.564 2.564 1.592.843 3.53 1.186 1.937.313 3.907.469a79 79 0 0 1 4.375.407q2.063.218 3.312.968 1.282.75 1.282 2.563 0 2.344-1.908 3.531-1.874 1.156-5.655 1.156-2.532 0-5.126-.999-2.562-1-5.217-3l-3.783 4.655a18.9 18.9 0 0 0 6.282 3.813q3.531 1.25 7.844 1.25 6.812 0 10.188-2.593 3.405-2.595 3.405-7.813 0-3.188-1.061-5.03-1.063-1.845-2.813-2.783a11.7 11.7 0 0 0-3.844-1.249 40 40 0 0 0-4.094-.469q-2.126-.156-3.968-.344-1.845-.187-2.97-.813-1.124-.655-1.124-2.124-.001-2.22 1.624-3.313 1.624-1.125 4.875-1.125 2.25 0 4.594.782 2.375.78 4.813 2.343l3.844-4.656q-2.876-2.126-6.157-3.157-3.28-1.03-7.094-1.031m72 0q-6.375 0-9.874 3.656t-3.5 10.313v5.282q0 6.719 3.5 10.437 3.5 3.687 9.874 3.687 6.376 0 9.876-3.656 3.5-3.687 3.5-10.375V810.5q0-6.657-3.5-10.313t-9.876-3.656m52.345 0q-6.501 0-10.095 3.97-3.561 3.968-3.562 11.217v3.657q0 6.969 3.72 10.75 3.717 3.78 10.5 3.78 3.03.001 6.03-1.249 3-1.28 5.407-3.593l-4.188-4.188q-1.5 1.406-3.406 2.187-1.905.781-3.844.782-3.876 0-6.032-2.156-2.05-2.08-2.122-5.906h20.435v-2.126q0-8.125-3.374-12.625-3.345-4.5-9.47-4.5m68.592 0q-2.905 0-5.28 1.563-1.877 1.21-3.188 3.239V797h-6.375v45.625h6.375v-17.332a8.4 8.4 0 0 0 2.876 3.176q2.25 1.437 5.28 1.437 5.344 0 8.281-3.437 2.939-3.437 2.939-9.656v-7.063q-.001-6.313-2.845-9.75-2.844-3.47-8.062-3.47m49.782 0q-3.687 0-6.718 1.25-3 1.219-4.844 3.437l4.657 3.188q1.468-1.094 3.311-1.656 1.875-.593 3.781-.594 3.126 0 4.814 1.781 1.718 1.75 1.718 4.938v1.375h-8.937q-5.469 0-8.22 2.406-2.718 2.375-2.718 7.219 0 5.093 2.97 7.562 3 2.469 8.967 2.469 2.031 0 3.626-.437 1.625-.406 2.875-1.25a7.3 7.3 0 0 0 1.437-1.277v2.495h6.063v-20.843q0-5.75-3.344-8.907-3.345-3.156-9.438-3.156m53.531 0q-2.937 0-5.374 1.594-1.911 1.265-3.251 3.379V797h-6.375v32.437h6.375v-20.531q0-3 1.688-4.656 1.718-1.656 4.844-1.656 3.25 0 5 1.875 1.78 1.875 1.78 5.313v19.655h6.376V809.75q0-6.313-2.907-9.75-2.874-3.47-8.156-3.47m-342.218.469v32.437h6.375V797zm188.343 0 10.771 15.96-11.27 16.477h7.062l7.693-11.22 7.37 11.22h7.062l-11.142-16.244L2672.875 797h-7.094l-6.866 11.13-7.133-11.13zm122.813 0v32.437h6.375V797zm66.187 0 10.001 32.437h4.812l7.906-22.406 7.907 22.406h4.812l10-32.437h-6.656l-5.75 23.156-8.094-23.156h-4.437l-8.095 23.156-5.75-23.156zm83.688 0 11.769 31.923-1.55 4.733q-.781 1.75-1.844 2.47-1.031.718-2.812.717h-1.282v6.126h1.282q3.811 0 6-1.312 2.187-1.282 3.344-4.626l13.811-40.03h-6.5l-7.557 23.083-8.162-23.083zm-290.718 5.282q2.968-.001 4.718 2.218 1.781 2.218 2.062 6.156h-14.36q.154-3.825 1.985-6 2.001-2.374 5.595-2.374m66.5 0q3.155 0 4.874 1.968 1.75 1.97 1.75 5.532v7.031q0 3.5-1.75 5.437-1.718 1.906-4.875 1.906-2.03 0-3.469-.78a5.23 5.23 0 0 1-2.156-2.25q-.75-1.47-.75-3.563v-8.845q0-2.061.75-3.5a5.1 5.1 0 0 1 2.156-2.186q1.438-.75 3.47-.75m-118.845.312q3.344 0 5.156 2.062 1.845 2.063 1.844 5.844v5.375q0 3.781-1.844 5.875-1.812 2.093-5.156 2.094-3.312 0-5.156-2.094t-1.843-5.875V810.5q0-3.782 1.843-5.844 1.844-2.062 5.156-2.062m-142.625 12.78h8.907v6.126q0 1.657-1.812 2.438-1.813.78-5.438.78-3.312 0-4.969-1.187-1.656-1.188-1.656-3.656 0-2.281 1.25-3.375 1.25-1.125 3.718-1.125m311.157 0h8.906v6.126q0 1.657-1.812 2.438-1.812.78-5.438.78-3.312 0-4.968-1.187t-1.657-3.656q0-2.281 1.25-3.375 1.25-1.125 3.719-1.125M1250.906 816q-8 0-12.375 3.656-4.374 3.625-4.375 10.282v.03q0 4.125 1.375 6.594 1.406 2.469 3.687 3.813a18.1 18.1 0 0 0 5.001 1.938q2.719.593 5.375 1 2.219.343 4.094.843 1.905.5 3.062 1.563 1.156 1.03 1.157 3v.03q0 2.595-2.313 4.032-2.312 1.406-6.5 1.406-3.625 0-7.063-1.156-3.437-1.187-6.062-3.344l-3.97 7.064a23.8 23.8 0 0 0 4.908 3.061q2.718 1.25 5.812 1.907 3.126.657 6.375.657 8.25-.001 12.781-3.595 4.53-3.625 4.53-10.187v-.063q.001-3.844-1.28-6.25t-3.437-3.78a17.4 17.4 0 0 0-4.751-2.094q-2.594-.75-5.218-1.251a80 80 0 0 1-4.438-1q-2.062-.562-3.343-1.687t-1.282-3.313v-.031q0-2.344 2.157-3.625 2.156-1.313 6.093-1.313 2.625 0 5.469 1 2.874.97 5.5 2.813l3.626-7.25a26.5 26.5 0 0 0-7.095-3.5q-3.811-1.25-7.5-1.25m78.25 0q-5.217 0-8.905 2-3.657 2-5.595 5.781-1.937 3.782-1.938 9.188v12.468q0 5.375 1.938 9.188 1.938 3.78 5.595 5.782 3.687 1.968 8.906 1.968 4.312 0 7.655-1.844 3.345-1.843 5.531-5.343 2.219-3.532 3.094-8.501h-8.874q-.72 3.406-2.657 5.282-1.937 1.844-4.75 1.843-3.593 0-5.594-2.187-1.968-2.187-1.968-6.187v-12.47q0-3.999 1.968-6.187 2.001-2.219 5.595-2.219 1.844 0 3.312.844 1.5.843 2.531 2.437 1.063 1.563 1.563 3.844h8.874q-.843-5-3.061-8.499-2.189-3.5-5.564-5.344-3.344-1.844-7.655-1.844m38.345 0q-5.22 0-8.907 2-3.656 2-5.594 5.781-1.938 3.782-1.938 9.188v12.468q0 5.375 1.938 9.188 1.938 3.78 5.594 5.782 3.688 1.968 8.906 1.968 4.313 0 7.656-1.844 3.344-1.843 5.531-5.343 2.219-3.532 3.094-8.501h-8.874q-.72 3.406-2.657 5.282-1.938 1.844-4.75 1.843-3.593 0-5.594-2.187-1.968-2.187-1.969-6.187v-12.47q0-3.999 1.97-6.187 2-2.219 5.593-2.219 1.844 0 3.312.844 1.5.843 2.532 2.437 1.063 1.563 1.563 3.844h8.874q-.844-5-3.062-8.499-2.187-3.5-5.563-5.344-3.344-1.844-7.655-1.844m77.812 0q-8 0-12.375 3.656-4.375 3.625-4.375 10.282v.03q0 4.125 1.375 6.594 1.406 2.469 3.687 3.813a18 18 0 0 0 5 1.938q2.719.593 5.375 1 2.219.343 4.093.843 1.907.5 3.063 1.563 1.156 1.03 1.156 3v.03q0 2.595-2.311 4.032-2.313 1.406-6.502 1.406-3.624 0-7.062-1.156-3.437-1.187-6.062-3.344l-3.969 7.064a23.8 23.8 0 0 0 4.906 3.061q2.719 1.25 5.813 1.907 3.125.657 6.374.657 8.25-.001 12.783-3.595 4.53-3.625 4.53-10.187v-.063q0-3.844-1.281-6.25t-3.437-3.78a17.4 17.4 0 0 0-4.75-2.094q-2.595-.75-5.22-1.251a80 80 0 0 1-4.436-1q-2.062-.562-3.345-1.687-1.28-1.125-1.28-3.313v-.031q0-2.344 2.156-3.625 2.157-1.313 6.094-1.313 2.625 0 5.468 1 2.875.97 5.5 2.813l3.625-7.25a26.5 26.5 0 0 0-7.093-3.5q-3.813-1.25-7.5-1.25m38.156 0q-8 0-12.375 3.656-4.374 3.625-4.375 10.282v.03q0 4.125 1.375 6.594 1.406 2.469 3.687 3.813a18 18 0 0 0 5 1.938q2.719.593 5.376 1 2.218.343 4.093.843 1.906.5 3.062 1.563 1.156 1.03 1.156 3v.03q0 2.595-2.311 4.032-2.314 1.406-6.501 1.406-3.625 0-7.062-1.156-3.438-1.187-6.063-3.344l-3.968 7.064a23.8 23.8 0 0 0 4.905 3.061q2.719 1.25 5.813 1.907 3.125.657 6.375.657 8.25-.001 12.782-3.595 4.53-3.625 4.53-10.187v-.063q0-3.844-1.281-6.25t-3.436-3.78a17.4 17.4 0 0 0-4.751-2.094q-2.595-.75-5.22-1.251a80 80 0 0 1-4.436-1q-2.063-.562-3.344-1.687t-1.28-3.313v-.031q0-2.344 2.156-3.625 2.156-1.313 6.093-1.313 2.625 0 5.469 1 2.875.97 5.5 2.813l3.624-7.25a26.5 26.5 0 0 0-7.093-3.5q-3.811-1.25-7.5-1.25m-211.125.469v29q0 8.062 4.313 12.5 4.343 4.407 12.249 4.406 7.937 0 12.281-4.406 4.344-4.438 4.345-12.5v-29h-8.564v29.219q0 3.905-2.124 6.062-2.094 2.156-5.938 2.156-3.812 0-5.906-2.156t-2.094-6.062v-29.22zm118.625 0v45.438h30.438v-8.25h-21.876v-10.188h18.438v-8.25h-18.438v-10.5h21.876v-8.25h-21.876zM2407.376 864v45.438h6.374v-20.625q0-2.969 1.688-4.594 1.719-1.625 4.843-1.626 3.25 0 5 1.875 1.782 1.876 1.782 5.313v19.657h6.375V889.75q0-6.312-2.906-9.75-2.875-3.468-8.157-3.468a9.6 9.6 0 0 0-5.375 1.593q-1.91 1.241-3.25 3.31V864Zm153.311 0v37q0 4.094 2 6.343 2 2.25 5.594 2.25h3.75v-6.061h-3q-.938 0-1.469-.657-.5-.656-.5-1.813V864ZM2666 864v6.375h6.374V864Zm66.437 0v37q0 4.094 2 6.343 2 2.25 5.594 2.25h3.75v-6.061h-3q-.938 0-1.469-.657-.5-.656-.5-1.813V864Zm84.157 0v45.438h6.375v-9.289l5.716-6.435 9.503 15.724h6.937l-12.456-20.209L2843.531 877h-7.5l-13.062 15.752V864Zm33.844 0v6.375h6.375V864Zm-463.094 3.563V877H2384v5.75h3.344V901q0 4.156 1.781 6.375 1.812 2.219 5.813 2.218h3.686v-6.061h-3.061q-.907 0-1.375-.657-.47-.656-.47-1.813V882.75h4.907V877h-4.906v-9.437zm524.875 8.875q-5.187 0-8.062 3.469-2.844 3.437-2.845 9.75v7.155q0 6.282 2.906 9.75 2.938 3.438 8.313 3.438 3.438 0 5.562-1.72 1.691-1.371 2.595-3.012v4.138q0 3.687-2 5.688-2 2.031-5.657 2.031-1.907 0-3.656-.937-1.719-.938-2.968-2.657l-4.313 3.907q1.594 2.469 4.468 3.812 2.907 1.375 6.563 1.375 6.656 0 10.281-3.718 3.657-3.689 3.657-10.439V877h-6.376v4.071q-1.316-1.947-3.218-3.133-2.375-1.5-5.25-1.5m-456.375.094q-6.5 0-10.094 3.968-3.562 3.969-3.562 11.22v3.655q0 6.969 3.719 10.75t10.5 3.782q3.03 0 6.03-1.251 3-1.281 5.407-3.594l-4.188-4.188q-1.5 1.407-3.405 2.189-1.907.78-3.844.78-3.876 0-6.033-2.156-2.05-2.08-2.122-5.906h20.436v-2.125q0-8.125-3.375-12.624-3.344-4.5-9.469-4.5m82.374 0q-3.687 0-6.717 1.25-3 1.218-4.845 3.437l4.657 3.188q1.47-1.095 3.312-1.657 1.875-.593 3.78-.593 3.127 0 4.814 1.78 1.718 1.75 1.718 4.937v1.376h-8.936q-5.469 0-8.22 2.407-2.718 2.375-2.718 7.218 0 5.094 2.969 7.562 3 2.47 8.967 2.47 2.033 0 3.626-.438 1.625-.406 2.876-1.25a7.3 7.3 0 0 0 1.436-1.277v2.496h6.064v-20.845q0-5.75-3.345-8.906-3.343-3.155-9.438-3.155m89.001 0q-6.5 0-10.094 3.968-3.562 3.969-3.562 11.22v3.655q0 6.969 3.719 10.75t10.5 3.782q3.03 0 6.03-1.251 3-1.281 5.407-3.594l-4.188-4.188q-1.5 1.407-3.405 2.189-1.907.78-3.844.78-3.876 0-6.033-2.156-2.05-2.08-2.122-5.906h20.436v-2.125q0-8.125-3.375-12.624-3.344-4.5-9.469-4.5m66.53 0q-6.249 0-9.405 2.562t-3.157 7.718q0 2.844.938 4.532.968 1.688 2.563 2.562 1.594.844 3.53 1.188 1.938.313 3.907.469a79 79 0 0 1 4.376.406q2.061.218 3.311.968 1.282.75 1.282 2.563 0 2.345-1.907 3.53-1.875 1.158-5.656 1.158-2.531 0-5.125-1-2.562-1-5.218-3l-3.782 4.656a18.9 18.9 0 0 0 6.281 3.812q3.532 1.25 7.844 1.25 6.813 0 10.188-2.594 3.406-2.593 3.406-7.812 0-3.187-1.062-5.031-1.062-1.845-2.812-2.782a11.7 11.7 0 0 0-3.844-1.25 40 40 0 0 0-4.095-.468q-2.124-.157-3.968-.345-1.844-.186-2.969-.811-1.125-.657-1.125-2.126 0-2.218 1.625-3.312 1.625-1.125 4.874-1.125 2.25 0 4.594.781 2.376.781 4.814 2.344l3.843-4.657a20.8 20.8 0 0 0-6.156-3.155q-3.282-1.031-7.094-1.031m68.501 0q-3.687 0-6.72 1.25-3 1.218-4.842 3.437l4.655 3.188q1.47-1.095 3.314-1.657 1.875-.593 3.78-.593 3.126 0 4.813 1.78 1.719 1.75 1.72 4.937v1.376h-8.94q-5.468 0-8.217 2.407-2.718 2.375-2.719 7.218 0 5.094 2.968 7.562 3 2.47 8.97 2.47 2.03 0 3.625-.438 1.624-.406 2.874-1.25a7.3 7.3 0 0 0 1.438-1.277v2.496h6.062v-20.845q0-5.75-3.343-8.906-3.344-3.155-9.438-3.155m35.562 0q-6.687 0-10.374 3.656-3.656 3.625-3.656 10.28v5.344q0 6.72 3.656 10.406 3.687 3.689 10.374 3.689 3.78 0 6.844-1.313 3.094-1.344 4.907-3.782l-4.594-4.437a9.4 9.4 0 0 1-3.187 2.562 8.7 8.7 0 0 1-3.876.907q-3.688 0-5.719-2.094-2.03-2.094-2.03-5.938v-5.344q0-3.75 2.03-5.812t5.719-2.063a9.2 9.2 0 0 1 3.876.844 9.2 9.2 0 0 1 3.187 2.407l4.594-4.125q-1.812-2.5-4.875-3.844t-6.876-1.343m83.688 0q-2.937 0-5.374 1.593-1.911 1.266-3.251 3.378V877h-6.375v32.438h6.375v-20.531q0-3 1.688-4.657 1.718-1.657 4.844-1.657 3.25 0 5 1.875 1.78 1.876 1.78 5.313v19.657h6.376V889.75q0-6.312-2.907-9.75-2.874-3.468-8.156-3.468m-390.312.468 12.188 32.438h4.811L2520.376 877h-6.656l-7.938 23.157-7.937-23.157zm87.718 0v19.719q0 6.28 2.906 9.75 2.938 3.437 8.313 3.438 3.53 0 5.719-1.72 1.717-1.374 2.625-3.016v4.267h6.344V877h-6.344v20.469q0 3.03-1.718 4.718-1.688 1.656-4.845 1.657-3.156 0-4.905-1.845-1.72-1.875-1.72-5.28V877zm87.094 0v32.438h6.374V877zm184.438 0v32.438h6.375V877zm63.875 5.25q2.031 0 3.437.781 1.438.75 2.188 2.22.75 1.468.75 3.53v8.718q0 2.094-.75 3.595-.75 1.5-2.188 2.312-1.406.781-3.437.782-3.157 0-4.906-1.907-1.72-1.937-1.72-5.469v-7.062q0-3.562 1.72-5.53 1.749-1.97 4.905-1.97m-458.469.031q2.97 0 4.718 2.22 1.782 2.218 2.063 6.155h-14.361q.155-3.825 1.986-6 2-2.375 5.594-2.375m171.375 0q2.97 0 4.718 2.22 1.782 2.218 2.063 6.155h-14.361q.155-3.825 1.986-6 2-2.375 5.594-2.375m-91.188 13.094h8.907v6.125q0 1.656-1.813 2.438-1.812.78-5.437.78-3.312 0-4.969-1.186-1.657-1.187-1.657-3.657 0-2.28 1.25-3.375 1.25-1.125 3.72-1.125m224.032 0h8.906v6.125q0 1.656-1.813 2.438-1.813.78-5.438.78-3.312 0-4.968-1.186-1.657-1.187-1.656-3.657 0-2.28 1.25-3.375 1.25-1.125 3.719-1.125m-1509.75.625q-4.75 0-8.313 2.125-3.563 2.094-5.531 5.906-1.97 3.812-1.969 8.937v12.469q0 5.094 1.969 8.906 1.968 3.813 5.531 5.939 3.563 2.093 8.313 2.093 3.937 0 7.187-1.688t5.47-4.718q2.217-3.031 3-7.094h-6.532q-.907 3.532-3.532 5.407t-5.593 1.875q-4.188 0-6.75-2.939-2.53-2.937-2.531-7.781v-12.469q0-4.844 2.531-7.781 2.562-2.969 6.75-2.968 2 0 3.875.905a9.65 9.65 0 0 1 3.25 2.564q1.407 1.624 2 3.812h6.531q-.78-4.062-3-7.093a15.3 15.3 0 0 0-5.47-4.72q-3.249-1.687-7.186-1.687m77.405.468v17.072q-1.316-1.948-3.218-3.134-2.375-1.5-5.25-1.5-5.187 0-8.062 3.469-2.844 3.438-2.844 9.75v7.156q0 6.28 2.906 9.75 2.938 3.437 8.312 3.438 3.438 0 5.564-1.719 1.69-1.372 2.592-3.014v4.17h6.375v-45.438zm76.594 0q-4.155 0-6.124 2.157-1.97 2.156-1.97 6.437v4.407h-3.437v5.437h3.438v27h6.375v-27H1409v-5.437h-6.406v-4.47q0-1 .438-1.718.437-.75 1.406-.75H1409v-6.063zm11.25 0v37q0 4.095 2.001 6.345t5.593 2.25h3.75V936h-3q-.937 0-1.468-.656-.5-.656-.501-1.812v-37.064zm152.032 0v6.375h6.375v-6.375zm52.656 3.563v9.438h-3.344v5.75h3.344v18.25q0 4.156 1.782 6.375 1.813 2.219 5.812 2.219h3.687V936h-3.063q-.905 0-1.374-.656-.468-.656-.469-1.812v-18.314h4.906v-5.75h-4.906v-9.437zm1315.407 2.719v6.688h6.687v-6.688zM1286.843 909q-6.374 0-9.874 3.656t-3.5 10.313v5.28q0 6.72 3.5 10.439 3.5 3.687 9.874 3.687 6.376 0 9.876-3.656 3.5-3.688 3.5-10.376v-5.374q0-6.656-3.5-10.313-3.5-3.656-9.876-3.656m69.656 0q-6.499 0-10.092 3.968-3.563 3.969-3.563 11.22v3.656q0 6.97 3.718 10.75 3.72 3.781 10.5 3.781 3.031 0 6.032-1.25 3-1.282 5.405-3.594l-4.186-4.187q-1.5 1.406-3.407 2.187-1.906.781-3.844.781-3.875 0-6.03-2.156-2.052-2.08-2.123-5.906h20.434v-2.125q0-8.125-3.375-12.625-3.343-4.5-9.469-4.5m90.033 0q-6.376 0-9.876 3.656t-3.5 10.313v5.28q0 6.72 3.5 10.439 3.5 3.687 9.876 3.687 6.374 0 9.874-3.656 3.5-3.688 3.5-10.376v-5.374q0-6.656-3.5-10.313-3.5-3.656-9.874-3.656m82.374 0q-6.25 0-9.406 2.562-3.156 2.563-3.157 7.72 0 2.843.938 4.53.969 1.688 2.563 2.563 1.594.843 3.53 1.187 1.938.313 3.907.47 2.345.154 4.376.405 2.062.22 3.312.97 1.281.75 1.281 2.562 0 2.344-1.907 3.531-1.875 1.156-5.656 1.156-2.531 0-5.125-1-2.562-1-5.218-3l-3.782 4.657a18.9 18.9 0 0 0 6.281 3.812q3.532 1.25 7.844 1.25 6.813 0 10.188-2.594 3.406-2.594 3.406-7.812 0-3.188-1.062-5.032t-2.812-2.78a11.7 11.7 0 0 0-3.844-1.251 40 40 0 0 0-4.094-.469q-2.125-.156-3.969-.343t-2.969-.813q-1.125-.656-1.125-2.125 0-2.22 1.625-3.312 1.625-1.125 4.875-1.125 2.25 0 4.593.78 2.376.782 4.814 2.344l3.844-4.655q-2.876-2.126-6.157-3.157-3.282-1.03-7.094-1.031m69.75 0q-2.938 0-5.375 1.594-1.91 1.265-3.25 3.378v-4.503h-6.375v32.437h6.375v-20.531q0-3 1.687-4.657 1.72-1.655 4.844-1.655 3.25 0 5 1.875 1.782 1.875 1.781 5.312v19.656h6.375V922.22q0-6.313-2.906-9.75-2.875-3.47-8.156-3.469m54.063 0q-6.375 0-9.875 3.656t-3.5 10.313v5.28q0 6.72 3.5 10.439 3.5 3.687 9.875 3.687 6.374 0 9.874-3.656 3.501-3.688 3.501-10.376v-5.374q0-6.656-3.5-10.313-3.5-3.656-9.875-3.656m-187.812.469 9.999 32.437h4.813l7.906-22.406 7.906 22.406h4.813l10-32.437h-6.657l-5.75 23.156-8.093-23.156h-4.438l-8.093 23.156-5.75-23.156zm102.687 0v32.437h6.375V909.47zm-246.25 5.25q2.03 0 3.437.78 1.438.75 2.187 2.22.75 1.468.75 3.531v8.72q0 2.092-.75 3.592t-2.187 2.313q-1.406.781-3.438.781-3.156 0-4.906-1.906-1.718-1.937-1.718-5.47v-7.061q0-3.562 1.718-5.532 1.75-1.968 4.906-1.968m35.155.03q2.97 0 4.72 2.22 1.782 2.219 2.063 6.157h-14.362q.155-3.825 1.987-6 2-2.376 5.593-2.376m-69.656.314q3.345 0 5.156 2.063 1.845 2.062 1.845 5.843v5.374q0 3.782-1.845 5.876-1.812 2.094-5.156 2.093-3.312 0-5.156-2.093t-1.843-5.876v-5.374q0-3.781 1.843-5.843 1.845-2.063 5.156-2.063m159.689 0q3.344 0 5.156 2.063 1.844 2.062 1.843 5.843v5.374q0 3.782-1.843 5.876-1.812 2.094-5.156 2.093-3.313 0-5.156-2.093-1.845-2.094-1.845-5.876v-5.374q0-3.781 1.845-5.843 1.843-2.063 5.156-2.063m206.187 0q3.344 0 5.156 2.063 1.845 2.062 1.844 5.843v5.374q0 3.782-1.844 5.876-1.812 2.094-5.156 2.093-3.313 0-5.156-2.093-1.845-2.094-1.845-5.876v-5.374q0-3.781 1.844-5.843 1.844-2.063 5.157-2.063m-397.031 61.406v45.437h6.374v-20.625q0-2.969 1.688-4.594 1.718-1.624 4.844-1.624 3.25 0 5 1.875 1.78 1.874 1.781 5.313v19.655h6.375v-19.688q0-6.312-2.906-9.75-2.876-3.468-8.156-3.468-2.938 0-5.375 1.593-1.911 1.24-3.25 3.31v-17.434zm87.25 0v45.437h6.375v-20.625q0-2.969 1.688-4.594 1.717-1.624 4.842-1.624 3.251 0 5.001 1.875 1.782 1.874 1.781 5.313v19.655h6.376v-19.688q0-6.312-2.907-9.75-2.874-3.468-8.156-3.468a9.6 9.6 0 0 0-5.376 1.593q-1.91 1.24-3.249 3.31v-17.434zm276.03 0v45.437h6.376v-20.625q0-2.969 1.687-4.594 1.719-1.624 4.845-1.624 3.249 0 4.999 1.875 1.782 1.874 1.781 5.313v19.655h6.375v-19.688q0-6.312-2.906-9.75-2.875-3.468-8.156-3.468-2.938 0-5.375 1.593-1.91 1.24-3.25 3.31v-17.434zm-383.312 3.563v9.436h-3.343v5.751h3.343v18.25q0 4.155 1.781 6.374 1.812 2.22 5.813 2.22h3.688V1016h-3.063q-.906 0-1.376-.657-.468-.655-.468-1.812V995.22h4.907v-5.75h-4.907v-9.437zm363.281 0v9.436h-3.343v5.751h3.343v18.25q0 4.155 1.781 6.374 1.813 2.22 5.813 2.22h3.688V1016h-3.063q-.907 0-1.375-.657-.47-.655-.469-1.812V995.22h4.907v-5.75h-4.907v-9.437zM1304.157 989q-6.502 0-10.095 3.97-3.562 3.967-3.562 11.217v3.656q0 6.97 3.719 10.75 3.719 3.783 10.5 3.782 3.03 0 6.03-1.25 3-1.281 5.407-3.593l-4.188-4.188q-1.5 1.406-3.406 2.187t-3.843.782q-3.876 0-6.031-2.156-2.05-2.08-2.123-5.906H1317v-2.126q0-8.125-3.375-12.625-3.344-4.5-9.469-4.5m86.125 0q-3.688 0-6.72 1.25-3 1.219-4.844 3.437l4.657 3.188q1.47-1.093 3.312-1.656a12.5 12.5 0 0 1 3.782-.594q3.125 0 4.812 1.78 1.719 1.751 1.718 4.939v1.375h-8.937q-5.468 0-8.219 2.406-2.718 2.375-2.719 7.218 0 5.094 2.97 7.563 3 2.469 8.969 2.469 2.03 0 3.624-.437 1.625-.406 2.876-1.251a7.3 7.3 0 0 0 1.436-1.276v2.495h6.063v-20.843q0-5.751-3.344-8.907t-9.436-3.156m37.312 0q-2.906 0-5.282 1.563-1.877 1.209-3.188 3.238v-4.333h-6.375v45.626h6.375v-17.332a8.4 8.4 0 0 0 2.876 3.176q2.25 1.437 5.28 1.437 5.345 0 8.283-3.437t2.937-9.656v-7.064q0-6.312-2.843-9.75-2.844-3.468-8.063-3.468m34.812 0q-2.905 0-5.28 1.563-1.878 1.209-3.188 3.238v-4.333h-6.375v45.626h6.375v-17.332a8.4 8.4 0 0 0 2.874 3.176q2.25 1.437 5.282 1.437 5.344 0 8.281-3.437t2.937-9.656v-7.064q0-6.312-2.843-9.75-2.844-3.468-8.063-3.468m81.656 0q-2.906 0-5.28 1.563-1.877 1.209-3.188 3.238v-4.333h-6.375v45.626h6.375v-17.332a8.4 8.4 0 0 0 2.874 3.176q2.251 1.437 5.282 1.437 5.344 0 8.281-3.437t2.937-9.656v-7.064q0-6.312-2.843-9.75-2.843-3.468-8.063-3.468m31.563 0q-3.687 0-6.719 1.25-3 1.219-4.844 3.437l4.657 3.188a10.7 10.7 0 0 1 3.312-1.656 12.5 12.5 0 0 1 3.782-.594q3.124 0 4.812 1.78 1.718 1.751 1.718 4.939v1.375h-8.937q-5.47 0-8.219 2.406-2.718 2.375-2.719 7.218 0 5.094 2.97 7.563 3 2.469 8.969 2.469 2.03 0 3.624-.437 1.625-.406 2.875-1.251a7.3 7.3 0 0 0 1.437-1.276v2.495h6.063v-20.843q0-5.751-3.344-8.907t-9.436-3.156m-97.938.468 11.77 31.924-1.55 4.733q-.783 1.75-1.845 2.47-1.031.717-2.812.717h-1.28v6.126h1.28q3.811 0 6-1.312 2.187-1.282 3.344-4.626l13.812-40.032h-6.5l-7.555 23.08-8.164-23.08zm-173.53 5.283q2.967 0 4.717 2.217 1.781 2.22 2.063 6.157h-14.36q.154-3.825 1.985-6 2-2.374 5.594-2.374m121.342 0q3.158 0 4.875 1.968 1.75 1.97 1.751 5.532v7.03q0 3.501-1.75 5.438-1.719 1.906-4.876 1.906-2.031 0-3.468-.78a5.23 5.23 0 0 1-2.157-2.25q-.75-1.47-.75-3.563v-8.845q0-2.062.75-3.5a5.1 5.1 0 0 1 2.157-2.186q1.437-.75 3.468-.75m34.814 0q3.157 0 4.875 1.968 1.75 1.97 1.749 5.532v7.03q0 3.501-1.749 5.438-1.718 1.906-4.875 1.906-2.03 0-3.469-.78a5.23 5.23 0 0 1-2.156-2.25q-.75-1.47-.75-3.563v-8.845q0-2.062.75-3.5a5.1 5.1 0 0 1 2.156-2.186q1.438-.75 3.469-.75m81.656 0q3.157 0 4.875 1.968 1.75 1.97 1.75 5.532v7.03q0 3.501-1.75 5.438-1.718 1.906-4.875 1.906-2.03 0-3.469-.78a5.23 5.23 0 0 1-2.156-2.25q-.75-1.47-.75-3.563v-8.845q0-2.062.75-3.5a5.1 5.1 0 0 1 2.156-2.186q1.438-.75 3.47-.75m-153.876 13.092H1397v6.126q0 1.656-1.812 2.438-1.812.78-5.437.78-3.312 0-4.969-1.187-1.656-1.187-1.657-3.657 0-2.28 1.251-3.375 1.25-1.125 3.718-1.125m185.344 0h8.906v6.126q0 1.656-1.812 2.438-1.812.78-5.437.78-3.313 0-4.969-1.187t-1.657-3.657q0-2.28 1.251-3.375 1.25-1.125 3.718-1.125m80.188 7.376v6.687h6.687v-6.687zM1406.093 1200v45.469h8.564v-18.281h5.194l10.242 18.28h10.376l-10.858-18.721a11.4 11.4 0 0 0 2.981-1.247q2.813-1.688 4.376-4.75 1.593-3.063 1.593-7.156 0-4.094-1.562-7.156-1.562-3.063-4.407-4.75Q1429.78 1200 1426 1200h-11.344zm-168.469.031v45.438h8.564v-18.03h17.843v-8.25h-17.843v-10.908h21.281v-8.25h-21.281zm45.657 0-17.375 45.438h9.219l2.551-7.282h16.647l2.552 7.282h9.22l-17.377-45.438zm27.813 0v45.438h8.875v-45.438zm18.25 0v45.438h30.437v-8.25h-21.875v-37.188zm34.812 0v29q0 8.063 4.313 12.5 4.344 4.407 12.25 4.407 7.938 0 12.281-4.407 4.344-4.437 4.344-12.5v-29h-8.562v29.22q-.001 3.906-2.126 6.062-2.093 2.157-5.937 2.156-3.812 0-5.906-2.156t-2.095-6.063v-29.219zm83.656 0v45.438h30.438v-8.25h-21.874v-10.188h18.436v-8.25h-18.436v-10.5h21.874v-8.25h-21.874zm-33.155 8.22h10.655q2.032 0 3.22 1.468 1.218 1.469 1.219 3.875-.032 2.405-1.251 3.875-1.188 1.469-3.188 1.469h-10.655zM1286 1214.437l5.431 15.5h-10.863zm-54 65.594v6.062h12.843v39.374h6.375v-39.375h12.844v-6.061zm67.312 0v36.999q0 4.095 2.001 6.344t5.593 2.25h3.75v-6.063h-3q-.937 0-1.468-.656-.5-.655-.501-1.812v-37.062zm18.532 0v36.999q0 4.095 2 6.344t5.594 2.25h3.75v-6.063h-3q-.938 0-1.47-.656-.5-.655-.5-1.812v-37.062zm339.03 0v36.999q0 4.095 2.002 6.344 1.999 2.25 5.592 2.25h3.75v-6.063h-3q-.937 0-1.467-.656-.501-.655-.501-1.812v-37.062zm-20.03 3.562v9.437h-3.344v5.75h3.344v18.25q0 4.156 1.781 6.375 1.813 2.22 5.813 2.22h3.687v-6.064h-3.063q-.905 0-1.374-.656-.47-.655-.469-1.812v-18.312h4.906v-5.751h-4.906v-9.437zm-359.125 8.968q-6.501 0-10.094 3.97-3.563 3.968-3.563 11.218v3.656q0 6.97 3.72 10.75 3.717 3.781 10.5 3.781 3.03 0 6.03-1.25 3-1.279 5.407-3.593l-4.188-4.187q-1.5 1.406-3.406 2.187-1.905.781-3.844.782-3.875 0-6.03-2.157-2.05-2.08-2.123-5.906h20.435v-2.125q0-8.126-3.375-12.626-3.344-4.5-9.47-4.5m70.031 0q-6.25 0-9.406 2.564-3.156 2.562-3.156 7.718 0 2.844.937 4.53.969 1.689 2.562 2.564 1.594.843 3.532 1.187 1.937.312 3.907.468 2.343.158 4.374.408 2.063.218 3.313.968 1.28.75 1.28 2.562 0 2.344-1.905 3.532-1.875 1.155-5.656 1.155-2.532 0-5.126-.999-2.562-.999-5.219-3l-3.78 4.656a18.9 18.9 0 0 0 6.28 3.813q3.533 1.25 7.845 1.25 6.811 0 10.186-2.594 3.407-2.594 3.408-7.813-.001-3.187-1.064-5.03-1.062-1.845-2.812-2.782a11.7 11.7 0 0 0-3.844-1.25 40 40 0 0 0-4.093-.468 143 143 0 0 1-3.97-.344q-1.843-.188-2.967-.813-1.125-.656-1.125-2.125-.001-2.219 1.624-3.313 1.625-1.125 4.875-1.125 2.25 0 4.594.782 2.374.781 4.812 2.344l3.844-4.657q-2.875-2.125-6.156-3.157-3.28-1.03-7.094-1.03m81.406 0q-6.374 0-9.875 3.656-3.5 3.657-3.5 10.313v5.282q0 6.72 3.5 10.437 3.5 3.687 9.875 3.687t9.876-3.656q3.5-3.687 3.5-10.374v-5.376q0-6.656-3.5-10.312-3.501-3.657-9.876-3.657m87.157 0q-6.501 0-10.095 3.97-3.562 3.968-3.562 11.218v3.656q0 6.97 3.719 10.75 3.72 3.781 10.5 3.781 3.03 0 6.03-1.25 3-1.279 5.408-3.593l-4.188-4.187q-1.5 1.406-3.406 2.187t-3.844.782q-3.875 0-6.03-2.157-2.052-2.08-2.123-5.906h20.434v-2.125q0-8.126-3.375-12.626-3.344-4.5-9.468-4.5m65.343 0q-3.687 0-6.719 1.251-3 1.218-4.843 3.437l4.656 3.187q1.469-1.093 3.313-1.655 1.875-.594 3.78-.595 3.126 0 4.813 1.781 1.72 1.75 1.72 4.938v1.376h-8.939q-5.468 0-8.218 2.405-2.718 2.375-2.718 7.219 0 5.094 2.967 7.563 3 2.469 8.97 2.468 2.031 0 3.625-.436 1.624-.407 2.874-1.251a7.3 7.3 0 0 0 1.439-1.276v2.495h6.061v-20.844q0-5.75-3.343-8.906t-9.438-3.157m35.562 0q-6.686 0-10.374 3.656-3.656 3.626-3.656 10.282v5.344q0 6.72 3.656 10.406 3.688 3.687 10.374 3.687 3.781 0 6.844-1.312 3.095-1.344 4.907-3.781l-4.593-4.437a9.4 9.4 0 0 1-3.188 2.562 8.7 8.7 0 0 1-3.876.907q-3.687-.001-5.719-2.095-2.03-2.094-2.03-5.937v-5.344q0-3.75 2.03-5.812t5.719-2.063a9.2 9.2 0 0 1 3.876.844 9.2 9.2 0 0 1 3.188 2.407l4.593-4.125q-1.812-2.5-4.875-3.844-3.062-1.345-6.876-1.345m-234.218.469 11.769 31.923-1.55 4.733q-.782 1.75-1.844 2.47-1.032.719-2.813.718h-1.28V1339h1.28q3.813 0 6-1.313 2.187-1.282 3.344-4.626l13.812-40.031h-6.5l-7.555 23.08-8.163-23.08zm67.812 0v19.72q0 6.28 2.906 9.75 2.939 3.436 8.313 3.436 3.53 0 5.719-1.718 1.717-1.374 2.625-3.016v4.266h6.344v-32.438h-6.344v20.47q0 3.03-1.718 4.718-1.688 1.656-4.844 1.657-3.157 0-4.906-1.844-1.72-1.875-1.72-5.281v-19.72zm83.531 0 10.773 15.96-11.272 16.478h7.062l7.693-11.221 7.37 11.22h7.062l-11.142-16.243 10.642-16.194h-7.094l-6.866 11.133-7.133-11.133zm137.625 0 11.769 31.923-1.55 4.733q-.78 1.75-1.843 2.47-1.031.719-2.812.718h-1.282V1339h1.282q3.811 0 6-1.313 2.187-1.282 3.343-4.626l13.813-40.031h-6.501l-7.556 23.08-8.162-23.08zm-394.25 5.282q2.97 0 4.719 2.218 1.781 2.22 2.063 6.157h-14.36q.154-3.825 1.985-6 2-2.376 5.594-2.375m238.595 0q2.968 0 4.718 2.218 1.781 2.22 2.062 6.157h-14.36q.154-3.825 1.985-6 2.001-2.376 5.595-2.375m-87.157.312q3.344 0 5.156 2.063 1.844 2.062 1.844 5.843v5.376q0 3.78-1.844 5.874-1.812 2.094-5.156 2.095-3.313-.001-5.156-2.095-1.844-2.093-1.843-5.874v-5.376q-.001-3.78 1.843-5.843t5.156-2.063m150.313 12.781h8.907v6.126q-.001 1.657-1.814 2.437-1.812.781-5.437.781-3.313 0-4.97-1.188-1.654-1.187-1.654-3.656 0-2.28 1.249-3.375 1.25-1.125 3.72-1.125m-292.344 48.626v45.437h6.375v-20.625q0-2.968 1.687-4.593 1.718-1.626 4.844-1.626 3.25 0 5 1.875 1.78 1.875 1.781 5.313v19.656h6.375v-19.687q0-6.312-2.906-9.75-2.876-3.47-8.156-3.469-2.938 0-5.375 1.594-1.911 1.24-3.25 3.309v-17.434zm70.656 3.562v9.438h-3.344v5.75h3.344v18.25q0 4.156 1.782 6.375 1.812 2.219 5.812 2.218h3.687v-6.062h-3.061q-.907 0-1.376-.656-.468-.657-.469-1.814v-18.312h4.906v-5.75h-4.906v-9.437zm157 0v9.438h-3.343v5.75h3.344v18.25q0 4.156 1.781 6.375 1.812 2.219 5.813 2.218h3.687v-6.062H1523q-.907 0-1.374-.656-.47-.657-.47-1.814v-18.312h4.907v-5.75h-4.906v-9.437zm194 8.875q-5.187 0-8.062 3.47-2.844 3.435-2.843 9.75v7.155q0 6.282 2.906 9.75 2.937 3.438 8.311 3.438 3.438 0 5.564-1.72 1.69-1.372 2.593-3.013v4.138q0 3.688-2 5.688-2 2.032-5.656 2.032-1.906 0-3.656-.938-1.719-.938-2.97-2.657l-4.312 3.907q1.595 2.469 4.47 3.813 2.906 1.375 6.562 1.374 6.657 0 10.28-3.718 3.657-3.687 3.657-10.438v-31.468h-6.375v4.07q-1.316-1.947-3.219-3.133-2.375-1.5-5.25-1.5m-374.313.094q-3.687 0-6.717 1.25-3 1.219-4.845 3.438l4.657 3.187q1.47-1.093 3.312-1.656 1.875-.594 3.78-.594 3.127 0 4.814 1.782 1.719 1.749 1.719 4.936v1.376h-8.937q-5.469 0-8.22 2.406-2.718 2.376-2.718 7.22 0 5.093 2.969 7.56 2.999 2.47 8.968 2.47 2.032 0 3.625-.438 1.625-.405 2.876-1.25a7.3 7.3 0 0 0 1.437-1.276v2.496h6.063v-20.845q0-5.75-3.345-8.906-3.343-3.156-9.438-3.156m122.126 0q-6.501 0-10.094 3.969-3.563 3.97-3.563 11.219v3.656q0 6.968 3.72 10.75 3.717 3.78 10.5 3.781 3.03 0 6.03-1.25 3-1.282 5.407-3.594l-4.188-4.188q-1.5 1.407-3.406 2.189-1.905.78-3.844.78-3.875 0-6.03-2.156-2.05-2.08-2.123-5.906h20.435v-2.126q0-8.124-3.375-12.624-3.344-4.5-9.47-4.5m36.593 0q-2.938 0-5.374 1.594-1.911 1.266-3.251 3.378v-4.503h-6.375v32.438h6.375v-20.532q0-3 1.688-4.656 1.718-1.657 4.844-1.657 3.25 0 5 1.875 1.78 1.875 1.78 5.313v19.657h6.376v-19.688q0-6.312-2.907-9.75-2.874-3.469-8.156-3.469m123.157 0q-2.875 0-5.281 1.625-1.877 1.284-3.187 3.348v-4.504h-6.375v32.438h6.375v-20.532q-.001-2.968 1.655-4.626 1.688-1.687 4.72-1.687 1.687 0 2.967.532a5.34 5.34 0 0 1 2.126 1.563l4.156-5.625a8.8 8.8 0 0 0-3.156-1.875q-1.781-.657-4-.657m24.281 0q-6.375 0-9.874 3.657-3.501 3.656-3.501 10.312v5.28q0 6.72 3.5 10.438 3.5 3.688 9.875 3.688t9.875-3.656q3.5-3.687 3.5-10.375v-5.375q0-6.656-3.5-10.312-3.5-3.657-9.875-3.657m37.437 0q-2.937 0-5.374 1.594-1.911 1.266-3.251 3.378v-4.503h-6.375v32.438h6.375v-20.532q0-3 1.688-4.656 1.718-1.657 4.844-1.657 3.25 0 5 1.875 1.78 1.875 1.78 5.313v19.657h6.376v-19.688q0-6.312-2.907-9.75-2.874-3.469-8.156-3.469m-443.25.47 10 32.437h4.813l7.907-22.407 7.906 22.407h4.812l10-32.438h-6.656l-5.75 23.156-8.094-23.156h-4.437l-8.094 23.156-5.75-23.156zm157.376 0 10 32.437H1407l7.906-22.407 7.907 22.407h4.812l10-32.438h-6.656l-5.75 23.156-8.094-23.156h-4.437l-8.095 23.156-5.75-23.156zm157 0 9.999 32.437h4.814l7.905-22.407 7.906 22.407h4.814l9.999-32.438h-6.657l-5.75 23.156-8.092-23.156h-4.439l-8.093 23.156-5.75-23.156zm161.687 5.25q2.031 0 3.438.78 1.437.75 2.187 2.22.75 1.466.75 3.53v8.718q0 2.095-.75 3.595t-2.187 2.311q-1.407.782-3.438.783-3.157 0-4.906-1.908-1.719-1.937-1.718-5.468v-7.062q0-3.563 1.718-5.531 1.749-1.97 4.906-1.969m-254.281.03q2.968 0 4.718 2.22 1.781 2.217 2.063 6.155h-14.36q.154-3.825 1.985-6 2-2.375 5.594-2.375m184.031.312q3.345 0 5.156 2.063 1.845 2.063 1.845 5.844v5.375q0 3.781-1.845 5.875-1.812 2.094-5.156 2.094-3.312 0-5.156-2.094-1.845-2.094-1.844-5.875v-5.375q0-3.782 1.844-5.844t5.156-2.063m-308.344 12.782h8.907v6.125q0 1.657-1.812 2.437-1.813.781-5.438.781-3.312 0-4.969-1.186-1.656-1.187-1.656-3.657 0-2.28 1.249-3.375 1.25-1.125 3.72-1.125m399.938 7.374v6.689h6.687v-6.689z"/>
  <path fill="#e44" d="M511.9 1104v64h64c18.28 0 32 13.72 32 32v64c0 52.63 43.37 96 96 96h120.6a64.01 64.01 0 0 1 0-64H703.9c-18.28 0-32-13.72-32-32v-64c0-52.63-43.37-96-96-96zm487.9 144.1c-9.332 0-17 7.668-17 17v126c0 9.33 7.67 17 17 17h176c9.332 0 17-7.671 17-17v-126c0-9.332-7.67-17-17-17zm39.22 12.03c5.523 0 9.999 4.476 9.999 9.999s-4.476 9.999-9.999 9.999-10-4.477-9.999-9.999 4.476-10 9.999-10zm27.75 0c5.523 0 9.999 4.476 9.999 9.999.001 5.523-4.477 10-9.999 10s-10-4.478-9.999-10 4.477-9.998 9.999-9.999m-55.5 0c5.522 0 9.999 4.477 9.999 9.999s-4.478 10-10 10-10-4.478-9.999-10 4.477-9.997 9.999-9.999zm-115.4 3.869c-35.35 0-64 28.65-64 64s28.65 64 64 64 64-28.65 64-64-28.65-64-64-64m96.89 25.1h190v102c0 3.965-3.036 7-7 7h-176c-3.964 0-7-3.036-7-7zm-76.95 12.3a6.5 6.5 0 0 1 4.604 11.15l-15.38 15.45 15.38 15.45a6.5 6.5 0 1 1-9.214 9.168l-15.33-15.41-15.33 15.41c-6.112 6.037-15.22-3.025-9.217-9.168l15.38-15.45-15.38-15.46c-4.077-4.105-1.16-11.09 4.624-11.08v.01a6.53 6.53 0 0 1 4.588 1.916l15.33 15.41 15.33-15.41a6.48 6.48 0 0 1 4.61-1.979zm198.2 6.04h-38.73c-6.667 0-6.667 10 0 10h38.73a5.001 5.001 0 0 0 0-10m42.8 0h-20.66c-6.667 0-6.667 10 0 10h20.66a5.001 5.001 0 0 0 0-10m-126.3 11.21c-1.936 0-3.948.948-4.774 2.58l-21.54 42.55c-2.031 3.088.733 7.434 4.78 7.434h42.59c3.967 0 7.115-3.765 5.449-7.059l-20.95-41.43c-1.054-2.084-2.848-4.075-5.549-4.075zm54.22 11.2h-9.532c-6.667 0-6.667 9.999 0 9.999h9.532a5 5 0 0 0 0-10zm72 0h-44.5c-6.667 0-6.667 9.999 0 9.999h44.5a5.002 5.002 0 0 0 0-10zm-126.2 1.576a4 4 0 0 1 4 4v13.61c0 5.333-8 5.333-8 0v-13.61a4 4 0 0 1 3.999-4zm84.21 18.86h-39.53c-6.667 0-6.667 9.999 0 9.999h39.53a5.001 5.001 0 0 0 0-10zm42 0h-14c-6.667 0-6.667 9.999 0 9.999h14a5.001 5.001 0 0 0 0-10zm-125.8 5.804c1.032-.013 3.571 2.883 3.571 4.644v.123a4 4 0 1 1-7.999 0v-.123c0-2.209 4-1.79 4-3.999 0-.449.165-.641.428-.645m125.8 16.32h-81.53c-6.667 0-6.667 9.999 0 9.999h81.53a5 5 0 1 0 0-10z"/>
  <path fill="#1c7" d="M1113 945.8a5 5 0 0 0-5 5 5 5 0 0 0 5 5h44.5a5 5 0 0 0 5-5 5 5 0 0 0-5-5zm-37.5-22.41a5 5 0 0 0-5 5 5 5 0 0 0 5 5h82a5 5 0 0 0 5-5 5 5 0 0 0-5-5zm-54 0a5 5 0 0 0-5 5 5 5 0 0 0 5 5h26a5 5 0 0 0 5-5 5 5 0 0 0-5-5zm-21.08-59.34c-9.332 0-17 7.668-17 17v126c0 9.33 7.668 17 17 17h176c9.332 0 17-7.67 17-17v-126c0-9.332-7.67-17-17-17zm11.47 12.03a10 10 0 0 1 10 9.999 10 10 0 0 1-10 10 10 10 0 0 1-9.999-10 10 10 0 0 1 10-9.999m27.75 0a10 10 0 0 1 10 9.999 10 10 0 0 1-10 10 10 10 0 0 1-9.999-10 10 10 0 0 1 10-9.999m27.75 0a10 10 0 0 1 10 9.999 10 10 0 0 1-10 10 10 10 0 0 1-9.999-10 10 10 0 0 1 10-9.999m-73.98 28.97h190v102c0 3.965-3.035 7-7 7h-176c-3.964 0-7-3.035-7-7zm28.08 40.75a5 5 0 0 0-5 5 5 5 0 0 0 5 5h64a5 5 0 0 0 5-5 5 5 0 0 0-5-5zm54 20.44a5 5 0 0 0 0 10h82a5 5 0 0 0 0-10zm-54 22.12a5 5 0 0 0-5 5 5 5 0 0 0 5 5h88a5 5 0 0 0 5-5 5 5 0 0 0-5-5zm0-22.12a5 5 0 0 0-5 5 5 5 0 0 0 5 5h26a5 5 0 0 0 5-5 5 5 0 0 0-5-5zm-125.1-86.19a64 64 0 0 0-64 64 64 64 0 0 0 64 64 64 64 0 0 0 64-64 64 64 0 0 0-64-64m25.29 39.1a6.5 6.5 0 0 1 4.788 11.01l-35.53 36.8a6.5 6.5 0 0 1-9.42-.07l-15.28-16.31a6.5 6.5 0 0 1 .3-9.187 6.5 6.5 0 0 1 9.187.298l10.61 11.32 30.78-31.88a6.5 6.5 0 0 1 4.563-1.984zm-217.3-7.104v.126c-52.59 0-95.92 43.3-96 95.88h-.005v64.12c-.062 18.22-13.76 31.88-32 31.88h-86.22c-1.262-11.38-7.826-20-15.78-20q-.441 0-.875.034v-.034h-15.13v104h15.13v-.035q.434.035.874.035c7.955 0 14.52-8.621 15.78-20h86.22c52.59 0 95.92-43.3 95.99-95.88h.006v-64.13c.063-18.22 13.76-31.88 32-31.88h64v-.124h56.58a64 64 0 0 1-.001-64z"/>
</svg>